<svg width="252" height="252" viewBox="0 0 252 252" fill="none" xmlns="http://www.w3.org/2000/svg">
<g id="Frame">
<path id="Vector" d="M231.286 45.3096H228.262V48.3336H231.286V45.3096Z" fill="#454545"/>
<path id="Vector_2" d="M226.347 50.2992H223.323V53.3232H226.347V50.2992Z" fill="#454545"/>
<path id="Vector_3" d="M231.286 50.2992H228.262V53.3232H231.286V50.2992Z" fill="#454545"/>
<path id="Vector_4" d="M226.347 55.2384H223.323V58.2624H226.347V55.2384Z" fill="#454545"/>
<path id="Vector_5" d="M231.286 55.2384H228.262V58.2624H231.286V55.2384Z" fill="#454545"/>
<path id="Vector_6" d="M221.407 60.1776H218.383V63.2016H221.407V60.1776Z" fill="#454545"/>
<path id="Vector_7" d="M226.347 60.1776H223.323V63.2016H226.347V60.1776Z" fill="#454545"/>
<path id="Vector_8" d="M231.286 60.1776H228.262V63.2016H231.286V60.1776Z" fill="#454545"/>
<path id="Vector_9" d="M211.478 65.1168H208.454V68.1408H211.478V65.1168Z" fill="#454545"/>
<path id="Vector_10" d="M216.418 65.1168H213.394V68.1408H216.418V65.1168Z" fill="#454545"/>
<path id="Vector_11" d="M221.407 65.1168H218.383V68.1408H221.407V65.1168Z" fill="#454545"/>
<path id="Vector_12" d="M226.347 65.1168H223.323V68.1408H226.347V65.1168Z" fill="#454545"/>
<path id="Vector_13" d="M231.286 65.1168H228.262V68.1408H231.286V65.1168Z" fill="#454545"/>
<path id="Vector_14" d="M201.6 70.1064H198.576V73.1304H201.6V70.1064Z" fill="#454545"/>
<path id="Vector_15" d="M211.478 70.1064H208.454V73.1304H211.478V70.1064Z" fill="#454545"/>
<path id="Vector_16" d="M216.418 70.1064H213.394V73.1304H216.418V70.1064Z" fill="#454545"/>
<path id="Vector_17" d="M221.407 70.1064H218.383V73.1304H221.407V70.1064Z" fill="#454545"/>
<path id="Vector_18" d="M226.347 70.1064H223.323V73.1304H226.347V70.1064Z" fill="#454545"/>
<path id="Vector_19" d="M231.286 70.1064H228.262V73.1304H231.286V70.1064Z" fill="#454545"/>
<path id="Vector_20" d="M236.225 70.1064H233.201V73.1304H236.225V70.1064Z" fill="#454545"/>
<path id="Vector_21" d="M241.214 70.1064H238.19V73.1304H241.214V70.1064Z" fill="#454545"/>
<path id="Vector_22" d="M201.6 75.0456H198.576V78.0696H201.6V75.0456Z" fill="#454545"/>
<path id="Vector_23" d="M206.539 75.0456H203.515V78.0696H206.539V75.0456Z" fill="#454545"/>
<path id="Vector_24" d="M211.478 75.0456H208.454V78.0696H211.478V75.0456Z" fill="#454545"/>
<path id="Vector_25" d="M216.418 75.0456H213.394V78.0696H216.418V75.0456Z" fill="#454545"/>
<path id="Vector_26" d="M221.407 75.0456H218.383V78.0696H221.407V75.0456Z" fill="#454545"/>
<path id="Vector_27" d="M226.347 75.0456H223.323V78.0696H226.347V75.0456Z" fill="#454545"/>
<path id="Vector_28" d="M231.286 75.0456H228.262V78.0696H231.286V75.0456Z" fill="#454545"/>
<path id="Vector_29" d="M236.225 75.0456H233.201V78.0696H236.225V75.0456Z" fill="#454545"/>
<path id="Vector_30" d="M241.214 75.0456H238.19V78.0696H241.214V75.0456Z" fill="#454545"/>
<path id="Vector_31" d="M196.61 79.9848H193.586V83.0088H196.61V79.9848Z" fill="#454545"/>
<path id="Vector_32" d="M201.6 79.9848H198.576V83.0088H201.6V79.9848Z" fill="#454545"/>
<path id="Vector_33" d="M206.539 79.9848H203.515V83.0088H206.539V79.9848Z" fill="#454545"/>
<path id="Vector_34" d="M211.478 79.9848H208.454V83.0088H211.478V79.9848Z" fill="#454545"/>
<path id="Vector_35" d="M216.418 79.9848H213.394V83.0088H216.418V79.9848Z" fill="#454545"/>
<path id="Vector_36" d="M221.407 79.9848H218.383V83.0088H221.407V79.9848Z" fill="#454545"/>
<path id="Vector_37" d="M226.347 79.9848H223.323V83.0088H226.347V79.9848Z" fill="#454545"/>
<path id="Vector_38" d="M231.286 79.9848H228.262V83.0088H231.286V79.9848Z" fill="#454545"/>
<path id="Vector_39" d="M236.225 79.9848H233.201V83.0088H236.225V79.9848Z" fill="#454545"/>
<path id="Vector_40" d="M241.214 79.9848H238.19V83.0088H241.214V79.9848Z" fill="#454545"/>
<path id="Vector_41" d="M191.671 84.924H188.647V87.948H191.671V84.924Z" fill="#454545"/>
<path id="Vector_42" d="M196.61 84.924H193.586V87.948H196.61V84.924Z" fill="#454545"/>
<path id="Vector_43" d="M201.6 84.924H198.576V87.948H201.6V84.924Z" fill="#454545"/>
<path id="Vector_44" d="M206.539 84.924H203.515V87.948H206.539V84.924Z" fill="#454545"/>
<path id="Vector_45" d="M211.478 84.924H208.454V87.948H211.478V84.924Z" fill="#454545"/>
<path id="Vector_46" d="M216.418 84.924H213.394V87.948H216.418V84.924Z" fill="#454545"/>
<path id="Vector_47" d="M221.407 84.924H218.383V87.948H221.407V84.924Z" fill="#454545"/>
<path id="Vector_48" d="M226.347 84.924H223.323V87.948H226.347V84.924Z" fill="#454545"/>
<path id="Vector_49" d="M231.286 84.924H228.262V87.948H231.286V84.924Z" fill="#454545"/>
<path id="Vector_50" d="M241.214 84.924H238.19V87.948H241.214V84.924Z" fill="#454545"/>
<path id="Vector_51" d="M191.671 89.9136H188.647V92.9376H191.671V89.9136Z" fill="#454545"/>
<path id="Vector_52" d="M196.61 89.9136H193.586V92.9376H196.61V89.9136Z" fill="#454545"/>
<path id="Vector_53" d="M201.6 89.9136H198.576V92.9376H201.6V89.9136Z" fill="#454545"/>
<path id="Vector_54" d="M206.539 89.9136H203.515V92.9376H206.539V89.9136Z" fill="#454545"/>
<path id="Vector_55" d="M211.478 89.9136H208.454V92.9376H211.478V89.9136Z" fill="#454545"/>
<path id="Vector_56" d="M216.418 89.9136H213.394V92.9376H216.418V89.9136Z" fill="#454545"/>
<path id="Vector_57" d="M221.407 89.9136H218.383V92.9376H221.407V89.9136Z" fill="#454545"/>
<path id="Vector_58" d="M226.347 89.9136H223.323V92.9376H226.347V89.9136Z" fill="#454545"/>
<path id="Vector_59" d="M231.286 89.9136H228.262V92.9376H231.286V89.9136Z" fill="#454545"/>
<path id="Vector_60" d="M236.225 89.9136H233.201V92.9376H236.225V89.9136Z" fill="#454545"/>
<path id="Vector_61" d="M241.214 89.9136H238.19V92.9376H241.214V89.9136Z" fill="#454545"/>
<path id="Vector_62" d="M186.732 94.8528H183.708V97.8768H186.732V94.8528Z" fill="#454545"/>
<path id="Vector_63" d="M191.671 94.8528H188.647V97.8768H191.671V94.8528Z" fill="#454545"/>
<path id="Vector_64" d="M196.61 94.8528H193.586V97.8768H196.61V94.8528Z" fill="#454545"/>
<path id="Vector_65" d="M201.6 94.8528H198.576V97.8768H201.6V94.8528Z" fill="#454545"/>
<path id="Vector_66" d="M206.539 94.8528H203.515V97.8768H206.539V94.8528Z" fill="#454545"/>
<path id="Vector_67" d="M211.478 94.8528H208.454V97.8768H211.478V94.8528Z" fill="#454545"/>
<path id="Vector_68" d="M216.418 94.8528H213.394V97.8768H216.418V94.8528Z" fill="#454545"/>
<path id="Vector_69" d="M221.407 94.8528H218.383V97.8768H221.407V94.8528Z" fill="#454545"/>
<path id="Vector_70" d="M226.347 94.8528H223.323V97.8768H226.347V94.8528Z" fill="#454545"/>
<path id="Vector_71" d="M231.286 94.8528H228.262V97.8768H231.286V94.8528Z" fill="#454545"/>
<path id="Vector_72" d="M236.225 94.8528H233.201V97.8768H236.225V94.8528Z" fill="#454545"/>
<path id="Vector_73" d="M241.214 94.8528H238.19V97.8768H241.214V94.8528Z" fill="#454545"/>
<path id="Vector_74" d="M181.793 99.792H178.769V102.816H181.793V99.792Z" fill="#454545"/>
<path id="Vector_75" d="M186.732 99.792H183.708V102.816H186.732V99.792Z" fill="#454545"/>
<path id="Vector_76" d="M191.671 99.792H188.647V102.816H191.671V99.792Z" fill="#454545"/>
<path id="Vector_77" d="M196.61 99.792H193.586V102.816H196.61V99.792Z" fill="#454545"/>
<path id="Vector_78" d="M201.6 99.792H198.576V102.816H201.6V99.792Z" fill="#454545"/>
<path id="Vector_79" d="M206.539 99.792H203.515V102.816H206.539V99.792Z" fill="#454545"/>
<path id="Vector_80" d="M211.478 99.792H208.454V102.816H211.478V99.792Z" fill="#454545"/>
<path id="Vector_81" d="M216.418 99.792H213.394V102.816H216.418V99.792Z" fill="#454545"/>
<path id="Vector_82" d="M221.407 99.792H218.383V102.816H221.407V99.792Z" fill="#454545"/>
<path id="Vector_83" d="M226.347 99.792H223.323V102.816H226.347V99.792Z" fill="#454545"/>
<path id="Vector_84" d="M231.286 99.792H228.262V102.816H231.286V99.792Z" fill="#454545"/>
<path id="Vector_85" d="M236.225 99.792H233.201V102.816H236.225V99.792Z" fill="#454545"/>
<path id="Vector_86" d="M241.214 99.792H238.19V102.816H241.214V99.792Z" fill="#454545"/>
<path id="Vector_87" d="M171.864 104.731H168.84V107.755H171.864V104.731Z" fill="#454545"/>
<path id="Vector_88" d="M176.803 104.731H173.779V107.755H176.803V104.731Z" fill="#454545"/>
<path id="Vector_89" d="M181.793 104.731H178.769V107.755H181.793V104.731Z" fill="#454545"/>
<path id="Vector_90" d="M186.732 104.731H183.708V107.755H186.732V104.731Z" fill="#454545"/>
<path id="Vector_91" d="M191.671 104.731H188.647V107.755H191.671V104.731Z" fill="#454545"/>
<path id="Vector_92" d="M196.61 104.731H193.586V107.755H196.61V104.731Z" fill="#454545"/>
<path id="Vector_93" d="M201.6 104.731H198.576V107.755H201.6V104.731Z" fill="#454545"/>
<path id="Vector_94" d="M206.539 104.731H203.515V107.755H206.539V104.731Z" fill="#454545"/>
<path id="Vector_95" d="M211.478 104.731H208.454V107.755H211.478V104.731Z" fill="#454545"/>
<path id="Vector_96" d="M216.418 104.731H213.394V107.755H216.418V104.731Z" fill="#454545"/>
<path id="Vector_97" d="M226.347 104.731H223.323V107.755H226.347V104.731Z" fill="#454545"/>
<path id="Vector_98" d="M231.286 104.731H228.262V107.755H231.286V104.731Z" fill="#454545"/>
<path id="Vector_99" d="M236.225 104.731H233.201V107.755H236.225V104.731Z" fill="#454545"/>
<path id="Vector_100" d="M166.925 109.721H163.901V112.745H166.925V109.721Z" fill="#454545"/>
<path id="Vector_101" d="M171.864 109.721H168.84V112.745H171.864V109.721Z" fill="#454545"/>
<path id="Vector_102" d="M176.803 109.721H173.779V112.745H176.803V109.721Z" fill="#454545"/>
<path id="Vector_103" d="M181.793 109.721H178.769V112.745H181.793V109.721Z" fill="#454545"/>
<path id="Vector_104" d="M186.732 109.721H183.708V112.745H186.732V109.721Z" fill="#454545"/>
<path id="Vector_105" d="M191.671 109.721H188.647V112.745H191.671V109.721Z" fill="#454545"/>
<path id="Vector_106" d="M196.61 109.721H193.586V112.745H196.61V109.721Z" fill="#454545"/>
<path id="Vector_107" d="M201.6 109.721H198.576V112.745H201.6V109.721Z" fill="#454545"/>
<path id="Vector_108" d="M206.539 109.721H203.515V112.745H206.539V109.721Z" fill="#454545"/>
<path id="Vector_109" d="M211.478 109.721H208.454V112.745H211.478V109.721Z" fill="#454545"/>
<path id="Vector_110" d="M226.347 109.721H223.323V112.745H226.347V109.721Z" fill="#454545"/>
<path id="Vector_111" d="M231.286 109.721H228.262V112.745H231.286V109.721Z" fill="#454545"/>
<path id="Vector_112" d="M161.986 114.66H158.962V117.684H161.986V114.66Z" fill="#454545"/>
<path id="Vector_113" d="M166.925 114.66H163.901V117.684H166.925V114.66Z" fill="#454545"/>
<path id="Vector_114" d="M171.864 114.66H168.84V117.684H171.864V114.66Z" fill="#454545"/>
<path id="Vector_115" d="M176.803 114.66H173.779V117.684H176.803V114.66Z" fill="#454545"/>
<path id="Vector_116" d="M181.793 114.66H178.769V117.684H181.793V114.66Z" fill="#454545"/>
<path id="Vector_117" d="M186.732 114.66H183.708V117.684H186.732V114.66Z" fill="#454545"/>
<path id="Vector_118" d="M191.671 114.66H188.647V117.684H191.671V114.66Z" fill="#454545"/>
<path id="Vector_119" d="M196.61 114.66H193.586V117.684H196.61V114.66Z" fill="#454545"/>
<path id="Vector_120" d="M201.6 114.66H198.576V117.684H201.6V114.66Z" fill="#454545"/>
<path id="Vector_121" d="M206.539 114.66H203.515V117.684H206.539V114.66Z" fill="#454545"/>
<path id="Vector_122" d="M211.478 114.66H208.454V117.684H211.478V114.66Z" fill="#454545"/>
<path id="Vector_123" d="M161.986 119.599H158.962V122.623H161.986V119.599Z" fill="#454545"/>
<path id="Vector_124" d="M166.925 119.599H163.901V122.623H166.925V119.599Z" fill="#454545"/>
<path id="Vector_125" d="M171.864 119.599H168.84V122.623H171.864V119.599Z" fill="#454545"/>
<path id="Vector_126" d="M176.803 119.599H173.779V122.623H176.803V119.599Z" fill="#454545"/>
<path id="Vector_127" d="M181.793 119.599H178.769V122.623H181.793V119.599Z" fill="#454545"/>
<path id="Vector_128" d="M186.732 119.599H183.708V122.623H186.732V119.599Z" fill="#454545"/>
<path id="Vector_129" d="M191.671 119.599H188.647V122.623H191.671V119.599Z" fill="#454545"/>
<path id="Vector_130" d="M196.61 119.599H193.586V122.623H196.61V119.599Z" fill="#454545"/>
<path id="Vector_131" d="M201.6 119.599H198.576V122.623H201.6V119.599Z" fill="#454545"/>
<path id="Vector_132" d="M206.539 119.599H203.515V122.623H206.539V119.599Z" fill="#454545"/>
<path id="Vector_133" d="M211.478 119.599H208.454V122.623H211.478V119.599Z" fill="#454545"/>
<path id="Vector_134" d="M216.418 119.599H213.394V122.623H216.418V119.599Z" fill="#454545"/>
<path id="Vector_135" d="M152.057 124.538H149.033V127.562H152.057V124.538Z" fill="#454545"/>
<path id="Vector_136" d="M161.986 124.538H158.962V127.562H161.986V124.538Z" fill="#454545"/>
<path id="Vector_137" d="M166.925 124.538H163.901V127.562H166.925V124.538Z" fill="#454545"/>
<path id="Vector_138" d="M171.864 124.538H168.84V127.562H171.864V124.538Z" fill="#454545"/>
<path id="Vector_139" d="M176.803 124.538H173.779V127.562H176.803V124.538Z" fill="#454545"/>
<path id="Vector_140" d="M181.793 124.538H178.769V127.562H181.793V124.538Z" fill="#454545"/>
<path id="Vector_141" d="M186.732 124.538H183.708V127.562H186.732V124.538Z" fill="#454545"/>
<path id="Vector_142" d="M191.671 124.538H188.647V127.562H191.671V124.538Z" fill="#454545"/>
<path id="Vector_143" d="M196.61 124.538H193.586V127.562H196.61V124.538Z" fill="#454545"/>
<path id="Vector_144" d="M201.6 124.538H198.576V127.562H201.6V124.538Z" fill="#454545"/>
<path id="Vector_145" d="M206.539 124.538H203.515V127.562H206.539V124.538Z" fill="#454545"/>
<path id="Vector_146" d="M211.478 124.538H208.454V127.562H211.478V124.538Z" fill="#454545"/>
<path id="Vector_147" d="M147.118 129.528H144.094V132.552H147.118V129.528Z" fill="#454545"/>
<path id="Vector_148" d="M156.996 129.528H153.972V132.552H156.996V129.528Z" fill="#454545"/>
<path id="Vector_149" d="M161.986 129.528H158.962V132.552H161.986V129.528Z" fill="#454545"/>
<path id="Vector_150" d="M166.925 129.528H163.901V132.552H166.925V129.528Z" fill="#454545"/>
<path id="Vector_151" d="M171.864 129.528H168.84V132.552H171.864V129.528Z" fill="#454545"/>
<path id="Vector_152" d="M176.803 129.528H173.779V132.552H176.803V129.528Z" fill="#454545"/>
<path id="Vector_153" d="M181.793 129.528H178.769V132.552H181.793V129.528Z" fill="#454545"/>
<path id="Vector_154" d="M186.732 129.528H183.708V132.552H186.732V129.528Z" fill="#454545"/>
<path id="Vector_155" d="M191.671 129.528H188.647V132.552H191.671V129.528Z" fill="#454545"/>
<path id="Vector_156" d="M196.61 129.528H193.586V132.552H196.61V129.528Z" fill="#454545"/>
<path id="Vector_157" d="M201.6 129.528H198.576V132.552H201.6V129.528Z" fill="#454545"/>
<path id="Vector_158" d="M206.539 129.528H203.515V132.552H206.539V129.528Z" fill="#454545"/>
<path id="Vector_159" d="M211.478 129.528H208.454V132.552H211.478V129.528Z" fill="#454545"/>
<path id="Vector_160" d="M13.4063 134.467H10.3823V137.491H13.4063V134.467Z" fill="#454545"/>
<path id="Vector_161" d="M62.8992 134.467H59.8752V137.491H62.8992V134.467Z" fill="#454545"/>
<path id="Vector_162" d="M97.5743 134.467H94.5503V137.491H97.5743V134.467Z" fill="#454545"/>
<path id="Vector_163" d="M142.128 134.467H139.104V137.491H142.128V134.467Z" fill="#454545"/>
<path id="Vector_164" d="M152.057 134.467H149.033V137.491H152.057V134.467Z" fill="#454545"/>
<path id="Vector_165" d="M156.996 134.467H153.972V137.491H156.996V134.467Z" fill="#454545"/>
<path id="Vector_166" d="M161.986 134.467H158.962V137.491H161.986V134.467Z" fill="#454545"/>
<path id="Vector_167" d="M166.925 134.467H163.901V137.491H166.925V134.467Z" fill="#454545"/>
<path id="Vector_168" d="M171.864 134.467H168.84V137.491H171.864V134.467Z" fill="#454545"/>
<path id="Vector_169" d="M176.803 134.467H173.779V137.491H176.803V134.467Z" fill="#454545"/>
<path id="Vector_170" d="M181.793 134.467H178.769V137.491H181.793V134.467Z" fill="#454545"/>
<path id="Vector_171" d="M186.732 134.467H183.708V137.491H186.732V134.467Z" fill="#454545"/>
<path id="Vector_172" d="M191.671 134.467H188.647V137.491H191.671V134.467Z" fill="#454545"/>
<path id="Vector_173" d="M196.61 134.467H193.586V137.491H196.61V134.467Z" fill="#454545"/>
<path id="Vector_174" d="M201.6 134.467H198.576V137.491H201.6V134.467Z" fill="#454545"/>
<path id="Vector_175" d="M206.539 134.467H203.515V137.491H206.539V134.467Z" fill="#454545"/>
<path id="Vector_176" d="M211.478 134.467H208.454V137.491H211.478V134.467Z" fill="#454545"/>
<path id="Vector_177" d="M216.418 134.467H213.394V137.491H216.418V134.467Z" fill="#454545"/>
<path id="Vector_178" d="M13.4063 139.406H10.3823V142.43H13.4063V139.406Z" fill="#454545"/>
<path id="Vector_179" d="M18.3455 139.406H15.3215V142.43H18.3455V139.406Z" fill="#454545"/>
<path id="Vector_180" d="M33.2137 139.406H30.1897V142.43H33.2137V139.406Z" fill="#454545"/>
<path id="Vector_181" d="M92.6351 139.406H89.6111V142.43H92.6351V139.406Z" fill="#454545"/>
<path id="Vector_182" d="M97.5743 139.406H94.5503V142.43H97.5743V139.406Z" fill="#454545"/>
<path id="Vector_183" d="M137.189 139.406H134.165V142.43H137.189V139.406Z" fill="#454545"/>
<path id="Vector_184" d="M142.128 139.406H139.104V142.43H142.128V139.406Z" fill="#454545"/>
<path id="Vector_185" d="M147.118 139.406H144.094V142.43H147.118V139.406Z" fill="#454545"/>
<path id="Vector_186" d="M152.057 139.406H149.033V142.43H152.057V139.406Z" fill="#454545"/>
<path id="Vector_187" d="M156.996 139.406H153.972V142.43H156.996V139.406Z" fill="#454545"/>
<path id="Vector_188" d="M161.986 139.406H158.962V142.43H161.986V139.406Z" fill="#454545"/>
<path id="Vector_189" d="M166.925 139.406H163.901V142.43H166.925V139.406Z" fill="#454545"/>
<path id="Vector_190" d="M171.864 139.406H168.84V142.43H171.864V139.406Z" fill="#454545"/>
<path id="Vector_191" d="M176.803 139.406H173.779V142.43H176.803V139.406Z" fill="#454545"/>
<path id="Vector_192" d="M181.793 139.406H178.769V142.43H181.793V139.406Z" fill="#454545"/>
<path id="Vector_193" d="M186.732 139.406H183.708V142.43H186.732V139.406Z" fill="#454545"/>
<path id="Vector_194" d="M191.671 139.406H188.647V142.43H191.671V139.406Z" fill="#454545"/>
<path id="Vector_195" d="M196.61 139.406H193.586V142.43H196.61V139.406Z" fill="#454545"/>
<path id="Vector_196" d="M201.6 139.406H198.576V142.43H201.6V139.406Z" fill="#454545"/>
<path id="Vector_197" d="M206.539 139.406H203.515V142.43H206.539V139.406Z" fill="#454545"/>
<path id="Vector_198" d="M211.478 139.406H208.454V142.43H211.478V139.406Z" fill="#454545"/>
<path id="Vector_199" d="M13.4063 144.346H10.3823V147.37H13.4063V144.346Z" fill="#454545"/>
<path id="Vector_200" d="M18.3455 144.346H15.3215V147.37H18.3455V144.346Z" fill="#454545"/>
<path id="Vector_201" d="M62.8992 144.346H59.8752V147.37H62.8992V144.346Z" fill="#454545"/>
<path id="Vector_202" d="M87.6961 144.346H84.6721V147.37H87.6961V144.346Z" fill="#454545"/>
<path id="Vector_203" d="M112.442 144.346H109.418V147.37H112.442V144.346Z" fill="#454545"/>
<path id="Vector_204" d="M117.382 144.346H114.358V147.37H117.382V144.346Z" fill="#454545"/>
<path id="Vector_205" d="M122.321 144.346H119.297V147.37H122.321V144.346Z" fill="#454545"/>
<path id="Vector_206" d="M127.31 144.346H124.286V147.37H127.31V144.346Z" fill="#454545"/>
<path id="Vector_207" d="M137.189 144.346H134.165V147.37H137.189V144.346Z" fill="#454545"/>
<path id="Vector_208" d="M142.128 144.346H139.104V147.37H142.128V144.346Z" fill="#454545"/>
<path id="Vector_209" d="M147.118 144.346H144.094V147.37H147.118V144.346Z" fill="#454545"/>
<path id="Vector_210" d="M152.057 144.346H149.033V147.37H152.057V144.346Z" fill="#454545"/>
<path id="Vector_211" d="M156.996 144.346H153.972V147.37H156.996V144.346Z" fill="#454545"/>
<path id="Vector_212" d="M161.986 144.346H158.962V147.37H161.986V144.346Z" fill="#454545"/>
<path id="Vector_213" d="M166.925 144.346H163.901V147.37H166.925V144.346Z" fill="#454545"/>
<path id="Vector_214" d="M171.864 144.346H168.84V147.37H171.864V144.346Z" fill="#454545"/>
<path id="Vector_215" d="M176.803 144.346H173.779V147.37H176.803V144.346Z" fill="#454545"/>
<path id="Vector_216" d="M181.793 144.346H178.769V147.37H181.793V144.346Z" fill="#454545"/>
<path id="Vector_217" d="M186.732 144.346H183.708V147.37H186.732V144.346Z" fill="#454545"/>
<path id="Vector_218" d="M191.671 144.346H188.647V147.37H191.671V144.346Z" fill="#454545"/>
<path id="Vector_219" d="M196.61 144.346H193.586V147.37H196.61V144.346Z" fill="#454545"/>
<path id="Vector_220" d="M201.6 144.346H198.576V147.37H201.6V144.346Z" fill="#454545"/>
<path id="Vector_221" d="M206.539 144.346H203.515V147.37H206.539V144.346Z" fill="#454545"/>
<path id="Vector_222" d="M211.478 144.346H208.454V147.37H211.478V144.346Z" fill="#454545"/>
<path id="Vector_223" d="M216.418 144.346H213.394V147.37H216.418V144.346Z" fill="#454545"/>
<path id="Vector_224" d="M221.407 144.346H218.383V147.37H221.407V144.346Z" fill="#454545"/>
<path id="Vector_225" d="M13.4063 149.335H10.3823V152.359H13.4063V149.335Z" fill="#454545"/>
<path id="Vector_226" d="M18.3455 149.335H15.3215V152.359H18.3455V149.335Z" fill="#454545"/>
<path id="Vector_227" d="M53.0208 149.335H49.9968V152.359H53.0208V149.335Z" fill="#454545"/>
<path id="Vector_228" d="M57.96 149.335H54.936V152.359H57.96V149.335Z" fill="#454545"/>
<path id="Vector_229" d="M62.8992 149.335H59.8752V152.359H62.8992V149.335Z" fill="#454545"/>
<path id="Vector_230" d="M67.8887 149.335H64.8647V152.359H67.8887V149.335Z" fill="#454545"/>
<path id="Vector_231" d="M72.828 149.335H69.804V152.359H72.828V149.335Z" fill="#454545"/>
<path id="Vector_232" d="M77.7672 149.335H74.7432V152.359H77.7672V149.335Z" fill="#454545"/>
<path id="Vector_233" d="M82.7064 149.335H79.6824V152.359H82.7064V149.335Z" fill="#454545"/>
<path id="Vector_234" d="M87.6961 149.335H84.6721V152.359H87.6961V149.335Z" fill="#454545"/>
<path id="Vector_235" d="M92.6351 149.335H89.6111V152.359H92.6351V149.335Z" fill="#454545"/>
<path id="Vector_236" d="M97.5743 149.335H94.5503V152.359H97.5743V149.335Z" fill="#454545"/>
<path id="Vector_237" d="M102.514 149.335H99.4895V152.359H102.514V149.335Z" fill="#454545"/>
<path id="Vector_238" d="M127.31 149.335H124.286V152.359H127.31V149.335Z" fill="#454545"/>
<path id="Vector_239" d="M132.25 149.335H129.226V152.359H132.25V149.335Z" fill="#454545"/>
<path id="Vector_240" d="M137.189 149.335H134.165V152.359H137.189V149.335Z" fill="#454545"/>
<path id="Vector_241" d="M142.128 149.335H139.104V152.359H142.128V149.335Z" fill="#454545"/>
<path id="Vector_242" d="M147.118 149.335H144.094V152.359H147.118V149.335Z" fill="#454545"/>
<path id="Vector_243" d="M152.057 149.335H149.033V152.359H152.057V149.335Z" fill="#454545"/>
<path id="Vector_244" d="M156.996 149.335H153.972V152.359H156.996V149.335Z" fill="#454545"/>
<path id="Vector_245" d="M161.986 149.335H158.962V152.359H161.986V149.335Z" fill="#454545"/>
<path id="Vector_246" d="M166.925 149.335H163.901V152.359H166.925V149.335Z" fill="#454545"/>
<path id="Vector_247" d="M171.864 149.335H168.84V152.359H171.864V149.335Z" fill="#454545"/>
<path id="Vector_248" d="M176.803 149.335H173.779V152.359H176.803V149.335Z" fill="#454545"/>
<path id="Vector_249" d="M181.793 149.335H178.769V152.359H181.793V149.335Z" fill="#454545"/>
<path id="Vector_250" d="M186.732 149.335H183.708V152.359H186.732V149.335Z" fill="#454545"/>
<path id="Vector_251" d="M191.671 149.335H188.647V152.359H191.671V149.335Z" fill="#454545"/>
<path id="Vector_252" d="M196.61 149.335H193.586V152.359H196.61V149.335Z" fill="#454545"/>
<path id="Vector_253" d="M201.6 149.335H198.576V152.359H201.6V149.335Z" fill="#454545"/>
<path id="Vector_254" d="M206.539 149.335H203.515V152.359H206.539V149.335Z" fill="#454545"/>
<path id="Vector_255" d="M211.478 149.335H208.454V152.359H211.478V149.335Z" fill="#454545"/>
<path id="Vector_256" d="M216.418 149.335H213.394V152.359H216.418V149.335Z" fill="#454545"/>
<path id="Vector_257" d="M221.407 149.335H218.383V152.359H221.407V149.335Z" fill="#454545"/>
<path id="Vector_258" d="M18.3455 154.274H15.3215V157.298H18.3455V154.274Z" fill="#454545"/>
<path id="Vector_259" d="M23.2847 154.274H20.2607V157.298H23.2847V154.274Z" fill="#454545"/>
<path id="Vector_260" d="M28.2745 154.274H25.2505V157.298H28.2745V154.274Z" fill="#454545"/>
<path id="Vector_261" d="M33.2137 154.274H30.1897V157.298H33.2137V154.274Z" fill="#454545"/>
<path id="Vector_262" d="M38.1529 154.274H35.1289V157.298H38.1529V154.274Z" fill="#454545"/>
<path id="Vector_263" d="M43.0921 154.274H40.0681V157.298H43.0921V154.274Z" fill="#454545"/>
<path id="Vector_264" d="M48.0816 154.274H45.0576V157.298H48.0816V154.274Z" fill="#454545"/>
<path id="Vector_265" d="M53.0208 154.274H49.9968V157.298H53.0208V154.274Z" fill="#454545"/>
<path id="Vector_266" d="M57.96 154.274H54.936V157.298H57.96V154.274Z" fill="#454545"/>
<path id="Vector_267" d="M62.8992 154.274H59.8752V157.298H62.8992V154.274Z" fill="#454545"/>
<path id="Vector_268" d="M67.8887 154.274H64.8647V157.298H67.8887V154.274Z" fill="#454545"/>
<path id="Vector_269" d="M72.828 154.274H69.804V157.298H72.828V154.274Z" fill="#454545"/>
<path id="Vector_270" d="M77.7672 154.274H74.7432V157.298H77.7672V154.274Z" fill="#454545"/>
<path id="Vector_271" d="M82.7064 154.274H79.6824V157.298H82.7064V154.274Z" fill="#454545"/>
<path id="Vector_272" d="M87.6961 154.274H84.6721V157.298H87.6961V154.274Z" fill="#454545"/>
<path id="Vector_273" d="M92.6351 154.274H89.6111V157.298H92.6351V154.274Z" fill="#454545"/>
<path id="Vector_274" d="M97.5743 154.274H94.5503V157.298H97.5743V154.274Z" fill="#454545"/>
<path id="Vector_275" d="M102.514 154.274H99.4895V157.298H102.514V154.274Z" fill="#454545"/>
<path id="Vector_276" d="M107.503 154.274H104.479V157.298H107.503V154.274Z" fill="#454545"/>
<path id="Vector_277" d="M112.442 154.274H109.418V157.298H112.442V154.274Z" fill="#454545"/>
<path id="Vector_278" d="M117.382 154.274H114.358V157.298H117.382V154.274Z" fill="#454545"/>
<path id="Vector_279" d="M122.321 154.274H119.297V157.298H122.321V154.274Z" fill="#454545"/>
<path id="Vector_280" d="M127.31 154.274H124.286V157.298H127.31V154.274Z" fill="#454545"/>
<path id="Vector_281" d="M132.25 154.274H129.226V157.298H132.25V154.274Z" fill="#454545"/>
<path id="Vector_282" d="M137.189 154.274H134.165V157.298H137.189V154.274Z" fill="#454545"/>
<path id="Vector_283" d="M142.128 154.274H139.104V157.298H142.128V154.274Z" fill="#454545"/>
<path id="Vector_284" d="M147.118 154.274H144.094V157.298H147.118V154.274Z" fill="#454545"/>
<path id="Vector_285" d="M152.057 154.274H149.033V157.298H152.057V154.274Z" fill="#454545"/>
<path id="Vector_286" d="M156.996 154.274H153.972V157.298H156.996V154.274Z" fill="#454545"/>
<path id="Vector_287" d="M161.986 154.274H158.962V157.298H161.986V154.274Z" fill="#454545"/>
<path id="Vector_288" d="M166.925 154.274H163.901V157.298H166.925V154.274Z" fill="#454545"/>
<path id="Vector_289" d="M171.864 154.274H168.84V157.298H171.864V154.274Z" fill="#454545"/>
<path id="Vector_290" d="M176.803 154.274H173.779V157.298H176.803V154.274Z" fill="#454545"/>
<path id="Vector_291" d="M181.793 154.274H178.769V157.298H181.793V154.274Z" fill="#454545"/>
<path id="Vector_292" d="M186.732 154.274H183.708V157.298H186.732V154.274Z" fill="#454545"/>
<path id="Vector_293" d="M191.671 154.274H188.647V157.298H191.671V154.274Z" fill="#454545"/>
<path id="Vector_294" d="M196.61 154.274H193.586V157.298H196.61V154.274Z" fill="#454545"/>
<path id="Vector_295" d="M201.6 154.274H198.576V157.298H201.6V154.274Z" fill="#454545"/>
<path id="Vector_296" d="M23.2847 159.214H20.2607V162.238H23.2847V159.214Z" fill="#454545"/>
<path id="Vector_297" d="M28.2745 159.214H25.2505V162.238H28.2745V159.214Z" fill="#454545"/>
<path id="Vector_298" d="M33.2137 159.214H30.1897V162.238H33.2137V159.214Z" fill="#454545"/>
<path id="Vector_299" d="M38.1529 159.214H35.1289V162.238H38.1529V159.214Z" fill="#454545"/>
<path id="Vector_300" d="M43.0921 159.214H40.0681V162.238H43.0921V159.214Z" fill="#454545"/>
<path id="Vector_301" d="M48.0816 159.214H45.0576V162.238H48.0816V159.214Z" fill="#454545"/>
<path id="Vector_302" d="M53.0208 159.214H49.9968V162.238H53.0208V159.214Z" fill="#454545"/>
<path id="Vector_303" d="M57.96 159.214H54.936V162.238H57.96V159.214Z" fill="#454545"/>
<path id="Vector_304" d="M62.8992 159.214H59.8752V162.238H62.8992V159.214Z" fill="#454545"/>
<path id="Vector_305" d="M67.8887 159.214H64.8647V162.238H67.8887V159.214Z" fill="#454545"/>
<path id="Vector_306" d="M72.828 159.214H69.804V162.238H72.828V159.214Z" fill="#454545"/>
<path id="Vector_307" d="M77.7672 159.214H74.7432V162.238H77.7672V159.214Z" fill="#454545"/>
<path id="Vector_308" d="M82.7064 159.214H79.6824V162.238H82.7064V159.214Z" fill="#454545"/>
<path id="Vector_309" d="M87.6961 159.214H84.6721V162.238H87.6961V159.214Z" fill="#454545"/>
<path id="Vector_310" d="M92.6351 159.214H89.6111V162.238H92.6351V159.214Z" fill="#454545"/>
<path id="Vector_311" d="M97.5743 159.214H94.5503V162.238H97.5743V159.214Z" fill="#454545"/>
<path id="Vector_312" d="M102.514 159.214H99.4895V162.238H102.514V159.214Z" fill="#454545"/>
<path id="Vector_313" d="M107.503 159.214H104.479V162.238H107.503V159.214Z" fill="#454545"/>
<path id="Vector_314" d="M112.442 159.214H109.418V162.238H112.442V159.214Z" fill="#454545"/>
<path id="Vector_315" d="M117.382 159.214H114.358V162.238H117.382V159.214Z" fill="#454545"/>
<path id="Vector_316" d="M122.321 159.214H119.297V162.238H122.321V159.214Z" fill="#454545"/>
<path id="Vector_317" d="M127.31 159.214H124.286V162.238H127.31V159.214Z" fill="#454545"/>
<path id="Vector_318" d="M132.25 159.214H129.226V162.238H132.25V159.214Z" fill="#454545"/>
<path id="Vector_319" d="M137.189 159.214H134.165V162.238H137.189V159.214Z" fill="#454545"/>
<path id="Vector_320" d="M142.128 159.214H139.104V162.238H142.128V159.214Z" fill="#454545"/>
<path id="Vector_321" d="M147.118 159.214H144.094V162.238H147.118V159.214Z" fill="#454545"/>
<path id="Vector_322" d="M152.057 159.214H149.033V162.238H152.057V159.214Z" fill="#454545"/>
<path id="Vector_323" d="M156.996 159.214H153.972V162.238H156.996V159.214Z" fill="#454545"/>
<path id="Vector_324" d="M161.986 159.214H158.962V162.238H161.986V159.214Z" fill="#454545"/>
<path id="Vector_325" d="M166.925 159.214H163.901V162.238H166.925V159.214Z" fill="#454545"/>
<path id="Vector_326" d="M171.864 159.214H168.84V162.238H171.864V159.214Z" fill="#454545"/>
<path id="Vector_327" d="M176.803 159.214H173.779V162.238H176.803V159.214Z" fill="#454545"/>
<path id="Vector_328" d="M181.793 159.214H178.769V162.238H181.793V159.214Z" fill="#454545"/>
<path id="Vector_329" d="M186.732 159.214H183.708V162.238H186.732V159.214Z" fill="#454545"/>
<path id="Vector_330" d="M191.671 159.214H188.647V162.238H191.671V159.214Z" fill="#454545"/>
<path id="Vector_331" d="M196.61 159.214H193.586V162.238H196.61V159.214Z" fill="#454545"/>
<path id="Vector_332" d="M201.6 159.214H198.576V162.238H201.6V159.214Z" fill="#454545"/>
<path id="Vector_333" d="M23.2847 164.203H20.2607V167.227H23.2847V164.203Z" fill="#454545"/>
<path id="Vector_334" d="M28.2745 164.203H25.2505V167.227H28.2745V164.203Z" fill="#454545"/>
<path id="Vector_335" d="M33.2137 164.203H30.1897V167.227H33.2137V164.203Z" fill="#454545"/>
<path id="Vector_336" d="M38.1529 164.203H35.1289V167.227H38.1529V164.203Z" fill="#454545"/>
<path id="Vector_337" d="M43.0921 164.203H40.0681V167.227H43.0921V164.203Z" fill="#454545"/>
<path id="Vector_338" d="M48.0816 164.203H45.0576V167.227H48.0816V164.203Z" fill="#454545"/>
<path id="Vector_339" d="M53.0208 164.203H49.9968V167.227H53.0208V164.203Z" fill="#454545"/>
<path id="Vector_340" d="M57.96 164.203H54.936V167.227H57.96V164.203Z" fill="#454545"/>
<path id="Vector_341" d="M62.8992 164.203H59.8752V167.227H62.8992V164.203Z" fill="#454545"/>
<path id="Vector_342" d="M67.8887 164.203H64.8647V167.227H67.8887V164.203Z" fill="#454545"/>
<path id="Vector_343" d="M72.828 164.203H69.804V167.227H72.828V164.203Z" fill="#454545"/>
<path id="Vector_344" d="M77.7672 164.203H74.7432V167.227H77.7672V164.203Z" fill="#454545"/>
<path id="Vector_345" d="M82.7064 164.203H79.6824V167.227H82.7064V164.203Z" fill="#454545"/>
<path id="Vector_346" d="M87.6961 164.203H84.6721V167.227H87.6961V164.203Z" fill="#454545"/>
<path id="Vector_347" d="M92.6351 164.203H89.6111V167.227H92.6351V164.203Z" fill="#454545"/>
<path id="Vector_348" d="M97.5743 164.203H94.5503V167.227H97.5743V164.203Z" fill="#454545"/>
<path id="Vector_349" d="M102.514 164.203H99.4895V167.227H102.514V164.203Z" fill="#454545"/>
<path id="Vector_350" d="M107.503 164.203H104.479V167.227H107.503V164.203Z" fill="#454545"/>
<path id="Vector_351" d="M112.442 164.203H109.418V167.227H112.442V164.203Z" fill="#454545"/>
<path id="Vector_352" d="M117.382 164.203H114.358V167.227H117.382V164.203Z" fill="#454545"/>
<path id="Vector_353" d="M122.321 164.203H119.297V167.227H122.321V164.203Z" fill="#454545"/>
<path id="Vector_354" d="M127.31 164.203H124.286V167.227H127.31V164.203Z" fill="#454545"/>
<path id="Vector_355" d="M132.25 164.203H129.226V167.227H132.25V164.203Z" fill="#454545"/>
<path id="Vector_356" d="M137.189 164.203H134.165V167.227H137.189V164.203Z" fill="#454545"/>
<path id="Vector_357" d="M142.128 164.203H139.104V167.227H142.128V164.203Z" fill="#454545"/>
<path id="Vector_358" d="M147.118 164.203H144.094V167.227H147.118V164.203Z" fill="#454545"/>
<path id="Vector_359" d="M152.057 164.203H149.033V167.227H152.057V164.203Z" fill="#454545"/>
<path id="Vector_360" d="M156.996 164.203H153.972V167.227H156.996V164.203Z" fill="#454545"/>
<path id="Vector_361" d="M161.986 164.203H158.962V167.227H161.986V164.203Z" fill="#454545"/>
<path id="Vector_362" d="M166.925 164.203H163.901V167.227H166.925V164.203Z" fill="#454545"/>
<path id="Vector_363" d="M171.864 164.203H168.84V167.227H171.864V164.203Z" fill="#454545"/>
<path id="Vector_364" d="M176.803 164.203H173.779V167.227H176.803V164.203Z" fill="#454545"/>
<path id="Vector_365" d="M181.793 164.203H178.769V167.227H181.793V164.203Z" fill="#454545"/>
<path id="Vector_366" d="M186.732 164.203H183.708V167.227H186.732V164.203Z" fill="#454545"/>
<path id="Vector_367" d="M191.671 164.203H188.647V167.227H191.671V164.203Z" fill="#454545"/>
<path id="Vector_368" d="M196.61 164.203H193.586V167.227H196.61V164.203Z" fill="#454545"/>
<path id="Vector_369" d="M201.6 164.203H198.576V167.227H201.6V164.203Z" fill="#454545"/>
<path id="Vector_370" d="M28.2745 169.142H25.2505V172.166H28.2745V169.142Z" fill="#454545"/>
<path id="Vector_371" d="M33.2137 169.142H30.1897V172.166H33.2137V169.142Z" fill="#454545"/>
<path id="Vector_372" d="M38.1529 169.142H35.1289V172.166H38.1529V169.142Z" fill="#454545"/>
<path id="Vector_373" d="M43.0921 169.142H40.0681V172.166H43.0921V169.142Z" fill="#454545"/>
<path id="Vector_374" d="M48.0816 169.142H45.0576V172.166H48.0816V169.142Z" fill="#454545"/>
<path id="Vector_375" d="M53.0208 169.142H49.9968V172.166H53.0208V169.142Z" fill="#454545"/>
<path id="Vector_376" d="M57.96 169.142H54.936V172.166H57.96V169.142Z" fill="#454545"/>
<path id="Vector_377" d="M62.8992 169.142H59.8752V172.166H62.8992V169.142Z" fill="#454545"/>
<path id="Vector_378" d="M67.8887 169.142H64.8647V172.166H67.8887V169.142Z" fill="#454545"/>
<path id="Vector_379" d="M72.828 169.142H69.804V172.166H72.828V169.142Z" fill="#454545"/>
<path id="Vector_380" d="M77.7672 169.142H74.7432V172.166H77.7672V169.142Z" fill="#454545"/>
<path id="Vector_381" d="M82.7064 169.142H79.6824V172.166H82.7064V169.142Z" fill="#454545"/>
<path id="Vector_382" d="M87.6961 169.142H84.6721V172.166H87.6961V169.142Z" fill="#454545"/>
<path id="Vector_383" d="M92.6351 169.142H89.6111V172.166H92.6351V169.142Z" fill="#454545"/>
<path id="Vector_384" d="M97.5743 169.142H94.5503V172.166H97.5743V169.142Z" fill="#454545"/>
<path id="Vector_385" d="M102.514 169.142H99.4895V172.166H102.514V169.142Z" fill="#454545"/>
<path id="Vector_386" d="M107.503 169.142H104.479V172.166H107.503V169.142Z" fill="#454545"/>
<path id="Vector_387" d="M112.442 169.142H109.418V172.166H112.442V169.142Z" fill="#454545"/>
<path id="Vector_388" d="M117.382 169.142H114.358V172.166H117.382V169.142Z" fill="#454545"/>
<path id="Vector_389" d="M122.321 169.142H119.297V172.166H122.321V169.142Z" fill="#454545"/>
<path id="Vector_390" d="M127.31 169.142H124.286V172.166H127.31V169.142Z" fill="#454545"/>
<path id="Vector_391" d="M132.25 169.142H129.226V172.166H132.25V169.142Z" fill="#454545"/>
<path id="Vector_392" d="M137.189 169.142H134.165V172.166H137.189V169.142Z" fill="#454545"/>
<path id="Vector_393" d="M142.128 169.142H139.104V172.166H142.128V169.142Z" fill="#454545"/>
<path id="Vector_394" d="M147.118 169.142H144.094V172.166H147.118V169.142Z" fill="#454545"/>
<path id="Vector_395" d="M152.057 169.142H149.033V172.166H152.057V169.142Z" fill="#454545"/>
<path id="Vector_396" d="M156.996 169.142H153.972V172.166H156.996V169.142Z" fill="#454545"/>
<path id="Vector_397" d="M161.986 169.142H158.962V172.166H161.986V169.142Z" fill="#454545"/>
<path id="Vector_398" d="M166.925 169.142H163.901V172.166H166.925V169.142Z" fill="#454545"/>
<path id="Vector_399" d="M171.864 169.142H168.84V172.166H171.864V169.142Z" fill="#454545"/>
<path id="Vector_400" d="M176.803 169.142H173.779V172.166H176.803V169.142Z" fill="#454545"/>
<path id="Vector_401" d="M181.793 169.142H178.769V172.166H181.793V169.142Z" fill="#454545"/>
<path id="Vector_402" d="M186.732 169.142H183.708V172.166H186.732V169.142Z" fill="#454545"/>
<path id="Vector_403" d="M191.671 169.142H188.647V172.166H191.671V169.142Z" fill="#454545"/>
<path id="Vector_404" d="M196.61 169.142H193.586V172.166H196.61V169.142Z" fill="#454545"/>
<path id="Vector_405" d="M33.2137 174.082H30.1897V177.106H33.2137V174.082Z" fill="#454545"/>
<path id="Vector_406" d="M38.1529 174.082H35.1289V177.106H38.1529V174.082Z" fill="#454545"/>
<path id="Vector_407" d="M43.0921 174.082H40.0681V177.106H43.0921V174.082Z" fill="#454545"/>
<path id="Vector_408" d="M48.0816 174.082H45.0576V177.106H48.0816V174.082Z" fill="#454545"/>
<path id="Vector_409" d="M53.0208 174.082H49.9968V177.106H53.0208V174.082Z" fill="#454545"/>
<path id="Vector_410" d="M57.96 174.082H54.936V177.106H57.96V174.082Z" fill="#454545"/>
<path id="Vector_411" d="M62.8992 174.082H59.8752V177.106H62.8992V174.082Z" fill="#454545"/>
<path id="Vector_412" d="M67.8887 174.082H64.8647V177.106H67.8887V174.082Z" fill="#454545"/>
<path id="Vector_413" d="M72.828 174.082H69.804V177.106H72.828V174.082Z" fill="#454545"/>
<path id="Vector_414" d="M77.7672 174.082H74.7432V177.106H77.7672V174.082Z" fill="#454545"/>
<path id="Vector_415" d="M82.7064 174.082H79.6824V177.106H82.7064V174.082Z" fill="#454545"/>
<path id="Vector_416" d="M87.6961 174.082H84.6721V177.106H87.6961V174.082Z" fill="#454545"/>
<path id="Vector_417" d="M92.6351 174.082H89.6111V177.106H92.6351V174.082Z" fill="#454545"/>
<path id="Vector_418" d="M97.5743 174.082H94.5503V177.106H97.5743V174.082Z" fill="#454545"/>
<path id="Vector_419" d="M102.514 174.082H99.4895V177.106H102.514V174.082Z" fill="#454545"/>
<path id="Vector_420" d="M107.503 174.082H104.479V177.106H107.503V174.082Z" fill="#454545"/>
<path id="Vector_421" d="M112.442 174.082H109.418V177.106H112.442V174.082Z" fill="#454545"/>
<path id="Vector_422" d="M117.382 174.082H114.358V177.106H117.382V174.082Z" fill="#454545"/>
<path id="Vector_423" d="M122.321 174.082H119.297V177.106H122.321V174.082Z" fill="#454545"/>
<path id="Vector_424" d="M127.31 174.082H124.286V177.106H127.31V174.082Z" fill="#454545"/>
<path id="Vector_425" d="M132.25 174.082H129.226V177.106H132.25V174.082Z" fill="#454545"/>
<path id="Vector_426" d="M137.189 174.082H134.165V177.106H137.189V174.082Z" fill="#454545"/>
<path id="Vector_427" d="M142.128 174.082H139.104V177.106H142.128V174.082Z" fill="#454545"/>
<path id="Vector_428" d="M147.118 174.082H144.094V177.106H147.118V174.082Z" fill="#454545"/>
<path id="Vector_429" d="M152.057 174.082H149.033V177.106H152.057V174.082Z" fill="#454545"/>
<path id="Vector_430" d="M156.996 174.082H153.972V177.106H156.996V174.082Z" fill="#454545"/>
<path id="Vector_431" d="M161.986 174.082H158.962V177.106H161.986V174.082Z" fill="#454545"/>
<path id="Vector_432" d="M166.925 174.082H163.901V177.106H166.925V174.082Z" fill="#454545"/>
<path id="Vector_433" d="M171.864 174.082H168.84V177.106H171.864V174.082Z" fill="#454545"/>
<path id="Vector_434" d="M176.803 174.082H173.779V177.106H176.803V174.082Z" fill="#454545"/>
<path id="Vector_435" d="M181.793 174.082H178.769V177.106H181.793V174.082Z" fill="#454545"/>
<path id="Vector_436" d="M186.732 174.082H183.708V177.106H186.732V174.082Z" fill="#454545"/>
<path id="Vector_437" d="M191.671 174.082H188.647V177.106H191.671V174.082Z" fill="#454545"/>
<path id="Vector_438" d="M196.61 174.082H193.586V177.106H196.61V174.082Z" fill="#454545"/>
<path id="Vector_439" d="M38.1529 179.021H35.1289V182.045H38.1529V179.021Z" fill="#454545"/>
<path id="Vector_440" d="M43.0921 179.021H40.0681V182.045H43.0921V179.021Z" fill="#454545"/>
<path id="Vector_441" d="M48.0816 179.021H45.0576V182.045H48.0816V179.021Z" fill="#454545"/>
<path id="Vector_442" d="M53.0208 179.021H49.9968V182.045H53.0208V179.021Z" fill="#454545"/>
<path id="Vector_443" d="M57.96 179.021H54.936V182.045H57.96V179.021Z" fill="#454545"/>
<path id="Vector_444" d="M62.8992 179.021H59.8752V182.045H62.8992V179.021Z" fill="#454545"/>
<path id="Vector_445" d="M67.8887 179.021H64.8647V182.045H67.8887V179.021Z" fill="#454545"/>
<path id="Vector_446" d="M72.828 179.021H69.804V182.045H72.828V179.021Z" fill="#454545"/>
<path id="Vector_447" d="M77.7672 179.021H74.7432V182.045H77.7672V179.021Z" fill="#454545"/>
<path id="Vector_448" d="M82.7064 179.021H79.6824V182.045H82.7064V179.021Z" fill="#454545"/>
<path id="Vector_449" d="M87.6961 179.021H84.6721V182.045H87.6961V179.021Z" fill="#454545"/>
<path id="Vector_450" d="M92.6351 179.021H89.6111V182.045H92.6351V179.021Z" fill="#454545"/>
<path id="Vector_451" d="M97.5743 179.021H94.5503V182.045H97.5743V179.021Z" fill="#454545"/>
<path id="Vector_452" d="M102.514 179.021H99.4895V182.045H102.514V179.021Z" fill="#454545"/>
<path id="Vector_453" d="M107.503 179.021H104.479V182.045H107.503V179.021Z" fill="#454545"/>
<path id="Vector_454" d="M112.442 179.021H109.418V182.045H112.442V179.021Z" fill="#454545"/>
<path id="Vector_455" d="M117.382 179.021H114.358V182.045H117.382V179.021Z" fill="#454545"/>
<path id="Vector_456" d="M122.321 179.021H119.297V182.045H122.321V179.021Z" fill="#454545"/>
<path id="Vector_457" d="M127.31 179.021H124.286V182.045H127.31V179.021Z" fill="#454545"/>
<path id="Vector_458" d="M132.25 179.021H129.226V182.045H132.25V179.021Z" fill="#454545"/>
<path id="Vector_459" d="M137.189 179.021H134.165V182.045H137.189V179.021Z" fill="#454545"/>
<path id="Vector_460" d="M142.128 179.021H139.104V182.045H142.128V179.021Z" fill="#454545"/>
<path id="Vector_461" d="M147.118 179.021H144.094V182.045H147.118V179.021Z" fill="#454545"/>
<path id="Vector_462" d="M152.057 179.021H149.033V182.045H152.057V179.021Z" fill="#454545"/>
<path id="Vector_463" d="M156.996 179.021H153.972V182.045H156.996V179.021Z" fill="#454545"/>
<path id="Vector_464" d="M161.986 179.021H158.962V182.045H161.986V179.021Z" fill="#454545"/>
<path id="Vector_465" d="M166.925 179.021H163.901V182.045H166.925V179.021Z" fill="#454545"/>
<path id="Vector_466" d="M171.864 179.021H168.84V182.045H171.864V179.021Z" fill="#454545"/>
<path id="Vector_467" d="M176.803 179.021H173.779V182.045H176.803V179.021Z" fill="#454545"/>
<path id="Vector_468" d="M181.793 179.021H178.769V182.045H181.793V179.021Z" fill="#454545"/>
<path id="Vector_469" d="M186.732 179.021H183.708V182.045H186.732V179.021Z" fill="#454545"/>
<path id="Vector_470" d="M191.671 179.021H188.647V182.045H191.671V179.021Z" fill="#454545"/>
<path id="Vector_471" d="M196.61 179.021H193.586V182.045H196.61V179.021Z" fill="#454545"/>
<path id="Vector_472" d="M38.1529 184.01H35.1289V187.034H38.1529V184.01Z" fill="#454545"/>
<path id="Vector_473" d="M43.0921 184.01H40.0681V187.034H43.0921V184.01Z" fill="#454545"/>
<path id="Vector_474" d="M48.0816 184.01H45.0576V187.034H48.0816V184.01Z" fill="#454545"/>
<path id="Vector_475" d="M53.0208 184.01H49.9968V187.034H53.0208V184.01Z" fill="#454545"/>
<path id="Vector_476" d="M57.96 184.01H54.936V187.034H57.96V184.01Z" fill="#454545"/>
<path id="Vector_477" d="M62.8992 184.01H59.8752V187.034H62.8992V184.01Z" fill="#454545"/>
<path id="Vector_478" d="M67.8887 184.01H64.8647V187.034H67.8887V184.01Z" fill="#454545"/>
<path id="Vector_479" d="M72.828 184.01H69.804V187.034H72.828V184.01Z" fill="#454545"/>
<path id="Vector_480" d="M77.7672 184.01H74.7432V187.034H77.7672V184.01Z" fill="#454545"/>
<path id="Vector_481" d="M82.7064 184.01H79.6824V187.034H82.7064V184.01Z" fill="#454545"/>
<path id="Vector_482" d="M87.6961 184.01H84.6721V187.034H87.6961V184.01Z" fill="#454545"/>
<path id="Vector_483" d="M92.6351 184.01H89.6111V187.034H92.6351V184.01Z" fill="#454545"/>
<path id="Vector_484" d="M97.5743 184.01H94.5503V187.034H97.5743V184.01Z" fill="#454545"/>
<path id="Vector_485" d="M102.514 184.01H99.4895V187.034H102.514V184.01Z" fill="#454545"/>
<path id="Vector_486" d="M107.503 184.01H104.479V187.034H107.503V184.01Z" fill="#454545"/>
<path id="Vector_487" d="M112.442 184.01H109.418V187.034H112.442V184.01Z" fill="#454545"/>
<path id="Vector_488" d="M117.382 184.01H114.358V187.034H117.382V184.01Z" fill="#454545"/>
<path id="Vector_489" d="M122.321 184.01H119.297V187.034H122.321V184.01Z" fill="#454545"/>
<path id="Vector_490" d="M127.31 184.01H124.286V187.034H127.31V184.01Z" fill="#454545"/>
<path id="Vector_491" d="M132.25 184.01H129.226V187.034H132.25V184.01Z" fill="#454545"/>
<path id="Vector_492" d="M137.189 184.01H134.165V187.034H137.189V184.01Z" fill="#454545"/>
<path id="Vector_493" d="M142.128 184.01H139.104V187.034H142.128V184.01Z" fill="#454545"/>
<path id="Vector_494" d="M147.118 184.01H144.094V187.034H147.118V184.01Z" fill="#454545"/>
<path id="Vector_495" d="M152.057 184.01H149.033V187.034H152.057V184.01Z" fill="#454545"/>
<path id="Vector_496" d="M156.996 184.01H153.972V187.034H156.996V184.01Z" fill="#454545"/>
<path id="Vector_497" d="M161.986 184.01H158.962V187.034H161.986V184.01Z" fill="#454545"/>
<path id="Vector_498" d="M166.925 184.01H163.901V187.034H166.925V184.01Z" fill="#454545"/>
<path id="Vector_499" d="M171.864 184.01H168.84V187.034H171.864V184.01Z" fill="#454545"/>
<path id="Vector_500" d="M176.803 184.01H173.779V187.034H176.803V184.01Z" fill="#454545"/>
<path id="Vector_501" d="M181.793 184.01H178.769V187.034H181.793V184.01Z" fill="#454545"/>
<path id="Vector_502" d="M186.732 184.01H183.708V187.034H186.732V184.01Z" fill="#454545"/>
<path id="Vector_503" d="M191.671 184.01H188.647V187.034H191.671V184.01Z" fill="#454545"/>
<path id="Vector_504" d="M43.0921 188.95H40.0681V191.974H43.0921V188.95Z" fill="#454545"/>
<path id="Vector_505" d="M48.0816 188.95H45.0576V191.974H48.0816V188.95Z" fill="#454545"/>
<path id="Vector_506" d="M53.0208 188.95H49.9968V191.974H53.0208V188.95Z" fill="#454545"/>
<path id="Vector_507" d="M57.96 188.95H54.936V191.974H57.96V188.95Z" fill="#454545"/>
<path id="Vector_508" d="M62.8992 188.95H59.8752V191.974H62.8992V188.95Z" fill="#454545"/>
<path id="Vector_509" d="M67.8887 188.95H64.8647V191.974H67.8887V188.95Z" fill="#454545"/>
<path id="Vector_510" d="M72.828 188.95H69.804V191.974H72.828V188.95Z" fill="#454545"/>
<path id="Vector_511" d="M77.7672 188.95H74.7432V191.974H77.7672V188.95Z" fill="#454545"/>
<path id="Vector_512" d="M82.7064 188.95H79.6824V191.974H82.7064V188.95Z" fill="#454545"/>
<path id="Vector_513" d="M87.6961 188.95H84.6721V191.974H87.6961V188.95Z" fill="#454545"/>
<path id="Vector_514" d="M92.6351 188.95H89.6111V191.974H92.6351V188.95Z" fill="#454545"/>
<path id="Vector_515" d="M97.5743 188.95H94.5503V191.974H97.5743V188.95Z" fill="#454545"/>
<path id="Vector_516" d="M102.514 188.95H99.4895V191.974H102.514V188.95Z" fill="#454545"/>
<path id="Vector_517" d="M107.503 188.95H104.479V191.974H107.503V188.95Z" fill="#454545"/>
<path id="Vector_518" d="M112.442 188.95H109.418V191.974H112.442V188.95Z" fill="#454545"/>
<path id="Vector_519" d="M117.382 188.95H114.358V191.974H117.382V188.95Z" fill="#454545"/>
<path id="Vector_520" d="M122.321 188.95H119.297V191.974H122.321V188.95Z" fill="#454545"/>
<path id="Vector_521" d="M127.31 188.95H124.286V191.974H127.31V188.95Z" fill="#454545"/>
<path id="Vector_522" d="M132.25 188.95H129.226V191.974H132.25V188.95Z" fill="#454545"/>
<path id="Vector_523" d="M137.189 188.95H134.165V191.974H137.189V188.95Z" fill="#454545"/>
<path id="Vector_524" d="M142.128 188.95H139.104V191.974H142.128V188.95Z" fill="#454545"/>
<path id="Vector_525" d="M147.118 188.95H144.094V191.974H147.118V188.95Z" fill="#454545"/>
<path id="Vector_526" d="M152.057 188.95H149.033V191.974H152.057V188.95Z" fill="#454545"/>
<path id="Vector_527" d="M156.996 188.95H153.972V191.974H156.996V188.95Z" fill="#454545"/>
<path id="Vector_528" d="M161.986 188.95H158.962V191.974H161.986V188.95Z" fill="#454545"/>
<path id="Vector_529" d="M166.925 188.95H163.901V191.974H166.925V188.95Z" fill="#454545"/>
<path id="Vector_530" d="M171.864 188.95H168.84V191.974H171.864V188.95Z" fill="#454545"/>
<path id="Vector_531" d="M176.803 188.95H173.779V191.974H176.803V188.95Z" fill="#454545"/>
<path id="Vector_532" d="M181.793 188.95H178.769V191.974H181.793V188.95Z" fill="#454545"/>
<path id="Vector_533" d="M186.732 188.95H183.708V191.974H186.732V188.95Z" fill="#454545"/>
<path id="Vector_534" d="M191.671 188.95H188.647V191.974H191.671V188.95Z" fill="#454545"/>
<path id="Vector_535" d="M48.0816 193.889H45.0576V196.913H48.0816V193.889Z" fill="#454545"/>
<path id="Vector_536" d="M53.0208 193.889H49.9968V196.913H53.0208V193.889Z" fill="#454545"/>
<path id="Vector_537" d="M57.96 193.889H54.936V196.913H57.96V193.889Z" fill="#454545"/>
<path id="Vector_538" d="M62.8992 193.889H59.8752V196.913H62.8992V193.889Z" fill="#454545"/>
<path id="Vector_539" d="M67.8887 193.889H64.8647V196.913H67.8887V193.889Z" fill="#454545"/>
<path id="Vector_540" d="M72.828 193.889H69.804V196.913H72.828V193.889Z" fill="#454545"/>
<path id="Vector_541" d="M77.7672 193.889H74.7432V196.913H77.7672V193.889Z" fill="#454545"/>
<path id="Vector_542" d="M82.7064 193.889H79.6824V196.913H82.7064V193.889Z" fill="#454545"/>
<path id="Vector_543" d="M87.6961 193.889H84.6721V196.913H87.6961V193.889Z" fill="#454545"/>
<path id="Vector_544" d="M92.6351 193.889H89.6111V196.913H92.6351V193.889Z" fill="#454545"/>
<path id="Vector_545" d="M97.5743 193.889H94.5503V196.913H97.5743V193.889Z" fill="#454545"/>
<path id="Vector_546" d="M102.514 193.889H99.4895V196.913H102.514V193.889Z" fill="#454545"/>
<path id="Vector_547" d="M107.503 193.889H104.479V196.913H107.503V193.889Z" fill="#454545"/>
<path id="Vector_548" d="M112.442 193.889H109.418V196.913H112.442V193.889Z" fill="#454545"/>
<path id="Vector_549" d="M117.382 193.889H114.358V196.913H117.382V193.889Z" fill="#454545"/>
<path id="Vector_550" d="M122.321 193.889H119.297V196.913H122.321V193.889Z" fill="#454545"/>
<path id="Vector_551" d="M127.31 193.889H124.286V196.913H127.31V193.889Z" fill="#454545"/>
<path id="Vector_552" d="M132.25 193.889H129.226V196.913H132.25V193.889Z" fill="#454545"/>
<path id="Vector_553" d="M137.189 193.889H134.165V196.913H137.189V193.889Z" fill="#454545"/>
<path id="Vector_554" d="M142.128 193.889H139.104V196.913H142.128V193.889Z" fill="#454545"/>
<path id="Vector_555" d="M147.118 193.889H144.094V196.913H147.118V193.889Z" fill="#454545"/>
<path id="Vector_556" d="M152.057 193.889H149.033V196.913H152.057V193.889Z" fill="#454545"/>
<path id="Vector_557" d="M156.996 193.889H153.972V196.913H156.996V193.889Z" fill="#454545"/>
<path id="Vector_558" d="M161.986 193.889H158.962V196.913H161.986V193.889Z" fill="#454545"/>
<path id="Vector_559" d="M166.925 193.889H163.901V196.913H166.925V193.889Z" fill="#454545"/>
<path id="Vector_560" d="M171.864 193.889H168.84V196.913H171.864V193.889Z" fill="#454545"/>
<path id="Vector_561" d="M176.803 193.889H173.779V196.913H176.803V193.889Z" fill="#454545"/>
<path id="Vector_562" d="M181.793 193.889H178.769V196.913H181.793V193.889Z" fill="#454545"/>
<path id="Vector_563" d="M186.732 193.889H183.708V196.913H186.732V193.889Z" fill="#454545"/>
<path id="Vector_564" d="M191.671 193.889H188.647V196.913H191.671V193.889Z" fill="#454545"/>
<path id="Vector_565" d="M53.0208 198.828H49.9968V201.852H53.0208V198.828Z" fill="#454545"/>
<path id="Vector_566" d="M57.96 198.828H54.936V201.852H57.96V198.828Z" fill="#454545"/>
<path id="Vector_567" d="M62.8992 198.828H59.8752V201.852H62.8992V198.828Z" fill="#454545"/>
<path id="Vector_568" d="M67.8887 198.828H64.8647V201.852H67.8887V198.828Z" fill="#454545"/>
<path id="Vector_569" d="M72.828 198.828H69.804V201.852H72.828V198.828Z" fill="#454545"/>
<path id="Vector_570" d="M77.7672 198.828H74.7432V201.852H77.7672V198.828Z" fill="#454545"/>
<path id="Vector_571" d="M82.7064 198.828H79.6824V201.852H82.7064V198.828Z" fill="#454545"/>
<path id="Vector_572" d="M87.6961 198.828H84.6721V201.852H87.6961V198.828Z" fill="#454545"/>
<path id="Vector_573" d="M92.6351 198.828H89.6111V201.852H92.6351V198.828Z" fill="#454545"/>
<path id="Vector_574" d="M97.5743 198.828H94.5503V201.852H97.5743V198.828Z" fill="#454545"/>
<path id="Vector_575" d="M102.514 198.828H99.4895V201.852H102.514V198.828Z" fill="#454545"/>
<path id="Vector_576" d="M107.503 198.828H104.479V201.852H107.503V198.828Z" fill="#454545"/>
<path id="Vector_577" d="M112.442 198.828H109.418V201.852H112.442V198.828Z" fill="#454545"/>
<path id="Vector_578" d="M117.382 198.828H114.358V201.852H117.382V198.828Z" fill="#454545"/>
<path id="Vector_579" d="M122.321 198.828H119.297V201.852H122.321V198.828Z" fill="#454545"/>
<path id="Vector_580" d="M127.31 198.828H124.286V201.852H127.31V198.828Z" fill="#454545"/>
<path id="Vector_581" d="M132.25 198.828H129.226V201.852H132.25V198.828Z" fill="#454545"/>
<path id="Vector_582" d="M137.189 198.828H134.165V201.852H137.189V198.828Z" fill="#454545"/>
<path id="Vector_583" d="M142.128 198.828H139.104V201.852H142.128V198.828Z" fill="#454545"/>
<path id="Vector_584" d="M147.118 198.828H144.094V201.852H147.118V198.828Z" fill="#454545"/>
<path id="Vector_585" d="M152.057 198.828H149.033V201.852H152.057V198.828Z" fill="#454545"/>
<path id="Vector_586" d="M156.996 198.828H153.972V201.852H156.996V198.828Z" fill="#454545"/>
<path id="Vector_587" d="M161.986 198.828H158.962V201.852H161.986V198.828Z" fill="#454545"/>
<path id="Vector_588" d="M166.925 198.828H163.901V201.852H166.925V198.828Z" fill="#454545"/>
<path id="Vector_589" d="M171.864 198.828H168.84V201.852H171.864V198.828Z" fill="#454545"/>
<path id="Vector_590" d="M176.803 198.828H173.779V201.852H176.803V198.828Z" fill="#454545"/>
<path id="Vector_591" d="M181.793 198.828H178.769V201.852H181.793V198.828Z" fill="#454545"/>
<path id="Vector_592" d="M186.732 198.828H183.708V201.852H186.732V198.828Z" fill="#454545"/>
<path id="Vector_593" d="M57.96 203.818H54.936V206.842H57.96V203.818Z" fill="#454545"/>
<path id="Vector_594" d="M62.8992 203.818H59.8752V206.842H62.8992V203.818Z" fill="#454545"/>
<path id="Vector_595" d="M67.8887 203.818H64.8647V206.842H67.8887V203.818Z" fill="#454545"/>
<path id="Vector_596" d="M72.828 203.818H69.804V206.842H72.828V203.818Z" fill="#454545"/>
<path id="Vector_597" d="M77.7672 203.818H74.7432V206.842H77.7672V203.818Z" fill="#454545"/>
<path id="Vector_598" d="M82.7064 203.818H79.6824V206.842H82.7064V203.818Z" fill="#454545"/>
<path id="Vector_599" d="M87.6961 203.818H84.6721V206.842H87.6961V203.818Z" fill="#454545"/>
<path id="Vector_600" d="M92.6351 203.818H89.6111V206.842H92.6351V203.818Z" fill="#454545"/>
<path id="Vector_601" d="M97.5743 203.818H94.5503V206.842H97.5743V203.818Z" fill="#454545"/>
<path id="Vector_602" d="M102.514 203.818H99.4895V206.842H102.514V203.818Z" fill="#454545"/>
<path id="Vector_603" d="M107.503 203.818H104.479V206.842H107.503V203.818Z" fill="#454545"/>
<path id="Vector_604" d="M112.442 203.818H109.418V206.842H112.442V203.818Z" fill="#454545"/>
<path id="Vector_605" d="M117.382 203.818H114.358V206.842H117.382V203.818Z" fill="#454545"/>
<path id="Vector_606" d="M122.321 203.818H119.297V206.842H122.321V203.818Z" fill="#454545"/>
<path id="Vector_607" d="M127.31 203.818H124.286V206.842H127.31V203.818Z" fill="#454545"/>
<path id="Vector_608" d="M132.25 203.818H129.226V206.842H132.25V203.818Z" fill="#454545"/>
<path id="Vector_609" d="M137.189 203.818H134.165V206.842H137.189V203.818Z" fill="#454545"/>
<path id="Vector_610" d="M142.128 203.818H139.104V206.842H142.128V203.818Z" fill="#454545"/>
<path id="Vector_611" d="M147.118 203.818H144.094V206.842H147.118V203.818Z" fill="#454545"/>
<path id="Vector_612" d="M152.057 203.818H149.033V206.842H152.057V203.818Z" fill="#454545"/>
<path id="Vector_613" d="M156.996 203.818H153.972V206.842H156.996V203.818Z" fill="#454545"/>
<path id="Vector_614" d="M161.986 203.818H158.962V206.842H161.986V203.818Z" fill="#454545"/>
<path id="Vector_615" d="M166.925 203.818H163.901V206.842H166.925V203.818Z" fill="#454545"/>
<path id="Vector_616" d="M171.864 203.818H168.84V206.842H171.864V203.818Z" fill="#454545"/>
<path id="Vector_617" d="M176.803 203.818H173.779V206.842H176.803V203.818Z" fill="#454545"/>
<path id="Vector_618" d="M181.793 203.818H178.769V206.842H181.793V203.818Z" fill="#454545"/>
<path id="Vector_619" d="M186.732 203.818H183.708V206.842H186.732V203.818Z" fill="#454545"/>
<path id="Vector_620" d="M57.96 208.757H54.936V211.781H57.96V208.757Z" fill="#454545"/>
<path id="Vector_621" d="M62.8992 208.757H59.8752V211.781H62.8992V208.757Z" fill="#454545"/>
<path id="Vector_622" d="M67.8887 208.757H64.8647V211.781H67.8887V208.757Z" fill="#454545"/>
<path id="Vector_623" d="M72.828 208.757H69.804V211.781H72.828V208.757Z" fill="#454545"/>
<path id="Vector_624" d="M77.7672 208.757H74.7432V211.781H77.7672V208.757Z" fill="#454545"/>
<path id="Vector_625" d="M82.7064 208.757H79.6824V211.781H82.7064V208.757Z" fill="#454545"/>
<path id="Vector_626" d="M87.6961 208.757H84.6721V211.781H87.6961V208.757Z" fill="#454545"/>
<path id="Vector_627" d="M92.6351 208.757H89.6111V211.781H92.6351V208.757Z" fill="#454545"/>
<path id="Vector_628" d="M97.5743 208.757H94.5503V211.781H97.5743V208.757Z" fill="#454545"/>
<path id="Vector_629" d="M102.514 208.757H99.4895V211.781H102.514V208.757Z" fill="#454545"/>
<path id="Vector_630" d="M107.503 208.757H104.479V211.781H107.503V208.757Z" fill="#454545"/>
<path id="Vector_631" d="M112.442 208.757H109.418V211.781H112.442V208.757Z" fill="#454545"/>
<path id="Vector_632" d="M117.382 208.757H114.358V211.781H117.382V208.757Z" fill="#454545"/>
<path id="Vector_633" d="M122.321 208.757H119.297V211.781H122.321V208.757Z" fill="#454545"/>
<path id="Vector_634" d="M127.31 208.757H124.286V211.781H127.31V208.757Z" fill="#454545"/>
<path id="Vector_635" d="M132.25 208.757H129.226V211.781H132.25V208.757Z" fill="#454545"/>
<path id="Vector_636" d="M137.189 208.757H134.165V211.781H137.189V208.757Z" fill="#454545"/>
<path id="Vector_637" d="M142.128 208.757H139.104V211.781H142.128V208.757Z" fill="#454545"/>
<path id="Vector_638" d="M147.118 208.757H144.094V211.781H147.118V208.757Z" fill="#454545"/>
<path id="Vector_639" d="M152.057 208.757H149.033V211.781H152.057V208.757Z" fill="#454545"/>
<path id="Vector_640" d="M156.996 208.757H153.972V211.781H156.996V208.757Z" fill="#454545"/>
<path id="Vector_641" d="M161.986 208.757H158.962V211.781H161.986V208.757Z" fill="#454545"/>
<path id="Vector_642" d="M166.925 208.757H163.901V211.781H166.925V208.757Z" fill="#454545"/>
<path id="Vector_643" d="M171.864 208.757H168.84V211.781H171.864V208.757Z" fill="#454545"/>
<path id="Vector_644" d="M176.803 208.757H173.779V211.781H176.803V208.757Z" fill="#454545"/>
<path id="Vector_645" d="M181.793 208.757H178.769V211.781H181.793V208.757Z" fill="#454545"/>
<path id="Vector_646" d="M186.732 208.757H183.708V211.781H186.732V208.757Z" fill="#454545"/>
<path id="Vector_647" d="M87.6961 213.696H84.6721V216.72H87.6961V213.696Z" fill="#454545"/>
<path id="Vector_648" d="M92.6351 213.696H89.6111V216.72H92.6351V213.696Z" fill="#454545"/>
<path id="Vector_649" d="M97.5743 213.696H94.5503V216.72H97.5743V213.696Z" fill="#454545"/>
<path id="Vector_650" d="M102.514 213.696H99.4895V216.72H102.514V213.696Z" fill="#454545"/>
<path id="Vector_651" d="M107.503 213.696H104.479V216.72H107.503V213.696Z" fill="#454545"/>
<path id="Vector_652" d="M112.442 213.696H109.418V216.72H112.442V213.696Z" fill="#454545"/>
<path id="Vector_653" d="M117.382 213.696H114.358V216.72H117.382V213.696Z" fill="#454545"/>
<path id="Vector_654" d="M122.321 213.696H119.297V216.72H122.321V213.696Z" fill="#454545"/>
<path id="Vector_655" d="M127.31 213.696H124.286V216.72H127.31V213.696Z" fill="#454545"/>
<path id="Vector_656" d="M132.25 213.696H129.226V216.72H132.25V213.696Z" fill="#454545"/>
<path id="Vector_657" d="M137.189 213.696H134.165V216.72H137.189V213.696Z" fill="#454545"/>
<path id="Vector_658" d="M142.128 213.696H139.104V216.72H142.128V213.696Z" fill="#454545"/>
<path id="Vector_659" d="M147.118 213.696H144.094V216.72H147.118V213.696Z" fill="#454545"/>
<path id="Vector_660" d="M152.057 213.696H149.033V216.72H152.057V213.696Z" fill="#454545"/>
<path id="Vector_661" d="M156.996 213.696H153.972V216.72H156.996V213.696Z" fill="#454545"/>
<path id="Vector_662" d="M161.986 213.696H158.962V216.72H161.986V213.696Z" fill="#454545"/>
<path id="Vector_663" d="M166.925 213.696H163.901V216.72H166.925V213.696Z" fill="#454545"/>
<path id="Vector_664" d="M171.864 213.696H168.84V216.72H171.864V213.696Z" fill="#454545"/>
<path id="Vector_665" d="M176.803 213.696H173.779V216.72H176.803V213.696Z" fill="#454545"/>
<path id="Vector_666" d="M181.793 213.696H178.769V216.72H181.793V213.696Z" fill="#454545"/>
<path id="Vector_667" d="M186.732 213.696H183.708V216.72H186.732V213.696Z" fill="#454545"/>
<path id="Vector_668" d="M122.321 218.635H119.297V221.659H122.321V218.635Z" fill="#454545"/>
<path id="Vector_669" d="M127.31 218.635H124.286V221.659H127.31V218.635Z" fill="#454545"/>
<path id="Vector_670" d="M132.25 218.635H129.226V221.659H132.25V218.635Z" fill="#454545"/>
<path id="Vector_671" d="M137.189 218.635H134.165V221.659H137.189V218.635Z" fill="#454545"/>
<path id="Vector_672" d="M142.128 218.635H139.104V221.659H142.128V218.635Z" fill="#454545"/>
<path id="Vector_673" d="M147.118 218.635H144.094V221.659H147.118V218.635Z" fill="#454545"/>
<path id="Vector_674" d="M152.057 218.635H149.033V221.659H152.057V218.635Z" fill="#454545"/>
<path id="Vector_675" d="M156.996 218.635H153.972V221.659H156.996V218.635Z" fill="#454545"/>
<path id="Vector_676" d="M161.986 218.635H158.962V221.659H161.986V218.635Z" fill="#454545"/>
<path id="Vector_677" d="M166.925 218.635H163.901V221.659H166.925V218.635Z" fill="#454545"/>
<path id="Vector_678" d="M171.864 218.635H168.84V221.659H171.864V218.635Z" fill="#454545"/>
<path id="Vector_679" d="M176.803 218.635H173.779V221.659H176.803V218.635Z" fill="#454545"/>
<path id="Vector_680" d="M181.793 218.635H178.769V221.659H181.793V218.635Z" fill="#454545"/>
<path id="Vector_681" d="M186.732 218.635H183.708V221.659H186.732V218.635Z" fill="#454545"/>
<path id="Vector_682" d="M161.986 223.625H158.962V226.649H161.986V223.625Z" fill="#454545"/>
<path id="Vector_683" d="M166.925 223.625H163.901V226.649H166.925V223.625Z" fill="#454545"/>
<path id="Vector_684" d="M171.864 223.625H168.84V226.649H171.864V223.625Z" fill="#454545"/>
<path id="Vector_685" d="M176.803 223.625H173.779V226.649H176.803V223.625Z" fill="#454545"/>
<path id="Vector_686" d="M181.793 223.625H178.769V226.649H181.793V223.625Z" fill="#454545"/>
<path id="Vector_687" d="M162.238 121.565C162.238 121.514 162.238 121.514 162.238 121.464C162.238 114.509 156.593 108.914 149.688 108.914C142.783 108.914 137.138 114.559 137.138 121.464C137.138 121.615 137.138 121.968 137.189 122.573C137.34 124.236 137.794 125.798 138.55 127.26C139.205 128.722 141.17 131.746 144.396 136.13C145.706 137.894 146.866 139.457 147.672 140.465C148.126 141.019 148.478 141.523 148.73 141.826C149.285 142.531 149.285 142.582 149.587 142.632H149.738L149.89 142.582C150.192 142.531 150.192 142.481 150.746 141.775C150.998 141.422 151.351 140.969 151.805 140.414C152.611 139.356 153.821 137.743 155.131 135.979C158.407 131.494 160.373 128.47 160.978 127.008C161.683 125.597 162.086 124.034 162.238 122.422C162.238 122.069 162.238 121.766 162.238 121.565ZM149.688 125.647C147.168 125.647 145.152 123.631 145.152 121.111C145.152 118.591 147.168 116.575 149.688 116.575C152.208 116.575 154.224 118.591 154.224 121.111C154.224 123.581 152.158 125.647 149.688 125.647Z" fill="#EE3124"/>
</g>
</svg>
