<svg xmlns="http://www.w3.org/2000/svg" width="26.035" height="21.916" viewBox="0 0 26.035 21.916">
  <path id="courses" d="M-6425.692,22240.914v0a15.929,15.929,0,0,0-9.51-3.57,7.372,7.372,0,0,0-1.557.137l-1.24-.969v-16.439l.849-.988.01,0a8.4,8.4,0,0,1,1.112-.064,14.951,14.951,0,0,1,4.923.887,18.471,18.471,0,0,1,5.415,3.064v17.947Zm1.686-.047v-17.957a18.4,18.4,0,0,1,5.3-3.02,14.337,14.337,0,0,1,4.812-.893,7.975,7.975,0,0,1,1.068.064l.016.006.842.984v16.439l-1.245.967-.014,0a7.838,7.838,0,0,0-1.465-.125,15.674,15.674,0,0,0-9.315,3.535Z" transform="translate(6438 -22218.998)" fill="#837c9b"/>
</svg>
