<svg xmlns="http://www.w3.org/2000/svg" width="35.948" height="20.632" viewBox="0 0 35.948 20.632">
  <path id="easy-acess" d="M10.438,1.235,9.179.189A.817.817,0,0,0,8.028.3L.22,9.7a.958.958,0,0,0,0,1.223l7.808,9.409a.817.817,0,0,0,1.15.107l1.26-1.047a.817.817,0,0,0,.107-1.149L3.959,10.317l6.585-7.932a.816.816,0,0,0-.107-1.149M10.381,11.95H12.5a.574.574,0,0,0,.574-.574V9.257a.574.574,0,0,0-.574-.573H10.381a.574.574,0,0,0-.574.573v2.119a.574.574,0,0,0,.574.574M25.569,8.684h-2.12a.574.574,0,0,0-.574.573v2.12a.574.574,0,0,0,.574.574h2.12a.574.574,0,0,0,.574-.574V9.257a.574.574,0,0,0-.574-.573m-8.653,3.267h2.119a.574.574,0,0,0,.574-.574V9.257a.574.574,0,0,0-.574-.573h-2.12a.574.574,0,0,0-.574.574v2.119a.574.574,0,0,0,.574.574M26.771.189l-1.26,1.047A.817.817,0,0,0,25.4,2.385l6.582,7.932L25.4,18.248a.815.815,0,0,0,.107,1.149l1.259,1.047a.817.817,0,0,0,1.15-.107l7.808-9.409a.958.958,0,0,0,0-1.223L27.922.3a.817.817,0,0,0-1.15-.107" transform="translate(0 0)" fill="#837c9b"/>
</svg>
