<svg xmlns="http://www.w3.org/2000/svg" width="17.069" height="20.488" viewBox="0 0 17.069 20.488">
  <path id="flag" d="M3.256,19.988H3.129a1.026,1.026,0,0,1-1.005-.862v-.008L-.493,2.44a1.037,1.037,0,0,1,0-.205V2.149l.01-.049a1.1,1.1,0,0,1,.2-.437l0-.005A6.507,6.507,0,0,1,4.32-.5,6.426,6.426,0,0,1,7.76.577a4.482,4.482,0,0,0,2.4.75A4.946,4.946,0,0,0,13.484-.167l0,0A1,1,0,0,1,14.23-.5a1.021,1.021,0,0,1,.3.045l.008,0a1.04,1.04,0,0,1,.7.82l0,.01L16.559,9a1.045,1.045,0,0,1-.261.857l-.006.006a7.107,7.107,0,0,1-4.839,2.146h-.005A6.38,6.38,0,0,1,8,10.945a4.467,4.467,0,0,0-2.381-.76,4.112,4.112,0,0,0-2.667,1.069L4.131,18.8a1.047,1.047,0,0,1-.83,1.184Z" transform="translate(0.5 0.5)" fill="#fff"/>
</svg>
