<svg xmlns="http://www.w3.org/2000/svg" width="18.832" height="18.832" viewBox="0 0 18.832 18.832">
  <g id="globe" transform="translate(-2.25 -2.25)">
    <path id="Path_76499" data-name="Path 76499" d="M11.666,21.082a9.416,9.416,0,1,1,9.416-9.416A9.427,9.427,0,0,1,11.666,21.082Zm0-17.332a7.916,7.916,0,1,0,7.916,7.916A7.925,7.925,0,0,0,11.666,3.75Z" transform="translate(0 0)" />
    <path id="Path_76500" data-name="Path 76500" d="M20.332,18.75H3a.75.75,0,0,1,0-1.5H20.332a.75.75,0,0,1,0,1.5Z" transform="translate(0 -6.334)" />
    <path id="Path_76501" data-name="Path 76501" d="M15.466,2.25a.75.75,0,0,1,.554.244,14,14,0,0,1,3.662,9.156q0,.016,0,.031a14,14,0,0,1-3.662,9.156.75.75,0,0,1-1.108,0,14,14,0,0,1-3.662-9.156q0-.016,0-.031a14,14,0,0,1,3.662-9.156A.75.75,0,0,1,15.466,2.25Zm2.716,9.416a12.5,12.5,0,0,0-2.716-7.511,12.505,12.505,0,0,0-2.716,7.511,12.5,12.5,0,0,0,2.716,7.511A12.5,12.5,0,0,0,18.183,11.666Z" transform="translate(-3.8)" />
  </g>
</svg>
