<svg xmlns="http://www.w3.org/2000/svg" width="23.033" height="23.133" viewBox="0 0 23.033 23.133">
  <g id="home" transform="translate(18845 22423)">
    <path id="Path_105086" data-name="Path 105086" d="M27.186,126.4v10.2a1.318,1.318,0,0,0,1.318,1.318h5.1a.368.368,0,0,0,.368-.368v-7.973h4.575v7.973a.368.368,0,0,0,.368.368h5.215a1.287,1.287,0,0,0,1.287-1.287V126.4Z" transform="translate(-18869.688 -22537.783)" fill="#837c9b"/>
    <path id="Path_105087" data-name="Path 105087" d="M27.176,42.262H45.586l-9.34-9.413Z" transform="translate(-18869.859 -22453.277)" fill="#837c9b"/>
    <path id="Path_105088" data-name="Path 105088" d="M12.692,8.352,2.255,18.587a1.287,1.287,0,0,1-1.819-.018L.368,18.5A1.287,1.287,0,0,1,.385,16.68L9.9,7.346a1.287,1.287,0,0,1,1.819.018Z" transform="translate(-18845 -22429.338)" fill="#837c9b"/>
    <path id="Path_105089" data-name="Path 105089" d="M104.051,1.374l11.214,11a1.286,1.286,0,0,0,1.819-.018l.068-.07a1.287,1.287,0,0,0-.018-1.819L106.84.368a1.287,1.287,0,0,0-1.819.018Z" transform="translate(-18939.488 -22423)" fill="#837c9b"/>
  </g>
</svg>
