<svg xmlns="http://www.w3.org/2000/svg" width="20.046" height="22.76" viewBox="0 0 20.046 22.76">
  <g id="home-stroked" transform="translate(22257 12849)">
    <path id="Path_104875" data-name="Path 104875" d="M3066.046-21229.379H3048v-2.5h18.046Z" transform="translate(-25304 8403.139)" fill="#fff"/>
    <g id="Group_125864" data-name="Group 125864" transform="translate(0.321)">
      <path id="Path_104876" data-name="Path 104876" d="M133.28,95.5h2.911v7.376H133.28Z" transform="translate(-22387.6 -12933.011)" fill="#fff"/>
      <path id="Path_104877" data-name="Path 104877" d="M133.28,95.5h2.911v7.376H133.28Z" transform="translate(-22376.146 -12933.011)" fill="#fff"/>
      <path id="Path_104878" data-name="Path 104878" d="M133.28,95.5h2.911v7.376H133.28Z" transform="translate(-22381.873 -12933.011)" fill="#fff"/>
    </g>
    <path id="Path_104874_-_Outline" data-name="Path 104874 - Outline" d="M3066.046-21241.906H3048a1,1,0,0,1-.939-.656,1,1,0,0,1,.292-1.105l8.938-7.586a1,1,0,0,1,1.287-.006l9.108,7.586a1,1,0,0,1,.3,1.107A1,1,0,0,1,3066.046-21241.906Z" transform="translate(-25304 8402.492)" fill="#fff"/>
  </g>
</svg>
