<svg id="instagram" xmlns="http://www.w3.org/2000/svg" width="15.167" height="15.167" viewBox="0 0 15.167 15.167">
  <path id="Path_85" data-name="Path 85" d="M5.148,1.126a2.844,2.844,0,1,1-4.022,0,2.844,2.844,0,0,1,4.022,0" transform="translate(4.447 4.447)" />
  <path id="Path_86" data-name="Path 86" d="M10.9,0H4.266A4.27,4.27,0,0,0,0,4.266V10.9a4.27,4.27,0,0,0,4.266,4.266H10.9A4.27,4.27,0,0,0,15.167,10.9V4.266A4.27,4.27,0,0,0,10.9,0ZM7.584,11.375a3.792,3.792,0,1,1,3.792-3.792A3.8,3.8,0,0,1,7.584,11.375Zm4.266-7.584a.474.474,0,1,1,.474-.474A.474.474,0,0,1,11.849,3.792Z" />
</svg>
