<svg xmlns="http://www.w3.org/2000/svg" width="41.231" height="41.231" viewBox="0 0 41.231 41.231">
  <g id="instagram-stroke" transform="translate(-1534.919 -8769.667)">
    <path id="Path_29" data-name="Path 29" d="M1547,8769.81a15.054,15.054,0,0,0-5,.969,10.538,10.538,0,0,0-6.018,6.039,15.134,15.134,0,0,0-.949,5.007c-.1,2.2-.118,2.9-.107,8.5s.035,6.3.14,8.5a15.119,15.119,0,0,0,.968,5,10.537,10.537,0,0,0,6.041,6.018,15.117,15.117,0,0,0,5.005.948c2.2.1,2.9.118,8.5.108s6.3-.036,8.5-.141a15.136,15.136,0,0,0,5-.968,10.529,10.529,0,0,0,6.017-6.041,15.1,15.1,0,0,0,.949-5c.1-2.2.119-2.9.108-8.5s-.036-6.3-.14-8.5a15.154,15.154,0,0,0-.968-5,10.532,10.532,0,0,0-6.04-6.018,15.106,15.106,0,0,0-5.005-.947c-2.2-.1-2.9-.119-8.5-.108s-6.3.034-8.5.14m.24,37.269a11.418,11.418,0,0,1-3.828-.7,6.825,6.825,0,0,1-3.921-3.9,11.434,11.434,0,0,1-.716-3.828c-.1-2.173-.126-2.824-.136-8.328s.009-6.155.1-8.33a11.372,11.372,0,0,1,.7-3.828,6.817,6.817,0,0,1,3.905-3.92,11.4,11.4,0,0,1,3.826-.718c2.174-.1,2.826-.125,8.329-.136s6.156.009,8.331.1a11.386,11.386,0,0,1,3.827.7,6.816,6.816,0,0,1,3.921,3.905,11.388,11.388,0,0,1,.716,3.825c.1,2.174.127,2.826.137,8.329s-.009,6.157-.1,8.33a11.44,11.44,0,0,1-.7,3.83,6.831,6.831,0,0,1-3.906,3.92,11.408,11.408,0,0,1-3.825.716c-2.174.1-2.825.126-8.33.136s-6.155-.01-8.33-.1m16.806-27.815a2.474,2.474,0,1,0,2.469-2.478,2.475,2.475,0,0,0-2.469,2.478m-19.093,11.04a10.586,10.586,0,1,0,10.564-10.605,10.584,10.584,0,0,0-10.564,10.605m3.713-.008a6.872,6.872,0,1,1,6.884,6.859,6.87,6.87,0,0,1-6.884-6.859" fill="#fff"/>
  </g>
</svg>
