<svg xmlns="http://www.w3.org/2000/svg" width="41.047" height="41.015" viewBox="0 0 41.047 41.015">
  <path id="linkedin-fill" d="M1618,8769.8c5.826,0,11.652.019,17.477-.011a3,3,0,0,1,3.016,2.469,3.045,3.045,0,0,1,.037.456q0,17.59,0,35.176a2.921,2.921,0,0,1-2.786,2.91c-.1,0-.2,0-.307,0h-34.878a2.885,2.885,0,0,1-2.946-2.1,3.142,3.142,0,0,1-.124-.866q-.009-17.53,0-35.061a2.907,2.907,0,0,1,2.922-2.967c1.408-.018,2.817,0,4.225,0Zm1.374,18.006c0-.817-.014-1.521.006-2.222.01-.342-.084-.468-.45-.463q-2.516.026-5.031,0c-.4,0-.491.124-.49.5q.015,9.35,0,18.7c0,.381.1.514.494.51q2.611-.026,5.223,0c.388,0,.5-.113.495-.5q-.024-4.7,0-9.407a11.518,11.518,0,0,1,.158-1.943,3.053,3.053,0,0,1,2.261-2.755,5.506,5.506,0,0,1,1.366-.124,2.5,2.5,0,0,1,2.66,2.077,11.44,11.44,0,0,1,.264,2.465c.029,3.226.017,6.45.005,9.676,0,.375.1.52.5.516q2.612-.026,5.223,0c.372,0,.475-.116.474-.483q-.018-5.2,0-10.405a18.1,18.1,0,0,0-.4-4.225,5.8,5.8,0,0,0-3.187-4.349,8.531,8.531,0,0,0-5.763-.48A6.314,6.314,0,0,0,1619.376,8787.807Zm-9.68,7.14c0-3.122-.005-6.244.006-9.366,0-.346-.095-.462-.454-.458q-2.649.025-5.3,0c-.347,0-.457.09-.456.448q.015,9.4,0,18.809c0,.372.135.451.467.449,1.741-.011,3.482,0,5.222,0,.512,0,.514,0,.514-.513ZM1606.6,8782.5a3.562,3.562,0,1,0-3.566-3.534A3.54,3.54,0,0,0,1606.6,8782.5Z" transform="translate(-1597.487 -8769.79)" fill="#fff"/>
</svg>
