<svg xmlns="http://www.w3.org/2000/svg" width="15.764" height="15.064" viewBox="0 0 15.764 15.064">
  <path id="linkedin" d="M0,6.75A1.639,1.639,0,0,1,.533,5.495,1.954,1.954,0,0,1,1.917,5a1.9,1.9,0,0,1,1.354.487A1.716,1.716,0,0,1,3.8,6.8a1.6,1.6,0,0,1-.517,1.217,1.957,1.957,0,0,1-1.4.5H1.872a1.862,1.862,0,0,1-1.354-.5A1.686,1.686,0,0,1,0,6.75ZM.2,20.064V9.9H3.576V20.064Zm5.25,0H8.825V14.388a1.981,1.981,0,0,1,.768-1.7,1.653,1.653,0,0,1,1.088-.358q1.7,0,1.7,2.3v5.432h3.378V14.236A4.9,4.9,0,0,0,14.7,10.82a3.633,3.633,0,0,0-2.815-1.164,3.453,3.453,0,0,0-3.058,1.689v.03H8.81l.015-.03V9.9H5.447q.03.487.03,3.028T5.447,20.064Z" transform="translate(0 -5)" />
</svg>
