<svg id="location" xmlns="http://www.w3.org/2000/svg" width="46.166" height="53.57" viewBox="0 0 46.166 53.57">
  <path id="Subtraction_2" data-name="Subtraction 2" d="M23.081,53.57h0c-.015-.007-1.472-.771-3.664-2.209a62.25,62.25,0,0,1-7.877-6.114,41.881,41.881,0,0,1-7.934-9.612A24.851,24.851,0,0,1,0,23.085,23.088,23.088,0,0,1,44.351,14.1a22.923,22.923,0,0,1,1.815,8.985,26.039,26.039,0,0,1-3.608,13.059A38.96,38.96,0,0,1,34.623,45.7a54.316,54.316,0,0,1-11.542,7.868Zm.053-40.357a10.014,10.014,0,1,0,7.081,2.933A9.949,9.949,0,0,0,23.134,13.213Z" />
</svg>
