<svg xmlns="http://www.w3.org/2000/svg" width="20.861" height="28.365" viewBox="0 0 20.861 28.365">
  <path id="location-thin" d="M185.713,208.177c-.083-.1-.162-.185-.228-.278-1.714-2.4-3.457-4.776-5.132-7.2a42.205,42.205,0,0,1-4.184-7.51,9.909,9.909,0,0,1-.877-3.6,8.6,8.6,0,0,1,1.849-5.551,10.277,10.277,0,0,1,6.869-4.085,10.63,10.63,0,0,1,7.918,1.8,9.852,9.852,0,0,1,4.08,6.23,7.47,7.47,0,0,1-.447,4.3,44.962,44.962,0,0,1-4.434,8.325c-1.671,2.563-3.486,5.023-5.327,7.464C185.775,208.1,185.75,208.13,185.713,208.177Zm-4.811-18.1a4.811,4.811,0,1,0,4.808-4.821A4.814,4.814,0,0,0,180.9,190.074Z" transform="translate(-175.289 -179.812)" fill="#fff"/>
</svg>
