<svg xmlns="http://www.w3.org/2000/svg" width="23.208" height="22.891" viewBox="0 0 23.208 22.891">
  <g id="search" transform="translate(-131.172 -762.083)">
    <path id="search-2" data-name="search" d="M14.766,17.054a9.318,9.318,0,0,1-2.393,1.209A9.219,9.219,0,0,1,5.489,17.9a9.218,9.218,0,0,1-4.316-3.992A9.16,9.16,0,0,1,.025,8.7,9.2,9.2,0,0,1,1.543,4.231,9.275,9.275,0,0,1,4.95,1.112,9.192,9.192,0,0,1,9.814.011a9.135,9.135,0,0,1,5.2,1.88,9.123,9.123,0,0,1,3.457,5.194,9.158,9.158,0,0,1-1,7.012.318.318,0,0,0,.056.471q2.528,2.505,5.038,5.028a1.875,1.875,0,0,1-2.383,2.895c-.117-.1-.229-.2-.336-.3q-2.454-2.451-4.9-4.905a2.274,2.274,0,0,1-.176-.229m.954-7.665a6.341,6.341,0,1,0-6.358,6.325A6.346,6.346,0,0,0,15.72,9.388" transform="translate(131.172 762.082)" fill="#837c9b"/>
    <path id="Subtraction_3" data-name="Subtraction 3" d="M18520.539,22999.82a6.369,6.369,0,1,1,6.373-6.367A6.376,6.376,0,0,1,18520.539,22999.82Zm0-12.555a6.186,6.186,0,1,0,6.188,6.188A6.194,6.194,0,0,0,18520.539,22987.266Z" transform="translate(-18380.111 -22222.004)" fill="#837c9b"/>
  </g>
</svg>
