<svg xmlns="http://www.w3.org/2000/svg" width="13.363" height="12.546" viewBox="0 0 13.363 12.546">
  <path id="snapchat" d="M15.228,12.217a4.127,4.127,0,0,1-2.809-2.356l0-.008a.715.715,0,0,1-.068-.6c.129-.3.554-.438.836-.528.07-.022.137-.043.189-.064.51-.2.613-.41.611-.549a.442.442,0,0,0-.335-.363h0a.632.632,0,0,0-.238-.046.5.5,0,0,0-.209.041,1.7,1.7,0,0,1-.638.178A.549.549,0,0,1,12.2,7.8c.006-.114.013-.231.021-.354l0-.044a6.75,6.75,0,0,0-.161-2.7,3.507,3.507,0,0,0-3.256-2.1l-.269,0a3.5,3.5,0,0,0-3.25,2.1A6.742,6.742,0,0,0,5.131,7.4q.013.2.024.4a.567.567,0,0,1-.39.119,1.639,1.639,0,0,1-.678-.179.384.384,0,0,0-.164-.033.557.557,0,0,0-.542.356c-.055.288.356.5.606.595.053.021.119.042.189.064.282.089.708.225.836.528a.716.716,0,0,1-.068.6l0,.008a4.7,4.7,0,0,1-.714,1.111,3.484,3.484,0,0,1-2.095,1.245A.16.16,0,0,0,2,12.384a.254.254,0,0,0,.021.087c.117.275.707.5,1.705.655.093.014.133.167.187.416.022.1.044.2.076.31A.2.2,0,0,0,4.2,14a1.661,1.661,0,0,0,.284-.041,3.694,3.694,0,0,1,.749-.085,3.31,3.31,0,0,1,.54.046,2.591,2.591,0,0,1,1.026.524,2.969,2.969,0,0,0,1.8.708l.067,0,.1,0a2.972,2.972,0,0,0,1.8-.709,2.588,2.588,0,0,1,1.025-.523,3.323,3.323,0,0,1,.54-.046,3.736,3.736,0,0,1,.749.079,1.6,1.6,0,0,0,.284.036h.016a.186.186,0,0,0,.2-.148c.031-.105.054-.206.076-.308.054-.248.093-.4.187-.414,1-.154,1.588-.381,1.7-.654a.257.257,0,0,0,.021-.087.16.16,0,0,0-.134-.167Z" transform="translate(-1.998 -2.611)" />
</svg>
