<svg xmlns="http://www.w3.org/2000/svg" width="41.231" height="41.231" viewBox="0 0 41.231 41.231">
  <g id="snapchat-fill" transform="translate(-1472.438 -8832.643)">
    <path id="Path_33" data-name="Path 33" d="M1505.764,8860.112c-4.588-2.22-5.322-5.648-5.352-5.906a.809.809,0,0,1,.257-.863c.333-.3,1.787-1.2,2.188-1.482.666-.471.962-.933.742-1.508a.9.9,0,0,0-.908-.545,1.532,1.532,0,0,0-.364.038c-.734.159-1.446.53-1.855.628a.508.508,0,0,1-.151.023c-.22,0-.3-.1-.28-.363a25.6,25.6,0,0,0,.038-3.824,6.052,6.052,0,0,0-1.59-3.883,7.666,7.666,0,0,0-10.856.007,6.045,6.045,0,0,0-1.59,3.885,26.753,26.753,0,0,0,.03,3.822c.015.25-.061.363-.28.363a.532.532,0,0,1-.151-.021c-.409-.106-1.121-.471-1.855-.63a2.09,2.09,0,0,0-.364-.036.9.9,0,0,0-.908.545c-.22.574.076,1.037.742,1.506.409.28,1.862,1.181,2.188,1.483a.81.81,0,0,1,.257.863c-.03.257-.764,3.688-5.352,5.905-.265.129-.727.4.083.848,1.264.7,2.1.621,2.763,1.045.553.356.227,1.128.629,1.408.5.348,1.968-.022,3.86.606,1.59.521,2.559,2.006,5.376,2.006s3.808-1.492,5.375-2.006c1.892-.629,3.361-.266,3.861-.606.4-.28.068-1.052.628-1.408.651-.424,1.5-.348,2.763-1.045C1506.491,8860.52,1506.037,8860.24,1505.764,8860.112Z" fill="#fff"/>
    <path id="Path_34" data-name="Path 34" d="M1504.473,8832.643h-22.839a9.2,9.2,0,0,0-9.2,9.2v22.839a9.2,9.2,0,0,0,9.2,9.2h22.839a9.2,9.2,0,0,0,9.2-9.2v-22.839A9.2,9.2,0,0,0,1504.473,8832.643Zm2.79,29.149-.008.008a3.009,3.009,0,0,1-.794.621,8.4,8.4,0,0,1-1.878.749,1.026,1.026,0,0,0-.348.159c-.2.174-.189.424-.4.78a2.061,2.061,0,0,1-.62.681,3.609,3.609,0,0,1-2.029.477,7.688,7.688,0,0,0-2.256.333,6.22,6.22,0,0,0-1.128.6,8.363,8.363,0,0,1-9.524.008,5.514,5.514,0,0,0-1.143-.606,7.729,7.729,0,0,0-2.256-.333,3.607,3.607,0,0,1-2.029-.477,2.128,2.128,0,0,1-.545-.56c-.288-.425-.258-.713-.477-.9a1.243,1.243,0,0,0-.371-.166,8.422,8.422,0,0,1-1.855-.742,3.153,3.153,0,0,1-.757-.576,1.883,1.883,0,0,1-.515-1.991c.318-.854,1.06-1.1,1.772-1.483a8.857,8.857,0,0,0,3.142-2.726,6.035,6.035,0,0,0,.545-.962.47.47,0,0,0,.022-.4.659.659,0,0,0-.2-.2c-.235-.152-.469-.3-.628-.409-.3-.2-.538-.348-.689-.454a3.767,3.767,0,0,1-1.219-1.3,2.577,2.577,0,0,1-.129-2.15,2.544,2.544,0,0,1,2.46-1.612,3.269,3.269,0,0,1,.712.075c.068.016.129.03.189.046-.007-.682.008-1.4.069-2.112a7.708,7.708,0,0,1,2-4.83,7.984,7.984,0,0,1,2.029-1.635,9.663,9.663,0,0,1,9.289,0,7.965,7.965,0,0,1,2.029,1.635,7.644,7.644,0,0,1,2,4.83c.061.712.076,1.431.068,2.112.061-.016.129-.03.189-.046a3.341,3.341,0,0,1,.72-.075,2.533,2.533,0,0,1,2.46,1.612,2.577,2.577,0,0,1-.129,2.15,3.767,3.767,0,0,1-1.219,1.3c-.151.106-.393.257-.689.454-.166.106-.409.265-.651.424a.622.622,0,0,0-.181.189.458.458,0,0,0,.015.386,6.252,6.252,0,0,0,.552.984,8.817,8.817,0,0,0,3.233,2.771l.409.205c.068.03.144.075.227.121a2.028,2.028,0,0,1,1.045,1.1A1.805,1.805,0,0,1,1507.263,8861.792Z" fill="#fff"/>
  </g>
</svg>
