<svg xmlns="http://www.w3.org/2000/svg" width="23" height="22" viewBox="0 0 23 22">
  <g id="Tiktok" transform="translate(0.316 0.15)">
    <rect id="Rectangle_35952" data-name="Rectangle 35952" width="23" height="22" transform="translate(-0.316 -0.15)" opacity="0"/>
    <path id="Path_108359" data-name="Path 108359" d="M231.938,281.058a6.259,6.259,0,0,0-1.1.01,2.049,2.049,0,0,0-1.639,2.189,2.085,2.085,0,0,0,2.036,1.9,2.058,2.058,0,0,0,2.1-1.757,3.594,3.594,0,0,0,.039-.52q0-4.582,0-9.164c0-.108,0-.216,0-.339h2.257a3.653,3.653,0,0,0,3.57,3.547v2.25a5.91,5.91,0,0,1-3.527-1.193c0,.152,0,.249,0,.345q.006,2.3.012,4.6a4.4,4.4,0,1,1-3.932-4.162c.068.008.179.108.18.166C231.942,279.64,231.938,280.354,231.938,281.058Z" transform="translate(-221.86 -269.153)" fill="#fff"/>
  </g>
</svg>
