<svg xmlns="http://www.w3.org/2000/svg" width="41.165" height="41.152" viewBox="0 0 41.165 41.152">
  <path id="tiktoc-fill" d="M1576.166,8869.925q0-17.038,0-34.075a2.957,2.957,0,0,0-2.528-3.089,4.324,4.324,0,0,0-.721-.037q-17.322,0-34.645,0a2.978,2.978,0,0,0-3.219,2.431c-.007.022-.031.041-.047.062v36.168a10.045,10.045,0,0,0,.549,1.219,3.116,3.116,0,0,0,1.943,1.273h36.176a6.909,6.909,0,0,0,.783-.287,2.914,2.914,0,0,0,1.7-2.618C1576.179,8870.622,1576.166,8870.273,1576.166,8869.925Zm-10.3-18.687a9.724,9.724,0,0,1-5.913-2c0,.213,0,.352,0,.491.01,2.638.03,5.276.027,7.915a7.259,7.259,0,0,1-5.607,7.171,7.342,7.342,0,0,1-8.94-5.586,7.252,7.252,0,0,1,5.855-8.6,8.88,8.88,0,0,1,1.276-.129c.372-.011.745.04,1.158.067v3.856c-.266-.036-.523-.086-.781-.106a3.461,3.461,0,1,0,3.1,4.146,5.143,5.143,0,0,0,.079-1.039q.01-7.652.01-15.307v-.538h3.791a6.048,6.048,0,0,0,5.948,5.878Z" transform="translate(-1535.006 -8832.722)" fill="#fff"/>
</svg>
