<svg xmlns="http://www.w3.org/2000/svg" width="41.232" height="41.231" viewBox="0 0 41.232 41.231">
  <path id="twitter-fill" d="M1692.407,8769.643h-23.842a8.7,8.7,0,0,0-8.695,8.694v23.842a8.7,8.7,0,0,0,8.695,8.7h23.842a8.7,8.7,0,0,0,8.7-8.7v-23.842A8.7,8.7,0,0,0,1692.407,8769.643ZM1690.733,8785c.011.227.015.454.015.683a15.036,15.036,0,0,1-23.147,12.669,10.773,10.773,0,0,0,1.262.072,10.611,10.611,0,0,0,6.566-2.263,5.293,5.293,0,0,1-4.939-3.672,5.3,5.3,0,0,0,2.387-.091,5.288,5.288,0,0,1-4.241-5.184c0-.022,0-.045,0-.066a5.263,5.263,0,0,0,2.394.661,5.292,5.292,0,0,1-1.636-7.059,15.01,15.01,0,0,0,10.9,5.524,5.291,5.291,0,0,1,9.01-4.822,10.6,10.6,0,0,0,3.357-1.283,5.3,5.3,0,0,1-2.325,2.924,10.542,10.542,0,0,0,3.036-.832A10.754,10.754,0,0,1,1690.733,8785Z" transform="translate(-1659.87 -8769.643)" fill="#fff"/>
</svg>
