<svg xmlns="http://www.w3.org/2000/svg" width="18.025" height="14.673" viewBox="0 0 18.025 14.673">
  <path id="twitter" d="M20.025,5.607a7.651,7.651,0,0,1-2.127.577,3.722,3.722,0,0,0,1.631-2.046,7.4,7.4,0,0,1-2.352.9A3.7,3.7,0,0,0,10.868,8.41,10.49,10.49,0,0,1,3.253,4.544a3.749,3.749,0,0,0-.5,1.866A3.686,3.686,0,0,0,4.4,9.483a3.65,3.65,0,0,1-1.676-.46v.045a3.7,3.7,0,0,0,2.974,3.6,3.542,3.542,0,0,1-.991.153,4.416,4.416,0,0,1-.694-.063,3.7,3.7,0,0,0,3.452,2.559A7.408,7.408,0,0,1,2.9,16.909a7.147,7.147,0,0,1-.9-.054,10.427,10.427,0,0,0,5.669,1.667A10.445,10.445,0,0,0,18.222,8V7.518a7.6,7.6,0,0,0,1.8-1.911Z" transform="translate(-2 -3.849)" />
</svg>
