<svg xmlns="http://www.w3.org/2000/svg" width="15.132" height="15.132" viewBox="0 0 15.132 15.132">
  <path id="whatsapp" d="M707.564,360a7.561,7.561,0,0,0-6.123,12l-.943,2.811,2.908-.929A7.565,7.565,0,1,0,707.568,360h0Zm-2.112,3.843c-.147-.351-.258-.364-.48-.374q-.127-.008-.253-.009a1.1,1.1,0,0,0-.774.271,2.416,2.416,0,0,0-.774,1.841,4.325,4.325,0,0,0,.9,2.282,9.472,9.472,0,0,0,3.766,3.327c1.739.721,2.255.654,2.65.569a2.132,2.132,0,0,0,1.485-1.067,1.879,1.879,0,0,0,.129-1.05c-.054-.093-.2-.147-.422-.258s-1.3-.645-1.508-.716a.422.422,0,0,0-.542.165,9.248,9.248,0,0,1-.591.783.477.477,0,0,1-.534.085,5.573,5.573,0,0,1-1.774-1.094,6.737,6.737,0,0,1-1.227-1.526c-.129-.222-.013-.351.089-.471.111-.138.218-.236.329-.365a1.343,1.343,0,0,0,.245-.347.452.452,0,0,0-.031-.41c-.053-.111-.5-1.2-.68-1.636Z" transform="translate(-700 -360)"  fill-rule="evenodd"/>
</svg>
