<svg xmlns="http://www.w3.org/2000/svg" width="16.928" height="11.895" viewBox="0 0 16.928 11.895">
  <path id="youtube" d="M17.915,8.451a6.536,6.536,0,0,0-.7-3.176,2.245,2.245,0,0,0-1.323-.769,60.258,60.258,0,0,0-6.436-.238A60.322,60.322,0,0,0,3.043,4.5a2.207,2.207,0,0,0-1.123.569A3.967,3.967,0,0,0,1.075,7.72a37.133,37.133,0,0,0,0,4.983,7.344,7.344,0,0,0,.231,1.538,2.415,2.415,0,0,0,.546,1.046,2.2,2.2,0,0,0,1.146.6,34.742,34.742,0,0,0,5,.254c2.691.038,5.052,0,7.844-.215a2.215,2.215,0,0,0,1.177-.6,1.915,1.915,0,0,0,.469-.769,8.136,8.136,0,0,0,.4-2.615C17.915,11.511,17.915,8.912,17.915,8.451ZM7.719,12.4V7.643l4.552,2.392C10.995,10.742,9.311,11.542,7.719,12.4Z" transform="translate(-0.991 -4.258)" />
</svg>
