<svg xmlns="http://www.w3.org/2000/svg" xmlns:xlink="http://www.w3.org/1999/xlink" width="154" height="61.047" viewBox="0 0 154 61.047"><defs><clipPath id="a"><rect width="154" height="61.047" fill="none"/></clipPath></defs><g clip-path="url(#a)"><path d="M52.821,2.3,26.257.268.185,2.21S0,7.91,0,14.977C0,51.171,26.419,60.813,26.419,60.813s26.587-9.548,26.587-45.745C53.005,8,52.821,2.3,52.821,2.3" transform="translate(0 -0.028)" fill="#e30a0a"/><path d="M28.256,26.016a32.535,32.535,0,0,0-11.764,2.467,1.953,1.953,0,0,1-.026-1.377.826.826,0,1,0-.077-1.651l-.12.021-.14.028L16,25.554l-.051.023-.1.07-.091.077a2.837,2.837,0,0,0-.64,3.008,1.087,1.087,0,0,0-.611.743,1.028,1.028,0,0,0-.84-.07,1.075,1.075,0,0,0-.624.77,1.011,1.011,0,0,0-.847-.089,1.042,1.042,0,0,0-.614.788.993.993,0,0,0-.859-.107,1.028,1.028,0,0,0-.6.814.951.951,0,0,0-.872-.133,1.3,1.3,0,0,0-.477,1.723c.284.731.96,1.169,1.516.953a.972.972,0,0,0,.564-.733,1.018,1.018,0,0,0,.95.167.991.991,0,0,0,.577-.7,1.039,1.039,0,0,0,.937.136,1.011,1.011,0,0,0,.587-.687,1.057,1.057,0,0,0,.93.12,1.04,1.04,0,0,0,.592-.668,1.088,1.088,0,0,0,.924.1l.147-.075a1.717,1.717,0,0,1-.081,1.326l-.03,0a.834.834,0,1,0,.4,1.546l.056-.022a2.444,2.444,0,0,0,1.059-1.523,3.55,3.55,0,0,0-.156-2.022A27.454,27.454,0,0,1,24.93,30.1a20.219,20.219,0,0,1,7.455,1.276c.777-1.254,2.095-1.868,3.054-1.363.979.519,1.2,2.017.545,3.393l1.445,1.356H46v-.15c0-1.333-3.084-8.188-17.74-8.594" transform="translate(-0.903 -2.657)" fill="#fff"/><path d="M28.525,39.185l-.253,0a32.019,32.019,0,0,0-9.314,1.971A1.624,1.624,0,0,1,18.9,40.01a.7.7,0,0,0-.08-1.4l-.1.016-.12.024-.1.041-.05.021-.086.064-.069.06a2.34,2.34,0,0,0-.51,2.59l-.087.025a.928.928,0,0,0-.531.616.88.88,0,0,0-.7-.044.907.907,0,0,0-.528.629.859.859,0,0,0-.7-.059.881.881,0,0,0-.522.643.834.834,0,0,0-.708-.073.858.858,0,0,0-.505.665.811.811,0,0,0-.726-.1.786.786,0,0,0-.426.424,1.387,1.387,0,0,0,.015,1.051,1.109,1.109,0,0,0,1.3.811.817.817,0,0,0,.475-.6.87.87,0,0,0,.793.125.823.823,0,0,0,.478-.579.88.88,0,0,0,.788.106.848.848,0,0,0,.494-.561.9.9,0,0,0,.772.087.879.879,0,0,0,.5-.547.922.922,0,0,0,.768.072l.2-.116a1.272,1.272,0,0,1-.1.864h-.01a.7.7,0,1,0,0,1.407.747.747,0,0,0,.341-.09l.047-.021a2.035,2.035,0,0,0,.879-1.263,2.553,2.553,0,0,0-.074-1.466,22.733,22.733,0,0,1,6.1-.888,13.661,13.661,0,0,1,4.924.793c.745-1.153,1.974-1.705,2.869-1.232.879.463,1.12,1.748.63,2.99l1.31,1.146h6.892v-.15c0-1.069-2.471-6.582-14.22-6.906" transform="translate(-1.279 -4.03)" fill="#fff"/><path d="M28.665,50.624H28.55a19.3,19.3,0,0,0-6.808,1.348l-.187.065a1.1,1.1,0,0,1-.056-.96.625.625,0,0,0,.558-.611.632.632,0,0,0-.642-.619l-.082.016-.114.021-.083.033-.038.016-.082.057-.066.056a2.009,2.009,0,0,0-.439,2.172l-.013,0a.748.748,0,0,0-.424.483.711.711,0,0,0-.551-.03.719.719,0,0,0-.421.5.675.675,0,0,0-.555-.045.714.714,0,0,0-.416.507.668.668,0,0,0-.56-.054.7.7,0,0,0-.412.515.653.653,0,0,0-.563-.063.635.635,0,0,0-.356.354,1.123,1.123,0,0,0,.011.854.909.909,0,0,0,1.07.661.671.671,0,0,0,.385-.461.639.639,0,0,0,1.008-.368.7.7,0,0,0,.614.075.686.686,0,0,0,.395-.439.673.673,0,0,0,1.008-.357.756.756,0,0,0,.609.046l.117-.063a1.131,1.131,0,0,1-.051.791.617.617,0,1,0,.3,1.155l.051-.021a1.754,1.754,0,0,0,.75-1.076,2.169,2.169,0,0,0-.076-1.3A17.453,17.453,0,0,1,27,53.218a9.884,9.884,0,0,1,3.237.474,1.943,1.943,0,0,1,2.345-.916,1.928,1.928,0,0,1,.577,2.416l.99.8h5.218v-.151c0-1.067-1.922-5.012-10.7-5.217" transform="translate(-1.687 -5.204)" fill="#fff"/><path d="M28.5,17.043c-2.985,0-5.323-.486-5.323-1.11,0-.766,2.672-1.107,5.323-1.107,2.561,0,5.323.347,5.323,1.107,0,.623-2.338,1.11-5.323,1.11m7.928-9.4a1.175,1.175,0,0,0-1.558.567,1.128,1.128,0,0,0-.107.444l-.634.23.423,1.163c-.5.845-1.062,1.683-1.4,2.164a15.636,15.636,0,0,0-3.56-.6c-.077-.407-.333-1.806-.462-3.17L30,7.563l-.479-.478a1.091,1.091,0,0,0,.094-.447,1.172,1.172,0,0,0-2.345,0,1.127,1.127,0,0,0,.091.447l-.476.476.877.878c-.122,1.308-.391,2.767-.468,3.176a13.4,13.4,0,0,0-3.462.6c-.33-.479-.894-1.313-1.394-2.165l.423-1.162-.636-.23a1.146,1.146,0,0,0-.1-.444,1.179,1.179,0,0,0-1.063-.676A1.171,1.171,0,0,0,20,9.2a1.135,1.135,0,0,0,.272.366l-.228.634,1.17.426a40.813,40.813,0,0,1,1.137,5.3c.226,1.254,2.81,2.164,6.145,2.164,3.376,0,5.9-.888,6.132-2.163.027-.156.065-.4.113-.691a24.02,24.02,0,0,1,1.027-4.609l1.177-.428-.229-.634a1.119,1.119,0,0,0,.271-.366,1.175,1.175,0,0,0-.565-1.557" transform="translate(-2.077 -0.57)" fill="#fff"/><path d="M78.623,17.515c-.021-.373-.966-10.007-.966-10.007a17.124,17.124,0,0,1-.066-1.826h-.046s-.153.857-.439,1.826c0,0-2.706,9.5-2.881,10.007H72.641c-.153-.441-2.859-10.029-2.859-10.029-.264-.947-.441-1.8-.441-1.8H69.3a17.336,17.336,0,0,1-.066,1.8s-.946,9.588-.968,10.029H65.911L67.6,2.383h2.815l2.7,9.7c.265.967.4,1.694.4,1.694h.043a14.242,14.242,0,0,1,.4-1.694l2.793-9.7h2.815l1.694,15.132Z" transform="translate(-6.881 -0.249)" fill="#fff"/><path d="M85.859,5.493h2.684V17.348H85.859ZM87.2,3.448a1.4,1.4,0,0,1-1.473-1.32,1.48,1.48,0,0,1,2.947,0A1.391,1.391,0,0,1,87.2,3.448" transform="translate(-8.949 -0.082)" fill="#fff"/><path d="M98.64,6.973a4.219,4.219,0,0,0-1.188-.154c-2.331,0-3.122,2-3.122,4.509,0,2.683.857,4.443,2.924,4.443a2.575,2.575,0,0,0,1.386-.265ZM97.188,17.488c-3.5,0-5.521-2.243-5.521-6.005,0-3.871,2.112-6.181,5.192-6.181a6.377,6.377,0,0,1,1.781.219V0h2.683V16.629a8.462,8.462,0,0,1-4.135.859" transform="translate(-9.57 0)" fill="#fff"/><path d="M112.12,6.973a4.217,4.217,0,0,0-1.188-.154c-2.332,0-3.124,2-3.124,4.509,0,2.683.857,4.443,2.926,4.443a2.573,2.573,0,0,0,1.385-.265Zm-1.453,10.514c-3.5,0-5.52-2.243-5.52-6.005,0-3.871,2.112-6.181,5.191-6.181a6.381,6.381,0,0,1,1.781.219V0H114.8V16.629a8.463,8.463,0,0,1-4.136.859" transform="translate(-10.977 0)" fill="#fff"/><rect width="2.684" height="17.265" transform="translate(106.922)" fill="#fff"/><path d="M130.176,7.446c-1.562,0-2.639,1.275-2.574,4.113l4.906-.747c0-2.4-.858-3.366-2.332-3.366m-2.42,5.477c.22,2.2,1.274,3.3,3.234,3.3a6.448,6.448,0,0,0,2.99-.66l.638,1.694a8.093,8.093,0,0,1-3.914.835c-3.365,0-5.5-2.177-5.5-6.18,0-3.873,1.955-6.116,5.056-6.116,3.148,0,4.863,2.091,4.752,6.071Z" transform="translate(-13.071 -0.605)" fill="#fff"/><path d="M141.27,18.069a6.017,6.017,0,0,1-3.278-.857l.7-1.717a3.685,3.685,0,0,0,2.22.682,1.674,1.674,0,0,0,1.827-1.67c0-1.011-.53-1.5-1.738-1.957-2.244-.859-2.706-2.09-2.706-3.322A3.5,3.5,0,0,1,142.062,5.8a5.448,5.448,0,0,1,3.078.836l-.659,1.562a3.141,3.141,0,0,0-1.891-.659A1.549,1.549,0,0,0,140.9,9.1c0,.967.726,1.452,1.759,1.87,2.31.924,2.837,2.111,2.837,3.5,0,1.935-1.627,3.607-4.222,3.607" transform="translate(-14.406 -0.605)" fill="#fff"/><path d="M153.473,7.446c-1.564,0-2.642,1.275-2.575,4.113l4.9-.747c0-2.4-.855-3.366-2.329-3.366m-2.42,5.477c.219,2.2,1.276,3.3,3.231,3.3a6.466,6.466,0,0,0,2.992-.66l.638,1.694a8.1,8.1,0,0,1-3.914.835c-3.367,0-5.5-2.177-5.5-6.18,0-3.873,1.957-6.116,5.058-6.116,3.144,0,4.86,2.091,4.751,6.071Z" transform="translate(-15.503 -0.605)" fill="#fff"/><path d="M167.814,17.9l-2.222-4.311h-.045L163.283,17.9h-2.726l3.67-6.138-3.3-5.718h2.817l2,3.871h.044l2.089-3.871h2.529l-3.366,5.542,3.719,6.313Z" transform="translate(-16.762 -0.631)" fill="#fff"/><path d="M71.517,41.652c-2.97,0-4.993-1.892-4.993-4.641V26.277h2.792V36.989a2.286,2.286,0,0,0,2.31,2.507,2.258,2.258,0,0,0,2.288-2.507V26.277h2.6V37.011c0,2.75-2.023,4.641-4.993,4.641" transform="translate(-6.945 -2.743)" fill="#fff"/><path d="M87.675,41.766v-8.4c0-.967-.439-1.979-2.133-1.979a4.446,4.446,0,0,0-1.848.331v10.05H81.013V30.548a10.9,10.9,0,0,1,4.639-.857c3.541,0,4.707,1.715,4.707,3.629v8.446Z" transform="translate(-8.457 -3.099)" fill="#fff"/><path d="M94.722,29.389H97.4V41.243H94.722Zm1.342-2.046a1.338,1.338,0,1,1,1.473-1.319,1.4,1.4,0,0,1-1.473,1.319" transform="translate(-9.875 -2.576)" fill="#fff"/><path d="M106.364,41.791h-2.552l-3.87-11.854h2.86l2.087,7.653a8.456,8.456,0,0,1,.287,1.629h.043a10.425,10.425,0,0,1,.308-1.629l2.135-7.653h2.506Z" transform="translate(-10.434 -3.125)" fill="#fff"/><path d="M117.6,31.342c-1.562,0-2.639,1.274-2.571,4.112l4.9-.747c0-2.4-.856-3.365-2.332-3.365m-2.418,5.476c.219,2.2,1.276,3.3,3.232,3.3a6.466,6.466,0,0,0,2.991-.661l.639,1.693a8.09,8.09,0,0,1-3.915.837c-3.367,0-5.5-2.178-5.5-6.182,0-3.872,1.958-6.114,5.06-6.114,3.143,0,4.86,2.091,4.75,6.071Z" transform="translate(-11.758 -3.099)" fill="#fff"/><path d="M131.5,31.672a3.226,3.226,0,0,0-2.505.089V41.767h-2.684V30.549c1.231-.592,2.726-.922,5.718-.834Z" transform="translate(-13.186 -3.1)" fill="#fff"/><path d="M137.123,41.964a6.02,6.02,0,0,1-3.279-.858l.706-1.715a3.694,3.694,0,0,0,2.221.682A1.674,1.674,0,0,0,138.6,38.4c0-1.01-.528-1.5-1.737-1.958-2.244-.858-2.707-2.089-2.707-3.321a3.5,3.5,0,0,1,3.762-3.431,5.46,5.46,0,0,1,3.079.835l-.66,1.564a3.132,3.132,0,0,0-1.891-.66,1.551,1.551,0,0,0-1.7,1.56c0,.969.727,1.453,1.76,1.871,2.31.923,2.837,2.112,2.837,3.5,0,1.935-1.626,3.607-4.222,3.607" transform="translate(-13.973 -3.099)" fill="#fff"/><path d="M144.929,29.389h2.684V41.243h-2.684Zm1.343-2.046a1.338,1.338,0,1,1,1.471-1.319,1.39,1.39,0,0,1-1.471,1.319" transform="translate(-15.116 -2.576)" fill="#fff"/><path d="M155.091,41.531a2.994,2.994,0,0,1-3.253-3.211V31.26h-1.32V29.544h1.32V26.927l2.682-.749v3.366h1.935V31.26H154.52v6.929c0,.924.373,1.54,1.3,1.54a2.058,2.058,0,0,0,.638-.11V41.29a3.54,3.54,0,0,1-1.365.241" transform="translate(-15.714 -2.733)" fill="#fff"/><path d="M163.388,46.521H160.55l1.934-4.73-3.914-11.854h2.859l2.046,7.677a7.424,7.424,0,0,1,.242,1.693h.044a10.314,10.314,0,0,1,.33-1.693l2.2-7.677H168.8Z" transform="translate(-16.554 -3.125)" fill="#fff"/><path d="M70.544,52.048a4.6,4.6,0,0,0-1.869.31v12.25a5.436,5.436,0,0,0,1.891.285c3.057,0,4.224-2.264,4.224-6.533,0-4.157-1.363-6.312-4.245-6.312m.133,14.276a8.6,8.6,0,0,1-4-.816V51.586a8.433,8.433,0,0,1,3.916-.834c4.179,0,6.291,2.947,6.291,7.631,0,4.663-1.914,7.941-6.2,7.941" transform="translate(-6.96 -5.298)" fill="#fff"/><path d="M85.335,66.753c-2.97,0-4.2-1.5-4.2-3.872V54.656H83.07v8.291a2.211,2.211,0,0,0,2.374,2.442,3.973,3.973,0,0,0,2.133-.484V54.656h1.935v11.15a8.379,8.379,0,0,1-4.177.947" transform="translate(-8.47 -5.706)" fill="#fff"/><path d="M97.825,55.015a3.557,3.557,0,0,0-1.935.461v9.083a3.917,3.917,0,0,0,1.672.287c2.44,0,3.408-2.045,3.408-5.038,0-2.595-.9-4.793-3.144-4.793M97.517,66.1a6.665,6.665,0,0,1-3.541-.837V48.615H95.89v5.806a4.777,4.777,0,0,1,2.418-.551c2.729,0,4.6,2.288,4.6,5.873,0,3.8-1.868,6.356-5.388,6.356" transform="translate(-9.811 -5.075)" fill="#fff"/><path d="M112.871,59.756c-2.991.373-4.773,1.011-4.773,3.408,0,1.716,1.055,2.42,2.816,2.42a4.307,4.307,0,0,0,1.957-.4Zm-2.109,6.95c-3.079,0-4.511-1.342-4.511-3.5,0-3.143,2.948-4.068,6.62-4.442v-.727c0-1.823-1.1-2.352-2.617-2.352a6.606,6.606,0,0,0-2.859.747l-.462-1.144a7.84,7.84,0,0,1,3.628-.879c2.2,0,4.135.948,4.135,3.85v7.608a8.281,8.281,0,0,1-3.934.837" transform="translate(-11.092 -5.68)" fill="#fff"/><path d="M119.293,54.14h1.935V65.994h-1.935Zm.971-2.286a1.069,1.069,0,1,1,1.119-1.057,1.107,1.107,0,0,1-1.119,1.057" transform="translate(-12.435 -5.19)" fill="#fff"/></g></svg>