<svg xmlns="http://www.w3.org/2000/svg" xmlns:xlink="http://www.w3.org/1999/xlink" width="66" height="66" viewBox="0 0 66 66">
  <defs>
    <clipPath id="clip-path">
      <rect id="Rectangle_36762" data-name="Rectangle 36762" width="66" height="66" transform="translate(18 5)" fill="#fff" opacity="0.43"/>
    </clipPath>
    <clipPath id="clip-path-2">
      <rect id="Rectangle_36761" data-name="Rectangle 36761" width="57" height="66" transform="translate(0 -17)" fill="#fff" opacity="0.43"/>
    </clipPath>
    <clipPath id="clip-path-3">
      <rect id="Rectangle_13543" data-name="Rectangle 13543" width="161.449" height="64" fill="none"/>
    </clipPath>
  </defs>
  <g id="fav-icon" transform="translate(-18 -5)" clip-path="url(#clip-path)">
    <g id="Mask_Group_25965" data-name="Mask Group 25965" transform="translate(22.5 22)" clip-path="url(#clip-path-2)">
      <g id="Group_31216" data-name="Group 31216" transform="translate(1 -16)">
        <g id="Group_31215" data-name="Group 31215" clip-path="url(#clip-path-3)">
          <path id="Path_43177" data-name="Path 43177" d="M55.376,2.4,27.527.268.194,2.3S0,8.28,0,15.688C0,53.634,27.7,63.741,27.7,63.741s27.873-10.01,27.873-47.958c0-7.406-.193-13.385-.193-13.385" transform="translate(0 -0.016)" fill="#e30a0a"/>
          <path id="Path_43178" data-name="Path 43178" d="M29.2,26.043A34.109,34.109,0,0,0,16.871,28.63a2.048,2.048,0,0,1-.027-1.444.866.866,0,1,0-.081-1.73l-.126.022-.146.029-.138.054-.054.024-.1.073-.1.081a2.975,2.975,0,0,0-.671,3.154,1.14,1.14,0,0,0-.64.779,1.077,1.077,0,0,0-.881-.073,1.126,1.126,0,0,0-.654.807,1.06,1.06,0,0,0-.888-.093,1.092,1.092,0,0,0-.644.826,1.041,1.041,0,0,0-.9-.112,1.078,1.078,0,0,0-.627.853,1,1,0,0,0-.915-.139,1.361,1.361,0,0,0-.5,1.806c.3.766,1.007,1.225,1.59,1a1.019,1.019,0,0,0,.592-.768,1.067,1.067,0,0,0,1,.175,1.039,1.039,0,0,0,.6-.739,1.089,1.089,0,0,0,.982.143,1.06,1.06,0,0,0,.615-.72,1.108,1.108,0,0,0,.975.126,1.091,1.091,0,0,0,.621-.7,1.14,1.14,0,0,0,.969.105l.154-.079a1.8,1.8,0,0,1-.085,1.391l-.031,0a.874.874,0,1,0,.423,1.621l.059-.023a2.563,2.563,0,0,0,1.11-1.6,3.722,3.722,0,0,0-.163-2.12,28.782,28.782,0,0,1,7.526-1.035,21.2,21.2,0,0,1,7.816,1.338c.815-1.314,2.2-1.959,3.2-1.429,1.026.545,1.263,2.114.572,3.558l1.514,1.422H47.8v-.158c0-1.4-3.233-8.585-18.6-9.01" transform="translate(-0.528 -1.554)" fill="#fff"/>
          <path id="Path_43179" data-name="Path 43179" d="M29.312,39.213l-.266,0a33.568,33.568,0,0,0-9.765,2.067,1.7,1.7,0,0,1-.054-1.2.737.737,0,0,0-.084-1.471l-.107.017-.126.025-.109.043-.053.022-.09.067-.072.063a2.453,2.453,0,0,0-.534,2.715l-.091.026a.972.972,0,0,0-.557.646.922.922,0,0,0-.732-.046.951.951,0,0,0-.554.659.9.9,0,0,0-.734-.062.923.923,0,0,0-.547.674.874.874,0,0,0-.743-.076.9.9,0,0,0-.53.7.85.85,0,0,0-.761-.1.824.824,0,0,0-.447.444,1.454,1.454,0,0,0,.016,1.1,1.162,1.162,0,0,0,1.359.85.857.857,0,0,0,.5-.631.912.912,0,0,0,.831.131.863.863,0,0,0,.5-.607.922.922,0,0,0,.826.111.889.889,0,0,0,.518-.588.941.941,0,0,0,.809.091.921.921,0,0,0,.524-.574.967.967,0,0,0,.806.075l.212-.121a1.334,1.334,0,0,1-.1.906h-.01a.738.738,0,1,0,0,1.475.783.783,0,0,0,.358-.094l.05-.022a2.134,2.134,0,0,0,.922-1.324,2.677,2.677,0,0,0-.078-1.537,23.832,23.832,0,0,1,6.4-.931,14.322,14.322,0,0,1,5.162.831c.781-1.208,2.069-1.788,3.007-1.292.921.485,1.175,1.833.66,3.135l1.374,1.2h7.225v-.157c0-1.121-2.59-6.9-14.907-7.24" transform="translate(-0.748 -2.358)" fill="#fff"/>
          <path id="Path_43180" data-name="Path 43180" d="M29.27,50.662h-.121a20.234,20.234,0,0,0-7.138,1.413l-.2.069a1.152,1.152,0,0,1-.059-1.007.655.655,0,0,0,.585-.64.663.663,0,0,0-.673-.649l-.086.017-.119.023-.087.035-.039.017L21.25,50l-.069.058a2.106,2.106,0,0,0-.46,2.277l-.013,0a.784.784,0,0,0-.444.506.746.746,0,0,0-.577-.032.754.754,0,0,0-.441.521.707.707,0,0,0-.582-.047.749.749,0,0,0-.437.531.7.7,0,0,0-.587-.056.739.739,0,0,0-.432.54.685.685,0,0,0-.591-.066.666.666,0,0,0-.373.371,1.178,1.178,0,0,0,.011.895.953.953,0,0,0,1.122.693.7.7,0,0,0,.4-.484.67.67,0,0,0,1.056-.386.737.737,0,0,0,.644.079.72.72,0,0,0,.414-.46.705.705,0,0,0,1.057-.375.792.792,0,0,0,.638.048l.123-.066a1.186,1.186,0,0,1-.054.829.646.646,0,1,0,.315,1.211l.054-.023a1.839,1.839,0,0,0,.786-1.128,2.274,2.274,0,0,0-.08-1.366,18.3,18.3,0,0,1,4.792-.692,10.362,10.362,0,0,1,3.393.5,2.037,2.037,0,0,1,2.458-.961,2.021,2.021,0,0,1,.6,2.533l1.038.839h5.47v-.159c0-1.118-2.015-5.254-11.221-5.469" transform="translate(-0.987 -3.044)" fill="#fff"/>
          <path id="Path_43181" data-name="Path 43181" d="M28.911,17.6c-3.129,0-5.58-.51-5.58-1.163,0-.8,2.8-1.161,5.58-1.161,2.685,0,5.58.364,5.58,1.161,0,.653-2.452,1.163-5.58,1.163m8.311-9.857a1.231,1.231,0,0,0-1.634.594,1.182,1.182,0,0,0-.112.466l-.665.241.443,1.22c-.521.885-1.114,1.764-1.464,2.268A16.392,16.392,0,0,0,30.06,11.9c-.081-.426-.349-1.894-.484-3.324l.918-.915-.5-.5a1.144,1.144,0,0,0,.1-.469,1.229,1.229,0,0,0-2.458,0,1.182,1.182,0,0,0,.1.469l-.5.5.919.92c-.128,1.371-.41,2.9-.49,3.329a14.044,14.044,0,0,0-3.629.624c-.346-.5-.937-1.376-1.461-2.269l.443-1.219-.667-.241a1.2,1.2,0,0,0-.109-.466,1.236,1.236,0,0,0-1.114-.709,1.228,1.228,0,0,0-1.114,1.747,1.19,1.19,0,0,0,.285.384l-.239.665,1.226.447a42.787,42.787,0,0,1,1.192,5.557c.237,1.314,2.946,2.268,6.442,2.268,3.54,0,6.183-.931,6.429-2.268.028-.163.069-.416.118-.725a25.183,25.183,0,0,1,1.077-4.832l1.234-.449-.24-.665a1.174,1.174,0,0,0,.284-.384,1.232,1.232,0,0,0-.592-1.633" transform="translate(-1.215 -0.333)" fill="#fff"/>
          <path id="Path_43182" data-name="Path 43182" d="M79.238,18.247c-.023-.392-1.013-10.491-1.013-10.491a17.95,17.95,0,0,1-.069-1.914h-.048s-.161.9-.46,1.914c0,0-2.836,9.96-3.021,10.491H72.966c-.161-.462-3-10.514-3-10.514-.277-.992-.462-1.891-.462-1.891h-.045a18.172,18.172,0,0,1-.069,1.891S68.4,17.785,68.378,18.247H65.911L67.687,2.383h2.951l2.835,10.169c.278,1.014.417,1.776.417,1.776h.045a14.931,14.931,0,0,1,.416-1.776L77.279,2.383H80.23l1.776,15.864Z" transform="translate(-4.025 -0.145)" fill="#fff"/>
          <path id="Path_43183" data-name="Path 43183" d="M85.865,5.721h2.814V18.15H85.865Zm1.406-2.145a1.473,1.473,0,0,1-1.545-1.384,1.551,1.551,0,0,1,3.089,0,1.458,1.458,0,0,1-1.545,1.384" transform="translate(-5.236 -0.048)" fill="#fff"/>
          <path id="Path_43184" data-name="Path 43184" d="M98.977,7.311a4.423,4.423,0,0,0-1.246-.161c-2.444,0-3.273,2.1-3.273,4.727,0,2.813.9,4.658,3.066,4.658a2.7,2.7,0,0,0,1.453-.278ZM97.455,18.334c-3.667,0-5.788-2.352-5.788-6.3,0-4.058,2.214-6.48,5.443-6.48a6.685,6.685,0,0,1,1.868.23V0h2.813V17.433a8.871,8.871,0,0,1-4.335.9" transform="translate(-5.598 0)" fill="#fff"/>
          <path id="Path_43185" data-name="Path 43185" d="M112.458,7.311a4.421,4.421,0,0,0-1.245-.161c-2.445,0-3.275,2.1-3.275,4.727,0,2.813.9,4.658,3.067,4.658a2.7,2.7,0,0,0,1.453-.278Zm-1.523,11.023c-3.665,0-5.787-2.352-5.787-6.3,0-4.058,2.214-6.48,5.442-6.48a6.69,6.69,0,0,1,1.868.23V0h2.813V17.433a8.873,8.873,0,0,1-4.336.9" transform="translate(-6.422 0)" fill="#fff"/>
          <rect id="Rectangle_13542" data-name="Rectangle 13542" width="2.814" height="18.101" transform="translate(112.094)" fill="#fff"/>
          <path id="Path_43186" data-name="Path 43186" d="M130.416,7.525c-1.637,0-2.767,1.337-2.7,4.312l5.143-.783c0-2.514-.9-3.528-2.445-3.528m-2.537,5.742c.231,2.307,1.336,3.459,3.39,3.459a6.759,6.759,0,0,0,3.134-.692l.669,1.776a8.484,8.484,0,0,1-4.1.875c-3.528,0-5.763-2.283-5.763-6.479,0-4.06,2.05-6.412,5.3-6.412,3.3,0,5.1,2.192,4.982,6.365Z" transform="translate(-7.647 -0.354)" fill="#fff"/>
          <path id="Path_43187" data-name="Path 43187" d="M141.428,18.663a6.308,6.308,0,0,1-3.436-.9l.739-1.8a3.864,3.864,0,0,0,2.328.715,1.755,1.755,0,0,0,1.915-1.751c0-1.06-.556-1.569-1.822-2.052-2.352-.9-2.837-2.191-2.837-3.482a3.665,3.665,0,0,1,3.944-3.6,5.712,5.712,0,0,1,3.227.876l-.691,1.637a3.293,3.293,0,0,0-1.982-.691,1.624,1.624,0,0,0-1.776,1.637c0,1.014.761,1.522,1.844,1.96,2.421.969,2.975,2.213,2.975,3.667,0,2.028-1.706,3.781-4.426,3.781" transform="translate(-8.428 -0.354)" fill="#fff"/>
          <path id="Path_43188" data-name="Path 43188" d="M153.714,7.525c-1.639,0-2.77,1.337-2.7,4.312l5.142-.783c0-2.514-.9-3.528-2.442-3.528m-2.537,5.742c.229,2.307,1.338,3.459,3.388,3.459a6.779,6.779,0,0,0,3.137-.692l.668,1.776a8.492,8.492,0,0,1-4.1.875c-3.53,0-5.765-2.283-5.765-6.479,0-4.06,2.052-6.412,5.3-6.412,3.3,0,5.1,2.192,4.981,6.365Z" transform="translate(-9.07 -0.354)" fill="#fff"/>
          <path id="Path_43189" data-name="Path 43189" d="M168.166,18.471l-2.329-4.52h-.047l-2.375,4.52h-2.858l3.848-6.434-3.459-5.994H163.9L166,10.1h.046l2.19-4.058h2.652l-3.528,5.81,3.9,6.618Z" transform="translate(-9.806 -0.369)" fill="#fff"/>
          <path id="Path_43190" data-name="Path 43190" d="M71.759,42.4c-3.113,0-5.234-1.983-5.234-4.866V26.277h2.928v11.23a2.4,2.4,0,0,0,2.421,2.628,2.367,2.367,0,0,0,2.4-2.628V26.277h2.721V37.53c0,2.883-2.121,4.866-5.235,4.866" transform="translate(-4.063 -1.605)" fill="#fff"/>
          <path id="Path_43191" data-name="Path 43191" d="M88,42.35V33.542c0-1.014-.46-2.075-2.236-2.075a4.661,4.661,0,0,0-1.937.347V42.35H81.013V30.59a11.426,11.426,0,0,1,4.864-.9c3.713,0,4.935,1.8,4.935,3.8V42.35Z" transform="translate(-4.948 -1.813)" fill="#fff"/>
          <path id="Path_43192" data-name="Path 43192" d="M94.728,29.617h2.813V42.045H94.728Zm1.407-2.145a1.4,1.4,0,1,1,1.545-1.383,1.472,1.472,0,0,1-1.545,1.383" transform="translate(-5.777 -1.507)" fill="#fff"/>
          <path id="Path_43193" data-name="Path 43193" d="M106.675,42.365H104L99.943,29.937h3l2.188,8.023a8.866,8.866,0,0,1,.3,1.708h.045a10.93,10.93,0,0,1,.323-1.708l2.238-8.023h2.627Z" transform="translate(-6.104 -1.828)" fill="#fff"/>
          <path id="Path_43194" data-name="Path 43194" d="M117.841,31.421c-1.638,0-2.767,1.336-2.7,4.311l5.141-.783c0-2.514-.9-3.528-2.445-3.528m-2.535,5.741c.23,2.307,1.338,3.461,3.389,3.461a6.779,6.779,0,0,0,3.136-.693L122.5,41.7a8.481,8.481,0,0,1-4.1.878c-3.53,0-5.765-2.283-5.765-6.481,0-4.059,2.052-6.41,5.3-6.41,3.295,0,5.095,2.192,4.98,6.365Z" transform="translate(-6.879 -1.813)" fill="#fff"/>
          <path id="Path_43195" data-name="Path 43195" d="M131.749,31.768a3.382,3.382,0,0,0-2.626.093V42.351h-2.814V30.59c1.291-.621,2.858-.967,5.994-.874Z" transform="translate(-7.714 -1.814)" fill="#fff"/>
          <path id="Path_43196" data-name="Path 43196" d="M137.281,42.558a6.311,6.311,0,0,1-3.437-.9l.74-1.8a3.873,3.873,0,0,0,2.329.715,1.754,1.754,0,0,0,1.914-1.753c0-1.059-.553-1.568-1.822-2.052-2.353-.9-2.837-2.19-2.837-3.482a3.667,3.667,0,0,1,3.944-3.6,5.724,5.724,0,0,1,3.228.875l-.692,1.639a3.283,3.283,0,0,0-1.982-.692,1.626,1.626,0,0,0-1.777,1.636c0,1.016.762,1.523,1.845,1.961,2.421.968,2.974,2.214,2.974,3.667,0,2.029-1.705,3.781-4.426,3.781" transform="translate(-8.174 -1.813)" fill="#fff"/>
          <path id="Path_43197" data-name="Path 43197" d="M144.935,29.617h2.814V42.045h-2.814Zm1.408-2.145a1.4,1.4,0,1,1,1.543-1.383,1.457,1.457,0,0,1-1.543,1.383" transform="translate(-8.843 -1.507)" fill="#fff"/>
          <path id="Path_43198" data-name="Path 43198" d="M155.312,42.274a3.139,3.139,0,0,1-3.41-3.366v-7.4h-1.384v-1.8H151.9V26.963l2.812-.785v3.528h2.029v1.8h-2.029V38.77c0,.969.392,1.614,1.361,1.614a2.158,2.158,0,0,0,.669-.115v1.753a3.712,3.712,0,0,1-1.431.253" transform="translate(-9.193 -1.599)" fill="#fff"/>
          <path id="Path_43199" data-name="Path 43199" d="M163.621,47.323h-2.975l2.028-4.958-4.1-12.428h3l2.144,8.048a7.783,7.783,0,0,1,.254,1.775h.046a10.814,10.814,0,0,1,.346-1.775l2.307-8.048h2.627Z" transform="translate(-9.685 -1.828)" fill="#fff"/>
          <path id="Path_43200" data-name="Path 43200" d="M70.731,52.111a4.825,4.825,0,0,0-1.96.325V65.278a5.7,5.7,0,0,0,1.982.3c3.2,0,4.428-2.374,4.428-6.849,0-4.358-1.429-6.618-4.451-6.618m.139,14.966a9.011,9.011,0,0,1-4.2-.855v-14.6a8.841,8.841,0,0,1,4.1-.874c4.381,0,6.6,3.089,6.6,8,0,4.888-2.006,8.325-6.5,8.325" transform="translate(-4.072 -3.099)" fill="#fff"/>
          <path id="Path_43201" data-name="Path 43201" d="M85.539,67.338c-3.113,0-4.4-1.57-4.4-4.059V54.656h2.03v8.692a2.318,2.318,0,0,0,2.489,2.56A4.166,4.166,0,0,0,87.89,65.4V54.656h2.028v11.69a8.784,8.784,0,0,1-4.379.992" transform="translate(-4.955 -3.338)" fill="#fff"/>
          <path id="Path_43202" data-name="Path 43202" d="M98.012,55.325a3.729,3.729,0,0,0-2.029.484v9.523a4.106,4.106,0,0,0,1.753.3c2.558,0,3.573-2.144,3.573-5.281,0-2.72-.946-5.025-3.3-5.025m-.323,11.621a6.988,6.988,0,0,1-3.713-.877V48.615h2.006V54.7a5.008,5.008,0,0,1,2.535-.577c2.861,0,4.819,2.4,4.819,6.157,0,3.989-1.959,6.664-5.649,6.664" transform="translate(-5.74 -2.969)" fill="#fff"/>
          <path id="Path_43203" data-name="Path 43203" d="M113.192,60.014c-3.136.391-5,1.06-5,3.573,0,1.8,1.106,2.537,2.952,2.537a4.516,4.516,0,0,0,2.052-.415ZM110.98,67.3c-3.228,0-4.729-1.407-4.729-3.667,0-3.295,3.091-4.265,6.941-4.657v-.762c0-1.912-1.153-2.466-2.744-2.466a6.925,6.925,0,0,0-3,.783l-.484-1.2a8.219,8.219,0,0,1,3.8-.922c2.307,0,4.335.993,4.335,4.036v7.976a8.681,8.681,0,0,1-4.125.878" transform="translate(-6.489 -3.323)" fill="#fff"/>
          <path id="Path_43204" data-name="Path 43204" d="M119.3,54.353h2.029V66.781H119.3Zm1.018-2.4a1.12,1.12,0,1,1,1.174-1.108,1.161,1.161,0,0,1-1.174,1.108" transform="translate(-7.275 -3.036)" fill="#fff"/>
        </g>
      </g>
    </g>
  </g>
</svg>
