<svg xmlns="http://www.w3.org/2000/svg" xmlns:xlink="http://www.w3.org/1999/xlink" width="234.192" height="77.158" viewBox="0 0 234.192 77.158">
  <defs>
    <clipPath id="clip-path">
      <rect id="Rectangle_36316" data-name="Rectangle 36316" width="234.192" height="77.158"/>
    </clipPath>
  </defs>
  <g id="logo_slide_03" transform="translate(0 0)">
    <path id="Path_105008" data-name="Path 105008" d="M143.858,70.723a5.156,5.156,0,0,1-5.155-5.157v-9.9a5.158,5.158,0,0,1,5.155-5.155h9.9a5.158,5.158,0,0,1,5.158,5.155v9.9a5.156,5.156,0,0,1-5.158,5.157Z" transform="translate(71.167 3.538)" fill="#a7423b"/>
    <path id="Path_105009" data-name="Path 105009" d="M144.481,49.7A6.6,6.6,0,0,0,137.9,56.29v9.9a6.6,6.6,0,0,0,6.586,6.59h9.9a6.6,6.6,0,0,0,6.59-6.59v-9.9a6.6,6.6,0,0,0-6.59-6.588Zm-3.722,16.489v-9.9a3.728,3.728,0,0,1,3.724-3.724h9.9a3.73,3.73,0,0,1,3.727,3.724v9.9a3.729,3.729,0,0,1-3.727,3.725h-9.9a3.728,3.728,0,0,1-3.724-3.725" transform="translate(70.544 2.914)" fill="#faa634"/>
    <path id="Path_105010" data-name="Path 105010" d="M143.858,56.136a5.156,5.156,0,0,1-5.155-5.155v-9.9a5.156,5.156,0,0,1,5.155-5.155h9.9a5.157,5.157,0,0,1,5.158,5.155v9.9a5.157,5.157,0,0,1-5.158,5.155Z" transform="translate(71.167 -7.715)" fill="#df6d36"/>
    <path id="Path_105011" data-name="Path 105011" d="M144.481,35.117A6.594,6.594,0,0,0,137.9,41.7v9.9a6.6,6.6,0,0,0,6.586,6.588h9.9a6.6,6.6,0,0,0,6.59-6.588V41.7a6.6,6.6,0,0,0-6.59-6.586ZM140.759,51.6V41.7a3.726,3.726,0,0,1,3.724-3.722h9.9a3.728,3.728,0,0,1,3.727,3.722v9.9a3.729,3.729,0,0,1-3.727,3.724h-9.9a3.728,3.728,0,0,1-3.724-3.724" transform="translate(70.544 -8.338)" fill="#faa634"/>
    <path id="Path_105012" data-name="Path 105012" d="M143.858,41.588A5.157,5.157,0,0,1,138.7,36.43v-9.9a5.156,5.156,0,0,1,5.155-5.155h9.9a5.157,5.157,0,0,1,5.158,5.155v9.9a5.158,5.158,0,0,1-5.158,5.159Z" transform="translate(71.167 -18.939)" fill="#ba683d"/>
    <path id="Path_105013" data-name="Path 105013" d="M144.481,20.567a6.594,6.594,0,0,0-6.586,6.588v9.9a6.6,6.6,0,0,0,6.586,6.59h9.9a6.6,6.6,0,0,0,6.59-6.59v-9.9a6.6,6.6,0,0,0-6.59-6.588Zm-3.722,16.487v-9.9a3.728,3.728,0,0,1,3.724-3.724h9.9a3.73,3.73,0,0,1,3.727,3.724v9.9a3.731,3.731,0,0,1-3.727,3.727h-9.9a3.73,3.73,0,0,1-3.724-3.727" transform="translate(70.544 -19.563)" fill="#faa634"/>
    <path id="Path_105014" data-name="Path 105014" d="M24.267,55.434h6.308a8.238,8.238,0,0,0,5.277-1.548A5.045,5.045,0,0,0,37.8,49.718q0-4.374-4.98-5.453a5.238,5.238,0,0,0,3.1-4.8A4.983,4.983,0,0,0,34.1,35.383a8.316,8.316,0,0,0-5.35-1.481H24.267V55.434ZM28.175,35.28q5.944,0,5.943,4.306,0,4.291-5.881,4.292H25.923v-8.6Zm1.484,10q6.367,0,6.363,4.411a3.9,3.9,0,0,1-1.437,3.176,6.443,6.443,0,0,1-4.2,1.189H25.923V45.282h3.736Z" transform="translate(-17.114 -9.275)"/>
    <rect id="Rectangle_36307" data-name="Rectangle 36307" width="1.527" height="21.532" transform="translate(22.814 24.627)"/>
    <path id="Path_105015" data-name="Path 105015" d="M45.518,51.176c-.225,0-.338-.241-.338-.725V41.6a3.251,3.251,0,0,0-1.249-2.758,5.09,5.09,0,0,0-3.173-.95A8.676,8.676,0,0,0,36.181,39.4v1.554a7.246,7.246,0,0,1,4.328-1.807q3.141,0,3.141,2.907v1.805A12.851,12.851,0,0,0,37.541,45.4,4.123,4.123,0,0,0,35.4,49.052,3.392,3.392,0,0,0,36.51,51.6a3.787,3.787,0,0,0,2.707,1.05A7.17,7.17,0,0,0,43.649,50.9a3.958,3.958,0,0,0,.292,1.412.773.773,0,0,0,.726.347,5.959,5.959,0,0,0,2.866-1.472v-1.26a5.486,5.486,0,0,1-2.016,1.252M43.651,49.57A5.925,5.925,0,0,1,39.709,51.4a2.988,2.988,0,0,1-2-.682,2.116,2.116,0,0,1-.8-1.672,3.341,3.341,0,0,1,1.915-2.907,8.677,8.677,0,0,1,4.827-1.031Z" transform="translate(-8.523 -6.197)"/>
    <path id="Path_105016" data-name="Path 105016" d="M49.545,37.892a6.385,6.385,0,0,0-4.939,2.124,7.832,7.832,0,0,0-1.933,5.476,7.134,7.134,0,0,0,1.918,5.189,6.675,6.675,0,0,0,5.022,1.977,12.162,12.162,0,0,0,3.941-.728V50.351a9.994,9.994,0,0,1-3.816.825,5.188,5.188,0,0,1-3.975-1.582,6,6,0,0,1-1.484-4.273,6.182,6.182,0,0,1,1.486-4.3,4.941,4.941,0,0,1,3.858-1.655,9.226,9.226,0,0,1,3.681.9V38.6a12.069,12.069,0,0,0-3.761-.7" transform="translate(-2.914 -6.197)"/>
    <rect id="Rectangle_36311" data-name="Rectangle 36311" width="1.502" height="21.532" transform="translate(52.66 24.627)"/>
    <path id="Path_105017" data-name="Path 105017" d="M58.753,38.048l-7.821,6.744,8.956,7.444h2.073L53,44.785l7.762-6.737Z" transform="translate(3.457 -6.077)"/>
    <path id="Path_105018" data-name="Path 105018" d="M57.142,38.168V52.356h1.506v-9.95q1.8-3.035,4.275-3.035a3.287,3.287,0,0,1,2.712,1.274,5.711,5.711,0,0,1,1.008,3.632v8.08h1.529V42.684a9.495,9.495,0,0,1,2-2.526,3.508,3.508,0,0,1,2.278-.787,3.18,3.18,0,0,1,2.723,1.318,5.994,5.994,0,0,1,.971,3.617v8.05h1.5V43.644a6.178,6.178,0,0,0-1.353-4.179,4.452,4.452,0,0,0-3.554-1.573q-2.926,0-4.921,3.4-1.329-3.4-4.586-3.4a5.174,5.174,0,0,0-4.524,2.774h-.062v-2.5Z" transform="translate(8.247 -6.197)"/>
    <path id="Path_105019" data-name="Path 105019" d="M80.111,51.176c-.229,0-.34-.241-.34-.725V41.6a3.256,3.256,0,0,0-1.249-2.758,5.09,5.09,0,0,0-3.173-.95A8.666,8.666,0,0,0,70.773,39.4v1.554A7.238,7.238,0,0,1,75.1,39.144q3.143,0,3.141,2.907v1.805A12.849,12.849,0,0,0,72.134,45.4a4.121,4.121,0,0,0-2.14,3.656A3.387,3.387,0,0,0,71.1,51.6a3.782,3.782,0,0,0,2.707,1.05A7.169,7.169,0,0,0,78.24,50.9a3.918,3.918,0,0,0,.292,1.412.77.77,0,0,0,.725.347,5.963,5.963,0,0,0,2.868-1.472v-1.26a5.486,5.486,0,0,1-2.014,1.252M78.24,49.57A5.929,5.929,0,0,1,74.3,51.4a2.984,2.984,0,0,1-2-.682,2.118,2.118,0,0,1-.8-1.672,3.343,3.343,0,0,1,1.917-2.907,8.677,8.677,0,0,1,4.827-1.031Z" transform="translate(18.162 -6.197)"/>
    <g id="Group_125521" data-name="Group 125521" transform="translate(0 0)" clip-path="url(#clip-path)">
      <path id="Path_105020" data-name="Path 105020" d="M89.423,38.048H83.738a6.427,6.427,0,0,0-4.464,1.41,4.7,4.7,0,0,0-1.557,3.651,4.65,4.65,0,0,0,.965,2.859,5.266,5.266,0,0,0,2.829,1.844v.062q-2.841.818-2.841,2.314,0,1.48,2.3,2.021v.062q-4.132.662-4.131,3.438a3.152,3.152,0,0,0,1.612,2.755,8.455,8.455,0,0,0,4.585,1.04A8.413,8.413,0,0,0,87.7,58.4a3.671,3.671,0,0,0,.629-5.649Q87.284,51.77,84.28,51.6a10.468,10.468,0,0,1-3.58-.542,1.127,1.127,0,0,1-.577-.99,1.213,1.213,0,0,1,.448-.926,6.146,6.146,0,0,1,2.2-.857,18.738,18.738,0,0,0,2.813-.928,4.543,4.543,0,0,0,1.819-1.506,4.632,4.632,0,0,0,.762-2.808,5.128,5.128,0,0,0-1.956-3.764h3.21V38.048ZM87.921,55.5a2.261,2.261,0,0,1-1.3,1.995,6.916,6.916,0,0,1-3.493.756q-4.836,0-4.834-2.627T83.425,53q4.5,0,4.5,2.5m-1.2-12.43a3.826,3.826,0,0,1-3.791,3.8,3.576,3.576,0,0,1-2.664-1.128A3.785,3.785,0,0,1,79.17,43.01,3.687,3.687,0,0,1,82.9,39.3a3.689,3.689,0,0,1,2.7,1.105,3.591,3.591,0,0,1,1.121,2.663" transform="translate(23.445 -6.077)"/>
    </g>
    <rect id="Rectangle_36317" data-name="Rectangle 36317" width="1.529" height="2.583" transform="translate(114.595 24.625)"/>
    <rect id="Rectangle_36319" data-name="Rectangle 36319" width="1.529" height="14.188" transform="translate(114.595 31.971)"/>
    <path id="Path_105021" data-name="Path 105021" d="M94.2,37.892a6.385,6.385,0,0,0-4.939,2.124,7.816,7.816,0,0,0-1.933,5.476,7.133,7.133,0,0,0,1.917,5.189,6.68,6.68,0,0,0,5.022,1.977,12.154,12.154,0,0,0,3.941-.728V50.351a9.978,9.978,0,0,1-3.814.825,5.2,5.2,0,0,1-3.977-1.582,5.993,5.993,0,0,1-1.483-4.273,6.174,6.174,0,0,1,1.486-4.3,4.939,4.939,0,0,1,3.858-1.655,9.22,9.22,0,0,1,3.681.9V38.6a12.069,12.069,0,0,0-3.761-.7" transform="translate(31.534 -6.197)"/>
    <path id="Path_105022" data-name="Path 105022" d="M105.64,33.9V42.11a9.233,9.233,0,0,0-4.181-1.141,6.833,6.833,0,0,0-5.114,2.1A7.775,7.775,0,0,0,96.381,53.6a6.773,6.773,0,0,0,5.079,2.138,7.032,7.032,0,0,0,4.181-1.385v1.084h1.529V33.9Zm0,19.063a6.546,6.546,0,0,1-3.809,1.293,5.694,5.694,0,0,1-4.227-1.713,5.872,5.872,0,0,1-1.69-4.3A5.728,5.728,0,0,1,97.5,44.083a5.365,5.365,0,0,1,4.025-1.632,7.457,7.457,0,0,1,4.117,1.323Z" transform="translate(36.922 -9.276)" fill="#9d9fa2"/>
    <path id="Path_105023" data-name="Path 105023" d="M106.156,49.526a5.4,5.4,0,0,1-1.7-4.025,6.805,6.805,0,0,1,.044-.739H115.69a6.839,6.839,0,0,0-1.821-5.022,6.306,6.306,0,0,0-9.112.2,7.4,7.4,0,0,0-1.851,5.166,7.6,7.6,0,0,0,2.005,5.422,6.657,6.657,0,0,0,5.068,2.129,8.717,8.717,0,0,0,5.458-1.876V49.071a8.273,8.273,0,0,1-5.274,2.106,5.541,5.541,0,0,1-4.007-1.651m.243-9.061a4.486,4.486,0,0,1,3.019-1.093q3.693,0,4.494,4.163h-9.2a5.3,5.3,0,0,1,1.69-3.07" transform="translate(43.551 -6.198)" fill="#9d9fa2"/>
    <path id="Path_105024" data-name="Path 105024" d="M115.687,37.892a4.833,4.833,0,0,0-3.244,1.136,3.5,3.5,0,0,0-1.339,2.758,3.335,3.335,0,0,0,.717,2.076,7.646,7.646,0,0,0,3.134,1.89,9.127,9.127,0,0,1,2.971,1.585,2.022,2.022,0,0,1,.553,1.366,2.212,2.212,0,0,1-.841,1.78,3.294,3.294,0,0,1-2.159.693,9.93,9.93,0,0,1-4.469-1.3v1.479a8.027,8.027,0,0,0,4.262,1.3,4.956,4.956,0,0,0,3.318-1.136,3.515,3.515,0,0,0,1.346-2.787,3.689,3.689,0,0,0-.742-2.241,7.251,7.251,0,0,0-3.151-1.945A8.942,8.942,0,0,1,113.1,43a1.968,1.968,0,0,1-.537-1.329,2.1,2.1,0,0,1,.877-1.709,3.387,3.387,0,0,1,2.158-.693,7.172,7.172,0,0,1,3.883,1.454V39.1a7.613,7.613,0,0,0-3.794-1.2" transform="translate(49.803 -6.197)" fill="#9d9fa2"/>
    <rect id="Rectangle_36325" data-name="Rectangle 36325" width="1.529" height="2.583" transform="translate(172.122 24.625)" fill="#9d9fa2"/>
    <rect id="Rectangle_36327" data-name="Rectangle 36327" width="1.529" height="14.188" transform="translate(172.122 31.971)" fill="#9d9fa2"/>
    <path id="Path_105025" data-name="Path 105025" d="M131.962,38.048h-5.686a6.435,6.435,0,0,0-4.466,1.41,4.913,4.913,0,0,0-.592,6.51,5.279,5.279,0,0,0,2.829,1.844v.062q-2.841.818-2.84,2.314,0,1.48,2.3,2.021v.062q-4.137.662-4.133,3.438a3.154,3.154,0,0,0,1.614,2.755,10.511,10.511,0,0,0,9.243-.062,3.674,3.674,0,0,0,.629-5.649q-1.044-.983-4.048-1.155a10.478,10.478,0,0,1-3.58-.542,1.123,1.123,0,0,1-.577-.99,1.225,1.225,0,0,1,.448-.926,6.161,6.161,0,0,1,2.2-.857,18.669,18.669,0,0,0,2.813-.928,4.543,4.543,0,0,0,1.819-1.506,4.632,4.632,0,0,0,.763-2.808,5.134,5.134,0,0,0-1.956-3.764h3.21V38.048Zm-1.5,17.452a2.258,2.258,0,0,1-1.3,1.995,6.912,6.912,0,0,1-3.493.756q-4.836,0-4.838-2.627T125.961,53q4.5,0,4.5,2.5m-1.2-12.43a3.82,3.82,0,0,1-3.787,3.8,3.573,3.573,0,0,1-2.664-1.128,3.778,3.778,0,0,1-1.093-2.733,3.684,3.684,0,0,1,3.727-3.708,3.7,3.7,0,0,1,2.7,1.105,3.608,3.608,0,0,1,1.118,2.663" transform="translate(56.259 -6.077)" fill="#9d9fa2"/>
    <path id="Path_105026" data-name="Path 105026" d="M127.314,38.168V52.356h1.5v-9.95q1.823-3.035,4.641-3.035,3.858,0,3.858,4.905v8.08h1.506v-8.65a6.019,6.019,0,0,0-1.437-4.271,4.982,4.982,0,0,0-3.835-1.543,5.353,5.353,0,0,0-4.671,2.744h-.062V38.168Z" transform="translate(62.382 -6.197)" fill="#9d9fa2"/>
  </g>
</svg>
