<svg xmlns="http://www.w3.org/2000/svg" xmlns:xlink="http://www.w3.org/1999/xlink" width="257" height="78" viewBox="0 0 257 78">
  <defs>
    <clipPath id="clip-path">
      <rect id="Rectangle_36753" data-name="Rectangle 36753" width="257" height="78" transform="translate(534 6366)" fill="#fff" opacity="0.43"/>
    </clipPath>
  </defs>
  <g id="logo_slide_02" transform="translate(-534 -6366)" clip-path="url(#clip-path)">
    <g id="Microsoft_logo__2012_" data-name="Microsoft_logo_(2012)" transform="translate(534 6378)">
      <path id="Path_105007" data-name="Path 105007" d="M129.245,13.636V46.517h-5.708v-25.8h-.076l-10.2,25.8h-3.806l-10.428-25.8h-.076v25.8H93.7V13.636h8.22l9.438,24.356h.152l9.971-24.356h7.764Zm4.719,2.512a2.894,2.894,0,0,1,.989-2.283,3.4,3.4,0,0,1,2.36-.913,3.332,3.332,0,0,1,2.436.913,3.164,3.164,0,0,1,.989,2.283,2.894,2.894,0,0,1-.989,2.283,3.457,3.457,0,0,1-2.436.913,3.154,3.154,0,0,1-2.36-.913A3.447,3.447,0,0,1,133.964,16.147Zm6.165,6.774v23.6h-5.556v-23.6h5.556ZM156.95,42.483a6.413,6.413,0,0,0,2.74-.609,12.024,12.024,0,0,0,2.74-1.522v5.176a9.712,9.712,0,0,1-3.045,1.142,18.731,18.731,0,0,1-3.73.381,11.181,11.181,0,0,1-8.449-3.273,11.358,11.358,0,0,1-3.273-8.372,13.431,13.431,0,0,1,3.349-9.362c2.207-2.436,5.328-3.653,9.438-3.653a14.009,14.009,0,0,1,3.121.381,10.371,10.371,0,0,1,2.512.913v5.328a11.057,11.057,0,0,0-2.588-1.446,8.745,8.745,0,0,0-2.74-.533,6.942,6.942,0,0,0-5.328,2.131,7.984,7.984,0,0,0-1.979,5.785A7.616,7.616,0,0,0,151.7,40.5,7.119,7.119,0,0,0,156.95,42.483Zm21.236-19.942a6.152,6.152,0,0,1,1.218.076,7.9,7.9,0,0,1,.913.228v5.632a3.417,3.417,0,0,0-1.294-.609,7.809,7.809,0,0,0-2.055-.3,4.256,4.256,0,0,0-3.425,1.751,8.4,8.4,0,0,0-1.446,5.328V46.517h-5.556v-23.6H172.1v3.73h.076a7.169,7.169,0,0,1,2.283-3.045A6.706,6.706,0,0,1,178.186,22.541ZM180.622,35.1a13.148,13.148,0,0,1,3.273-9.286q3.311-3.425,9.134-3.425c3.653,0,6.546,1.066,8.6,3.273a12.567,12.567,0,0,1,3.121,8.905,12.89,12.89,0,0,1-3.273,9.134,11.871,11.871,0,0,1-8.981,3.425,11.725,11.725,0,0,1-8.677-3.2A12.215,12.215,0,0,1,180.622,35.1Zm5.785-.228a8.3,8.3,0,0,0,1.674,5.632,6.084,6.084,0,0,0,4.8,1.979,5.54,5.54,0,0,0,4.643-1.979c1.066-1.294,1.6-3.2,1.6-5.785a9.179,9.179,0,0,0-1.6-5.785,6.353,6.353,0,0,0-9.286.076A8.338,8.338,0,0,0,186.406,34.871Zm26.64-5.709a2.416,2.416,0,0,0,.761,1.9,13.019,13.019,0,0,0,3.349,1.674,11.606,11.606,0,0,1,4.643,2.968,6.166,6.166,0,0,1,1.37,4.034,6.391,6.391,0,0,1-2.588,5.328c-1.675,1.37-4.034,1.979-6.926,1.979a18.033,18.033,0,0,1-3.273-.381,13.171,13.171,0,0,1-3.045-.913v-5.48a13.3,13.3,0,0,0,3.273,1.674,10.26,10.26,0,0,0,3.2.609,5.116,5.116,0,0,0,2.74-.533,1.868,1.868,0,0,0,.913-1.751,2.68,2.68,0,0,0-.913-1.979,14.056,14.056,0,0,0-3.5-1.827,10.468,10.468,0,0,1-4.338-2.892,6.471,6.471,0,0,1-1.294-4.11,6.488,6.488,0,0,1,2.512-5.252,10.054,10.054,0,0,1,6.546-2.055,12.068,12.068,0,0,1,2.74.3c.99.228,1.9.457,2.588.685v5.4a16.4,16.4,0,0,0-2.588-1.294,8.055,8.055,0,0,0-2.892-.533,4.244,4.244,0,0,0-2.436.609A2.431,2.431,0,0,0,213.046,29.163ZM225.529,35.1a13.148,13.148,0,0,1,3.273-9.286q3.311-3.425,9.134-3.425c3.653,0,6.546,1.066,8.6,3.273a12.567,12.567,0,0,1,3.121,8.905,12.89,12.89,0,0,1-3.273,9.134,11.872,11.872,0,0,1-8.981,3.425,11.725,11.725,0,0,1-8.677-3.2A12.545,12.545,0,0,1,225.529,35.1Zm5.785-.228a8.3,8.3,0,0,0,1.674,5.632,6.084,6.084,0,0,0,4.8,1.979,5.54,5.54,0,0,0,4.643-1.979c1.066-1.294,1.6-3.2,1.6-5.785a9.18,9.18,0,0,0-1.6-5.785,6.353,6.353,0,0,0-9.286.076A8.716,8.716,0,0,0,231.313,34.871Zm36.839-7.383h-8.3V46.517h-5.632V27.488h-3.958V22.921h3.958V19.649a8.208,8.208,0,0,1,8.6-8.449c.685,0,1.294.076,1.827.076a3.635,3.635,0,0,1,1.37.3v4.8a9.325,9.325,0,0,0-.989-.381,5.06,5.06,0,0,0-1.6-.228,3.435,3.435,0,0,0-2.664,1.066,4.853,4.853,0,0,0-.913,3.2v2.816h8.3V17.517l5.556-1.674v7h5.632v4.567h-5.632V38.449a5.066,5.066,0,0,0,.761,3.045,3.169,3.169,0,0,0,2.512.913,3.756,3.756,0,0,0,1.142-.228,3.977,3.977,0,0,0,1.142-.533v4.567a5.308,5.308,0,0,1-1.751.533,13.19,13.19,0,0,1-2.436.228q-3.539,0-5.252-1.827c-1.142-1.218-1.751-3.121-1.751-5.632l.076-12.026Z" transform="translate(-22.382 -2.675)" fill="#737373"/>
      <g id="Group_125506" data-name="Group 125506" transform="translate(0 0.001)">
        <rect id="Rectangle_36296" data-name="Rectangle 36296" width="26.031" height="26.031" fill="#f25022"/>
        <rect id="Rectangle_36297" data-name="Rectangle 36297" width="26.031" height="26.031" transform="translate(28.771)" fill="#7fba00"/>
        <rect id="Rectangle_36298" data-name="Rectangle 36298" width="26.031" height="26.031" transform="translate(0 28.771)" fill="#00a4ef"/>
        <rect id="Rectangle_36299" data-name="Rectangle 36299" width="26.031" height="26.031" transform="translate(28.771 28.771)" fill="#ffb900"/>
      </g>
    </g>
  </g>
</svg>
