<svg xmlns="http://www.w3.org/2000/svg" xmlns:xlink="http://www.w3.org/1999/xlink" width="230" height="78" viewBox="0 0 230 78">
  <defs>
    <clipPath id="clip-path">
      <rect id="Rectangle_36752" data-name="Rectangle 36752" width="230" height="78" transform="translate(202 6369)" fill="#fff" opacity="0.56"/>
    </clipPath>
  </defs>
  <g id="logo_slide_01" transform="translate(-202 -6369)" clip-path="url(#clip-path)">
    <path id="Oracle_logo" d="M99.062,19.413h15.157L106.213,6.484,91.494,29.836H84.8L102.7,1.82a4.266,4.266,0,0,1,6.962-.05l17.951,28.066h-6.693l-3.153-5.221H102.434l-3.342-5.2m69.547,5.2V.278H162.95V27.012A2.745,2.745,0,0,0,163.8,29a2.874,2.874,0,0,0,2.069.865h25.858l3.371-5.221H168.609M74.587,20.269a10,10,0,0,0,0-19.99H49.724V29.836H55.4V5.51H74.239a4.784,4.784,0,0,1,0,9.567H58.217L75.184,29.836h8.245l-11.4-9.567h2.556M14.8,29.836H31.972a14.779,14.779,0,0,0,0-29.548H14.8a14.779,14.779,0,1,0,0,29.548m16.788-5.2H15.174a9.567,9.567,0,0,1,0-19.125h16.41a9.567,9.567,0,1,1,0,19.125m107.9,5.2h17.533l3.322-5.2H139.868a9.567,9.567,0,1,1,0-19.125h16.658L159.887.288H139.48a14.779,14.779,0,1,0,0,29.548m69.487-5.2a9.567,9.567,0,0,1-9.209-6.962h24.286l3.342-5.211H199.758A9.557,9.557,0,0,1,208.967,5.5h16.668L228.967.278H208.579a14.779,14.779,0,0,0,0,29.548h17.533l3.332-5.2H208.957" transform="translate(202.365 6394.004)" fill="#c74634"/>
  </g>
</svg>
