<svg xmlns="http://www.w3.org/2000/svg" width="562.483" height="259.233" viewBox="0 0 562.483 259.233">
  <g id="Group_127388" data-name="Group 127388" transform="translate(-94.489 -286.872)">
    <path id="Path_108305" data-name="Path 108305" d="M186.571,421.96s-38.43-36.247,0-79.044C186.571,342.915,225.46,377.707,186.571,421.96Z" transform="translate(10.523 7.043)" fill="none" stroke="#000" stroke-width="1"/>
    <path id="Path_108306" data-name="Path 108306" d="M198.35,452.68s-.786-29.278,31.069-31.128C229.419,421.552,230.957,450.437,198.35,452.68Z" transform="translate(14.571 18.076)" fill="none" stroke="#000" stroke-width="1"/>
    <line id="Line_6861" data-name="Line 6861" y1="120.969" transform="translate(197.019 378.635)" fill="none" stroke="#000" stroke-width="1"/>
    <line id="Line_6862" data-name="Line 6862" y1="31.602" x2="31.442" transform="translate(197.019 455.192)" fill="none" stroke="#000" stroke-width="1"/>
    <path id="Path_108307" data-name="Path 108307" d="M198.35,424.966s-.786-29.278,31.069-31.128C229.419,393.838,230.957,422.723,198.35,424.966Z" transform="translate(14.571 14.188)" fill="none" stroke="#000" stroke-width="1"/>
    <line id="Line_6863" data-name="Line 6863" y1="31.602" x2="31.442" transform="translate(197.019 423.59)" fill="none" stroke="#000" stroke-width="1"/>
    <path id="Path_108308" data-name="Path 108308" d="M174.282,452.68s.786-29.278-31.069-31.128C143.213,421.552,141.676,450.437,174.282,452.68Z" transform="translate(6.834 18.076)" fill="none" stroke="#000" stroke-width="1"/>
    <line id="Line_6864" data-name="Line 6864" x1="31.442" y1="31.602" transform="translate(165.578 455.192)" fill="none" stroke="#000" stroke-width="1"/>
    <path id="Path_108309" data-name="Path 108309" d="M174.282,424.966s.786-29.278-31.069-31.128C143.213,393.838,141.676,422.723,174.282,424.966Z" transform="translate(6.834 14.188)" fill="none" stroke="#000" stroke-width="1"/>
    <line id="Line_6865" data-name="Line 6865" x1="31.442" y1="31.602" transform="translate(165.578 423.59)" fill="none" stroke="#000" stroke-width="1"/>
    <path id="Path_108310" data-name="Path 108310" d="M203.868,518.253h-30.63A21.034,21.034,0,0,1,152.2,497.219v-9.555h72.72l-.023,9.555A21.034,21.034,0,0,1,203.868,518.253Z" transform="translate(8.097 27.352)"/>
    <path id="Path_108311" data-name="Path 108311" d="M224.286,489.579v-15.43H152.7v17.723" transform="translate(8.167 25.455)" fill="none" stroke="#000" stroke-width="1"/>
    <path id="Path_108312" data-name="Path 108312" d="M435.491,376.314c-.174-.906-.769-2.214-.928-3.234a3.7,3.7,0,0,0-2.611-3c-2.581-.741-6.152-.77-6.358-2.627-.243-2.18.927-14.649,1.326-18.768a4.161,4.161,0,0,0-.52-2.443,87.025,87.025,0,0,1-7.06-16.189,25.217,25.217,0,0,1,1.133-18.019,16.392,16.392,0,0,1,.989-1.863" transform="translate(45.416 2.449)" fill="none" stroke="#000" stroke-width="1"/>
    <path id="Path_108313" data-name="Path 108313" d="M419.464,300.728c-4.081,1.962-8.852,2.551-8.99,9.557s3.29,9.365,8.99,10.85,13.1-5.623,13.811-4.912-.491,6.769,4.366,8.024,10.7.437,14.9-6.551c0,0,.673-1.983,2.092-.382s5.223,3.658,4.731,13.7,6.168,11.246,7.642,11.682c0,0-.873-15.886,13.428-12.828,0,0,15.286,4.749,3.6,23.637,0,0,2.347,7.751,17.8,5.9,0,0-2.292-19.343-2.584-38.267S485.936,285.249,467.011,287C452.974,288.292,428.3,296.479,419.464,300.728Z" transform="translate(45.394)"/>
    <path id="Path_108314" data-name="Path 108314" d="M507.28,379.224c-5.387-4.731-16.741-28.969-16.741-28.969" transform="translate(55.566 8.073)" fill="none" stroke="#000" stroke-width="1"/>
    <path id="Path_108315" data-name="Path 108315" d="M494.631,368.426a38.445,38.445,0,0,1-6.338,19.848.413.413,0,0,0-.055.371c.4,1.188,2.53,7.524,3.058,10.031a.429.429,0,0,0,.684.253c4.137-3.175,29.474-22.335,34.687-19.563a.522.522,0,0,1,.086.056c1.774,1.383,60.567,48.219,33.666,161.1a.441.441,0,0,1-.428.339H452.571a.431.431,0,0,1-.429-.517c.677-3.292,4.339-21.619,4.679-34.678a.437.437,0,0,0-.684-.366l-28.494,19a21.468,21.468,0,0,1-30.966-7.978L365.4,456.03a.422.422,0,0,1-.048-.223c.089-1.4,1.352-14.987,16.959-18.812a.455.455,0,0,1,.462.16l32.679,42.139a.433.433,0,0,0,.678.015c3.958-4.793,40.928-49.44,50.926-57.389a.433.433,0,0,0-.09-.73l-63.954-30.536a.42.42,0,0,1-.068-.041l-66.3-48.164a.421.421,0,0,1-.179-.38c.128-1.607,1.227-10.95,9.664-15.513a.454.454,0,0,1,.432,0l66.56,36.834a.5.5,0,0,0,.089.036l34.037,9.973a.42.42,0,0,1,.276.243c.6,1.422,4.571,10.665,7.893,14.59,3.6,4.258,6.332,11.136,16.485,3.384,9.541-7.283,17.443-13.427,21.895-23.374A.433.433,0,0,1,494.631,368.426Z" transform="translate(33.949 4.74)"/>
    <path id="Path_108316" data-name="Path 108316" d="M371.251,447.2h-13.7a4.076,4.076,0,0,1-3.12-1.452l-8.477-10.071a5.653,5.653,0,0,1-1.327-3.64h0a2.96,2.96,0,0,0-2.96-2.96H315.262s.437-7.424,7.315-7.534c5.853-.092,25.461-1.292,33.464-4.54a2.971,2.971,0,0,0,1.335-4.351c-2.929-4.623-8.187-14.586-2.592-19.277l31.874,36.943" transform="translate(30.974 14.122)" fill="none" stroke="#000" stroke-width="1"/>
    <path id="Path_108317" data-name="Path 108317" d="M226.411,417.044l6.551-6.55s10.788-.219,30.57,11.063c15.508,8.844,30.715,15.467,42.943,4.821l-16.012-20.107L283.184,377.3l33.626-27.367,25.474,13.393,27.95,33.626-52.551,43.089-7.715-8.918s-10.772,14.014-33.481,3.242S244.753,416.17,226.411,417.044Z" transform="translate(18.509 8.028)" fill="none" stroke="#000" stroke-width="1"/>
    <path id="Path_108318" data-name="Path 108318" d="M468.858,330.883a12.812,12.812,0,0,0,.473,11.791" transform="translate(52.354 5.355)" fill="none" stroke="#000" stroke-width="1"/>
    <path id="Path_108319" data-name="Path 108319" d="M473.6,337.491s-1.227-4.152-5.958-2.8" transform="translate(52.354 5.851)" fill="none" stroke="#000" stroke-width="1"/>
    <path id="Path_108320" data-name="Path 108320" d="M423.773,333.348s9.025-3.64,17.541,0" transform="translate(46.199 5.474)" fill="none" stroke="#000" stroke-width="1"/>
    <path id="Path_108321" data-name="Path 108321" d="M453.389,362.37s-3.266,12.763-15.638,15.321" transform="translate(48.16 2.614)" fill="none" stroke="#000" stroke-width="1"/>
    <path id="Path_108322" data-name="Path 108322" d="M427.351,341.022s5.316-2.738,10.331,0" transform="translate(46.701 6.607)" fill="none" stroke="#000" stroke-width="1"/>
    <rect id="Rectangle_37065" data-name="Rectangle 37065" width="67.759" height="42.744" transform="matrix(0.771, -0.637, 0.637, 0.771, 309.212, 415.192)"/>
    <path id="Path_108323" data-name="Path 108323" d="M290.564,368.9l-7.388-9.951s-4.258-6.223,1.747-12.227,28.387-22.709,28.387-22.709,9.389-5.131,15.067,1.091l4.439,4.331" transform="translate(26.267 4.112)" fill="none" stroke="#000" stroke-width="1"/>
    <path id="Path_108324" data-name="Path 108324" d="M294.388,364.429l-5.92-7.589s-2.693-3.713,1.274-7.315,25.912-21.508,25.912-21.508,3.821-3.057,7.97,1.091l3.657,4.367" transform="translate(27.09 4.801)" fill="none" stroke="#000" stroke-width="1"/>
    <path id="Path_108325" data-name="Path 108325" d="M341.364,341.667l-31.607-1.092s-.218-6.277,5.513-6.442c3.053-.087,5.78-.081,7.663-.057a5.949,5.949,0,0,0,5.834-4.238,8.326,8.326,0,0,0-.177-4.875" transform="translate(30.202 4.525)" fill="none" stroke="#000" stroke-width="1"/>
    <path id="Path_108326" data-name="Path 108326" d="M318.438,322.754l5.331-2.794a10.323,10.323,0,0,1,9.715.072l16.577,9.455" transform="translate(31.42 3.657)" fill="none" stroke="#000" stroke-width="1"/>
    <path id="Path_108327" data-name="Path 108327" d="M310.867,337.118s-6.682.79-9.029-.739" transform="translate(29.091 6.126)" fill="none" stroke="#000" stroke-width="1"/>
    <path id="Path_108328" data-name="Path 108328" d="M303.45,336.026s11.695-4.462,16.993-7.919" transform="translate(29.317 4.966)" fill="none" stroke="#000" stroke-width="1"/>
    <ellipse id="Ellipse_78313" data-name="Ellipse 78313" cx="2.105" cy="2.863" rx="2.105" ry="2.863" transform="translate(475.842 349.356) rotate(-18.38)" fill="#1a1818"/>
    <line id="Line_6866" data-name="Line 6866" x2="562.483" transform="translate(94.489 545.605)" fill="none" stroke="#000" stroke-width="1"/>
    <line id="Line_6867" data-name="Line 6867" x1="3.494" y1="4.747" transform="translate(324.984 434.407)" fill="none" stroke="#1a1818" stroke-width="1"/>
  </g>
</svg>
