<svg xmlns="http://www.w3.org/2000/svg" width="488.719" height="216.598" viewBox="0 0 488.719 216.598">
  <g id="error" transform="translate(-716 -327)">
    <ellipse id="Ellipse_78311" data-name="Ellipse 78311" cx="5.081" cy="5.081" rx="5.081" ry="5.081" transform="translate(847.342 417.866)" fill="none" stroke="#231f20" stroke-miterlimit="10" stroke-width="1"/>
    <path id="Path_108305" data-name="Path 108305" d="M9.924-40.228V-62.513L65.8-150.545H85.016V-119.7H73.644L38.418-63.951v1.046h79.405v22.678ZM74.167-16.7V-47.024l.523-9.868v-93.653h26.534V-16.7ZM390.743-40.228V-62.513l55.878-88.032h19.214V-119.7H454.463L419.237-63.951v1.046h79.405v22.678ZM454.986-16.7V-47.024l.523-9.868v-93.653h26.534V-16.7Z" transform="translate(706.076 527.653)"/>
    <g id="Group_127383" data-name="Group 127383">
      <g id="Ellipse_78306" data-name="Ellipse 78306" transform="translate(861.859 327)" fill="none" stroke="#e2e2e2" stroke-width="17">
        <circle cx="98.5" cy="98.5" r="98.5" stroke="none"/>
        <circle cx="98.5" cy="98.5" r="90" fill="none"/>
      </g>
      <path id="Path_108303" data-name="Path 108303" d="M20929.857-7815.716s6.563-1.282,9.654,0c3.168.679,8.414,1.341,10.965,7.518,4.609-1.765,14.611-5.1,14.611-5.1l2.92-1.034,2.459,41.53c-.039.053-39.811-1.6-39.811-1.6Z" transform="translate(-19917.141 8180)" fill="#fff"/>
      <g id="Group_127380" data-name="Group 127380" transform="translate(144.949 81.888)">
        <g id="Group_127381" data-name="Group 127381" transform="translate(686.984 362.143)">
          <path id="Path_108295" data-name="Path 108295" d="M3677.024,1614.85a21.859,21.859,0,0,0-12-5.769c-3.346-4.615-7.99-15.606-21.145-15.519a15.689,15.689,0,0,1-5.8-3.317c-2.106-2.193-17.077-16.587-31.328-7.356-1.327,1.846-8.077,10.154,18.866,25.039.4,3.115.173,1.673,1.673,8.942.981,1.673,5.9,7.63,18.1,7.673,1.341-.043,8.784-2.019,14.091,6.75,2.308,3.173,10.962,11.712,27.173-1.731C3678.985,1616.12,3677.024,1614.85,3677.024,1614.85Z" transform="translate(-3605.035 -1579.829)" fill="#fff" stroke="#231f20" stroke-miterlimit="10" stroke-width="1"/>
          <path id="Path_108296" data-name="Path 108296" d="M3610,1588.667s20.25,5.769,35.25,19.385c10.039,7.154,20.827,16.5,44.251,23.077" transform="translate(-3608.281 -1585.608)" fill="#fff" stroke="#231f20" stroke-miterlimit="10" stroke-width="1"/>
        </g>
      </g>
      <path id="Path_108304" data-name="Path 108304" d="M20873.758-7659.539l8.783-7.253,14.584,2.652,12.1,3.48-1.326,8.12-18.646,1.915h-12.883Z" transform="translate(-19917.141 8180)" fill="#fff"/>
      <g id="Group_127379" data-name="Group 127379" transform="translate(-16690.127 5779.104)">
        <path id="Path_108283" data-name="Path 108283" d="M3329,1599" transform="translate(14350.297 -7002.056)" fill="#fff"/>
        <path id="Path_108284" data-name="Path 108284" d="M3220.173,1642.743c6.467.2,16.009,19.917,16.009,19.917l-9.845,18.277,32.131,28.9,7.78-13.843,32.225-3.572s-4.625,6.523-5.534,10.615c-3.143,1.409-23.3,9.926-38.326,18.906-5.573,3.331-9.44,9.283-12.767,11.184-18.946,18.643-35.921,19.1-47.743,18.794-25.917-2.728-20.714-54.816-19.1-64.718,19.2-56.382,43.65-44.863,43.65-44.863s6.29-14.7,8.336-19.855c-13.641-22.431,12.479-38.346,17.025-39.659,16.975-4.547,23.746,7.983,23.746,7.983s2.93-13.54,15.358-11.519c0,0,5.975-1.775,8.968-.206,3.221-1.083,7.957-1.361,10.458.206,3.764.379,7.553,1.263,10.029,6.164l.3.707.5-.17,18.084-5.9" transform="translate(14411.533 -6993.863)" fill="none" stroke="#000" stroke-miterlimit="10" stroke-width="1"/>
        <ellipse id="Ellipse_78307" data-name="Ellipse 78307" cx="22.323" cy="11.923" rx="22.323" ry="11.923" transform="matrix(0.142, -0.99, 0.99, 0.142, 17731.227, -5373.544)" fill="#fff" stroke="#000" stroke-miterlimit="10" stroke-width="1"/>
        <ellipse id="Ellipse_78308" data-name="Ellipse 78308" cx="22.323" cy="11.923" rx="22.323" ry="11.923" transform="matrix(0.142, -0.99, 0.99, 0.142, 17764.57, -5373.544)" fill="none" stroke="#231f20" stroke-miterlimit="10" stroke-width="1"/>
        <path id="Path_108285" data-name="Path 108285" d="M3443.832,1605.6c-12.849-12.274-24.081,1.954-24.081,1.954s5.141,14.2,23.612,3.292" transform="translate(14314.565 -7002.689)" fill="none" stroke="#000" stroke-miterlimit="10" stroke-width="1"/>
        <path id="Path_108292" data-name="Path 108292" d="M3443.832,1605.6c-12.849-12.274-24.081,1.954-24.081,1.954s5.141,14.2,23.612,3.292" transform="translate(14347.739 -7002.689)" fill="none" stroke="#231f20" stroke-miterlimit="10" stroke-width="1"/>
        <circle id="Ellipse_78309" data-name="Ellipse 78309" cx="5.368" cy="5.368" r="5.368" transform="translate(17746.795 -5400.271)"/>
        <circle id="Ellipse_78310" data-name="Ellipse 78310" cx="5.368" cy="5.368" r="5.368" transform="translate(17776.938 -5400.271)" fill="#231f20"/>
        <line id="Line_6855" data-name="Line 6855" x1="22.684" y2="70.081" transform="translate(17710.42 -5371.792)" fill="none" stroke="#000" stroke-miterlimit="10" stroke-width="1"/>
        <line id="Line_6856" data-name="Line 6856" y1="6.11" x2="18.225" transform="translate(17757.221 -5413.117)" fill="none" stroke="#000" stroke-miterlimit="10" stroke-width="1"/>
        <line id="Line_6857" data-name="Line 6857" x2="23.815" y2="0.782" transform="translate(17749.375 -5373.99)" fill="none" stroke="#231f20" stroke-miterlimit="10" stroke-width="1"/>
        <path id="Path_108286" data-name="Path 108286" d="M3261.938,1630.339l5.494-5.279s-6.972-8.412-2.274-11.708c2.5-1.781,6.24-4.888,11.443,1.882,1.478-2.356,6.442-10.433,6.442-10.433s14.777,3.549,16.217,1.352a74.715,74.715,0,0,0,3.458-7.946" transform="translate(14376.703 -7001.744)" fill="none" stroke="#000" stroke-miterlimit="10" stroke-width="1"/>
        <line id="Line_6858" data-name="Line 6858" x1="27.887" y2="64.074" transform="translate(17647.715 -5395.278)" fill="none" stroke="#000" stroke-miterlimit="10" stroke-width="1"/>
        <line id="Line_6859" data-name="Line 6859" y1="17.506" x2="9.978" transform="translate(17684.678 -5414.575)" fill="none" stroke="#000" stroke-miterlimit="10" stroke-width="1"/>
        <path id="Path_108287" data-name="Path 108287" d="M3350.688,1598.819l6.757-12.831s3.8-6.578,6.441-7.2" transform="translate(14341.759 -6994.096)" fill="none" stroke="#000" stroke-miterlimit="10" stroke-width="1"/>
        <path id="Path_108288" data-name="Path 108288" d="M3363.25,1602.605l6.819-14.8s2.366-6.352,6.667-6.471" transform="translate(14337.985 -6995.86)" fill="none" stroke="#000" stroke-miterlimit="10" stroke-width="1"/>
        <path id="Path_108289" data-name="Path 108289" d="M3373.457,1591.5l-8.185,3.107-37.5,106.534" transform="translate(14350.779 -6999.103)" fill="none" stroke="#000" stroke-miterlimit="10" stroke-width="1"/>
        <line id="Line_6860" data-name="Line 6860" x2="36.964" y2="1.544" transform="translate(17705.176 -5373.598)" fill="#fff"/>
        <path id="Path_108290" data-name="Path 108290" d="M17783.219-5344.285l36.965,1.083" transform="translate(-78.043 -28.923)" fill="none" stroke="#231f20" stroke-width="1"/>
      </g>
      <path id="Path_108298" data-name="Path 108298" d="M3793.4,1650.671s-40.611-57.747-54.148-67.171" transform="translate(-2884.039 -1156.928)" fill="none" stroke="#000" stroke-miterlimit="10" stroke-width="1"/>
      <path id="Path_108300" data-name="Path 108300" d="M4227.764,1396s54.4,3.329,80.188,22.106c-6.285,2.817-6.646,3.106-11.559,2.962-3.612,1.084-12.859,5.924-21.961-.65,0,0-4.479-4.84-8.236-5.418-2.022-.072-16.9,1.662-21.961-3.106-3.106-3.973-9.319-13.293-13.726-14.3l-2.926-.488Z" transform="translate(-3270.965 -880.525)" fill="none" stroke="#000" stroke-miterlimit="10" stroke-width="1"/>
      <path id="Path_108297" data-name="Path 108297" d="M3896.5,1630.608s52.413-31.292,116.546-30.629c-1.88,4.313-5.418,12.605-23.442,10.283,0,0-4.009-1.161-10.477,9.122-1.493,1.907-3.456,6.911-19.379,4.921-5.086.332-12.467-.691-21.672,9.924-1.99,1.244-11.694,6.552-21.4,3.981-4.561-.912-8.791-2.675-15.84.694-5.059.55-16.835.384-16.835.384Z" transform="translate(-2923.641 -1118.543)" fill="#fff" stroke="#000" stroke-miterlimit="10" stroke-width="1"/>
      <path id="Path_108291" data-name="Path 108291" d="M3221.346,1683.775c6.467.2,14.835,19.917,14.835,19.917l-9.845,18.277,32.131,28.9,7.78-13.843,32.224-3.807s-7.444,13.557-8.354,17.65c-1.549.694-4.439.594-12.18,4.409a111.4,111.4,0,0,1-12.567,5.4,19.477,19.477,0,0,0-6.9,4.406s-14.194,7.69-16.622,9.077c-18.946,18.642-35.921,19.1-47.743,18.794-25.917-2.728-20.714-54.816-19.1-64.718,19.2-56.382,43.65-44.863,43.65-44.863Z" transform="translate(-2278.594 -1256.08)"/>
    </g>
  </g>
</svg>
