<svg width="225" height="230" viewBox="0 0 225 230" fill="none" xmlns="http://www.w3.org/2000/svg">
<g id="Layer_1" clip-path="url(#clip0_579_5)">
<path id="Vector" d="M134.683 12.3844C133.983 18.4426 130.346 21.0014 123.223 20.1736C116.075 19.3457 113.125 16.0469 113.825 9.97611L118.299 10.4904C118.024 12.9363 118.374 15.7961 123.66 16.4107C128.947 17.0253 129.947 14.2784 130.221 11.8701L130.784 6.94071L122.536 5.98744L122.973 2.22455L135.683 3.69208L134.683 12.3844Z" fill="black"/>
<path id="Vector_2" d="M138.22 14.7296C140.094 9.62464 144.706 8.9724 150.43 11.0922C156.128 13.1994 159.24 16.7114 157.353 21.8164C155.478 26.8963 150.854 27.536 145.156 25.4288C139.432 23.309 136.345 19.8095 138.22 14.7296ZM153.329 20.3238C154.391 17.4264 152.904 15.8334 149.192 14.4537C145.468 13.074 143.294 13.3123 142.231 16.2097C141.169 19.082 142.669 20.675 146.393 22.0547C150.105 23.4219 152.267 23.1836 153.316 20.3113L153.329 20.3238Z" fill="black"/>
<path id="Vector_3" d="M167.488 19.4082L160.327 32.3275L156.591 30.2453L163.752 17.3261L167.488 19.4082ZM170.05 14.7798L168.238 18.0536L164.502 15.9714L166.314 12.6977L170.05 14.7798Z" fill="black"/>
<path id="Vector_4" d="M184.122 39.5899L179.048 45.9868L175.662 43.3277L179.686 38.1725C181.61 35.7016 181.785 33.77 179.023 31.5875C176.761 29.8064 173.412 29.0538 171.413 29.4552L166.326 35.965L162.964 33.3184L172.05 21.6911L175.412 24.3376L173.825 26.3696C176.499 26.3696 179.498 27.2351 182.31 29.4552C185.397 31.8885 187.422 35.2626 184.11 39.5774L184.122 39.5899Z" fill="black"/>
<path id="Vector_5" d="M196.245 52.2709C201.231 49.2983 205.643 50.5275 209.579 57.1627C213.491 63.7854 212.441 68.2883 207.48 71.2485C202.493 74.2212 198.019 73.0045 194.108 66.3818C190.183 59.734 191.246 55.2562 196.257 52.2709H196.245ZM205.18 67.3727C208.23 65.554 208.729 63.1582 206.33 59.1069C203.931 55.0555 201.618 54.328 198.544 56.1593C195.445 58.0031 194.957 60.4239 197.344 64.4502C199.731 68.489 202.106 69.204 205.18 67.3727Z" fill="black"/>
<path id="Vector_6" d="M220.664 93.0982L206.567 97.3503L205.343 93.2487L207.805 92.5087C205.618 90.9659 203.668 88.52 202.631 85.0832C201.506 81.3078 201.781 77.3818 206.967 75.7638L214.778 73.4559L216.015 77.5825L209.767 79.464C206.78 80.3671 205.518 81.8471 206.53 85.2337C207.355 87.9932 209.654 90.552 211.529 91.3798L219.427 88.9966L220.652 93.0982H220.664Z" fill="black"/>
<path id="Vector_7" d="M222.401 114.472L218.84 114.748C219.077 113.318 219.14 112.176 219.04 110.935C218.852 108.539 218.09 105.83 215.865 103.384L207.067 104.074L206.73 99.7963L221.414 98.6424L221.752 102.92L219.265 103.12C221.402 105.165 222.376 107.711 222.589 110.458C222.726 112.214 222.576 113.456 222.401 114.472Z" fill="black"/>
<path id="Vector_8" d="M214.741 154.27L216.965 146.042L203.718 142.442L204.893 138.09L218.14 141.69L220.364 133.462L224.001 134.453L218.377 155.274L214.741 154.283V154.27Z" fill="black"/>
<path id="Vector_9" d="M199.244 166.299L197.307 170.087C194.42 167.491 194.508 163.427 196.994 158.56C199.556 153.556 203.493 150.683 208.305 153.167C213.128 155.65 213.153 160.429 210.429 165.773C207.867 170.777 204.118 173.888 198.157 170.815L205.418 156.629C203.106 155.976 201.394 157.632 200.094 160.166C198.744 162.8 198.407 164.656 199.257 166.312L199.244 166.299ZM207.767 157.996L202.656 167.968C204.83 168.269 206.305 166.663 207.542 164.255C208.879 161.646 209.304 159.551 207.767 157.996Z" fill="black"/>
<path id="Vector_10" d="M184.547 189.127L178.873 184.323L181.648 181.025L183.048 182.204C183.747 179.381 184.985 176.66 187.222 174.001C189.871 170.84 192.545 169.711 195.095 171.868C198.019 174.339 196.232 178.34 193.22 181.928C191.596 183.859 189.796 185.39 188.059 186.443C190.196 188.249 192.683 185.64 193.97 184.098C195.207 182.618 196.595 180.698 197.844 177.801L201.219 178.654C200.031 181.589 198.557 184.198 196.57 186.556C192.608 191.272 188.846 192.677 184.56 189.115L184.547 189.127ZM186.022 184.725C187.347 183.884 188.984 182.605 190.733 180.51C192.795 178.052 193.608 176.221 192.47 175.255C191.283 174.251 190.271 175.255 188.846 176.973C187.347 178.754 185.847 181.677 185.147 183.985L186.022 184.725Z" fill="black"/>
<path id="Vector_11" d="M155.766 210.902L151.279 203.953L154.854 201.595L158.44 207.064C160.152 209.685 161.49 210.752 164.039 209.071C165.914 207.829 167.163 205.722 167.601 204.016C167.438 203.815 167.301 203.615 167.151 203.376L162.664 196.427L166.239 194.069L169.825 199.538C171.538 202.16 172.875 203.226 175.424 201.545C177.486 200.178 178.798 197.795 179.086 196.001L174.324 188.726L177.899 186.368L185.984 198.71L182.41 201.068L181.098 199.061C180.461 201.018 179.211 203.489 176.162 205.496C174.299 206.725 172.187 207.34 170.125 206.236C169.326 208.481 167.826 210.99 164.777 213.009C162.015 214.828 158.74 215.305 155.778 210.877L155.766 210.902Z" fill="black"/>
<path id="Vector_12" d="M136.333 222.893L140.182 223.934L139.17 226.932L135.508 225.414L136.358 228.412L133.271 229.052L132.908 225.929L130.096 228.738L127.997 226.368L131.159 223.922L127.31 222.893L128.322 219.908L132.009 221.426L131.159 218.403L134.221 217.788L134.583 220.911L137.42 218.089L139.494 220.46L136.333 222.881V222.893Z" fill="black"/>
<path id="Vector_13" d="M88.1306 217.449C88.9179 211.404 92.5921 208.895 99.7156 209.836C106.852 210.777 109.751 214.113 108.951 220.184L104.49 219.594C104.802 217.161 104.49 214.276 99.2157 213.586C93.9293 212.896 92.9046 215.618 92.5796 218.026L91.9423 222.956L100.178 224.035L99.6906 227.797L86.9933 226.129L88.1306 217.449Z" fill="black"/>
<path id="Vector_14" d="M84.6064 215.041C82.6443 220.121 78.0328 220.685 72.3466 218.478C66.6853 216.283 63.636 212.721 65.5855 207.653C67.5351 202.598 72.1716 202.034 77.8329 204.241C83.5191 206.449 86.5435 209.986 84.5939 215.041H84.6064ZM69.5972 209.208C68.4849 212.081 69.9596 213.699 73.6338 215.129C77.333 216.571 79.5075 216.358 80.6198 213.486C81.7195 210.626 80.2573 209.008 76.5457 207.578C72.859 206.148 70.6969 206.349 69.5972 209.208Z" fill="black"/>
<path id="Vector_15" d="M52.8008 214.514L54.6629 211.278L58.3621 213.423L56.5 216.659L52.8008 214.514ZM55.4377 209.924L62.7861 197.117L66.4853 199.262L59.1369 212.069L55.4377 209.924Z" fill="black"/>
<path id="Vector_16" d="M39.0787 189.504L44.2401 183.182L47.5769 185.891L43.4778 190.984C41.5157 193.417 41.3033 195.349 44.0527 197.569C46.2897 199.388 49.6265 200.19 51.626 199.814L56.8124 193.379L60.1367 196.076L50.8762 207.566L47.5519 204.869L49.1641 202.862C46.4896 202.824 43.5028 201.909 40.7284 199.651C37.6791 197.18 35.7045 193.768 39.0662 189.504H39.0787Z" fill="black"/>
<path id="Vector_17" d="M27.1813 176.647C22.1574 179.545 17.7584 178.253 13.9217 171.555C10.11 164.869 11.2223 160.379 16.2337 157.494C21.2576 154.597 25.7192 155.889 29.5308 162.561C33.355 169.259 32.2302 173.737 27.1688 176.647H27.1813ZM18.4832 161.42C15.4089 163.189 14.8715 165.584 17.2085 169.673C19.5455 173.762 21.845 174.515 24.9568 172.734C28.0811 170.94 28.606 168.519 26.2815 164.455C23.957 160.392 21.595 159.639 18.4957 161.42H18.4832Z" fill="black"/>
<path id="Vector_18" d="M3.37399 135.443L17.5334 131.405L18.6957 135.531L16.2212 136.234C18.3832 137.814 20.3078 140.285 21.2826 143.734C22.3574 147.522 22.0074 151.461 16.8086 152.991L8.96028 155.173L7.78553 151.022L14.0592 149.228C17.071 148.375 18.3457 146.908 17.3835 143.509C16.5961 140.737 14.3341 138.14 12.4845 137.287L4.54874 139.545L3.38649 135.418L3.37399 135.443Z" fill="black"/>
<path id="Vector_19" d="M1.96181 114.045L5.52354 113.819C5.26109 115.249 5.18611 116.378 5.26109 117.632C5.41106 120.041 6.1359 122.75 8.31043 125.233L17.121 124.682L17.3835 128.959L2.68665 129.887L2.42421 125.61L4.92367 125.459C2.81163 123.377 1.87433 120.831 1.71186 118.071C1.59939 116.315 1.77435 115.074 1.96181 114.058V114.045Z" fill="black"/>
<path id="Vector_20" d="M10.235 74.3467L7.88554 82.5372L21.0702 86.3503L19.8204 90.6902L6.63581 86.8771L4.28632 95.0677L0.662109 94.0141L6.61082 73.2931L10.235 74.3467Z" fill="black"/>
<path id="Vector_21" d="M25.9066 62.5939L27.9062 58.831C30.7556 61.465 30.6056 65.5289 28.0312 70.358C25.3942 75.3124 21.4076 78.1221 16.6461 75.5759C11.8597 73.0171 11.9097 68.2382 14.7216 62.9451C17.3585 57.9906 21.1577 54.9427 27.0689 58.1035L19.583 72.1767C21.8825 72.8666 23.6196 71.236 24.9568 68.7148C26.344 66.1059 26.7064 64.2495 25.8941 62.5939H25.9066ZM17.2585 70.7593L22.5199 60.8755C20.3453 60.5368 18.8582 62.1298 17.5834 64.5129C16.2087 67.0968 15.7463 69.1915 17.2585 70.7593Z" fill="black"/>
<path id="Vector_22" d="M40.9534 39.9413L46.5522 44.8331L43.7278 48.0942L42.3531 46.8901C41.6157 49.6997 40.3285 52.3965 38.0415 55.0305C35.3296 58.1537 32.6427 59.2324 30.1432 57.0374C27.2564 54.5162 29.106 50.5527 32.1803 47.0155C33.8424 45.109 35.667 43.6038 37.4166 42.5753C35.3046 40.7315 32.7677 43.3028 31.4554 44.8205C30.1932 46.2755 28.781 48.1695 27.4813 51.0544L24.1195 50.1513C25.3568 47.2413 26.8689 44.6449 28.8935 42.3119C32.9301 37.6585 36.7168 36.3038 40.9534 39.9413ZM39.4162 44.3188C38.079 45.1466 36.4294 46.4009 34.6423 48.458C32.5427 50.8788 31.6929 52.6975 32.8301 53.6884C34.0049 54.7044 35.0297 53.7135 36.4918 52.0327C38.0165 50.2767 39.5662 47.3667 40.291 45.0839L39.4287 44.3313L39.4162 44.3188Z" fill="black"/>
<path id="Vector_23" d="M70.022 18.6179L74.4086 25.6295L70.7969 27.9374L67.2976 22.4185C65.623 19.7719 64.2983 18.6807 61.7363 20.3238C59.8368 21.5405 58.562 23.6351 58.0996 25.3284C58.2496 25.5291 58.3871 25.7424 58.537 25.9681L62.9236 32.9797L59.3119 35.2876L55.8126 29.7687C54.138 27.1221 52.8133 26.0309 50.2513 27.674C48.1643 29.0035 46.8271 31.3867 46.5022 33.1678L51.1636 40.518L47.5519 42.8259L39.6411 30.3582L43.2529 28.0503L44.5401 30.0822C45.2024 28.1381 46.4897 25.6796 49.5765 23.7104C51.4511 22.5063 53.5756 21.9293 55.6252 23.0582C56.4625 20.8255 57.9872 18.3295 61.074 16.3602C63.8609 14.5791 67.1352 14.1526 70.047 18.6305L70.022 18.6179Z" fill="black"/>
<path id="Vector_24" d="M89.6053 6.9657L85.7686 5.86192L86.8309 2.88923L90.4676 4.4571L89.6553 1.44679L92.7421 0.844727L93.067 3.96793L95.9164 1.19593L97.9785 3.59164L94.7792 5.98735L98.6158 7.06604L97.5661 10.0387L93.9044 8.47086L94.7167 11.5063L91.6423 12.0707L91.3174 8.94749L88.443 11.7195L86.406 9.31124L89.6053 6.94061V6.9657Z" fill="black"/>
</g>
<defs>
<clipPath id="clip0_579_5">
<rect width="223.352" height="228.207" fill="white" transform="translate(0.662109 0.844727)"/>
</clipPath>
</defs>
</svg>
