<svg xmlns="http://www.w3.org/2000/svg" width="436" height="250.708" viewBox="0 0 436 250.708">
  <g id="Group_127391" data-name="Group 127391" transform="translate(-97.628 -187.762)">
    <path id="Path_108329" data-name="Path 108329" d="M150.6,437.372s-8.817-64.62,36-67.276,40.084,67.276,40.084,67.276Z"/>
    <path id="Path_108331" data-name="Path 108331" d="M325.62,294.273h19.457c21.755,0,39.391,17.277,39.391,38.59v49.055H352.779" fill="#fff" stroke="#000" stroke-width="1"/>
    <path id="Path_108332" data-name="Path 108332" d="M253.3,295V437.468l99.481.5V295" fill="#fff" stroke="#000" stroke-width="1"/>
    <path id="Path_108333" data-name="Path 108333" d="M208.119,321.224,191.54,318.6s-5.857-1.41-7.256,2.333a4.1,4.1,0,0,0,1.473,5.157,4.927,4.927,0,0,0,1.65.771c1.455.339,12.028,1.979,12.028,1.979a2.233,2.233,0,0,0,2.914-1.9c.432-2.611-1.792-4.07-6.684-4.874l-5.994-.987" fill="none" stroke="#000" stroke-width="1"/>
    <path id="Path_108334" data-name="Path 108334" d="M187.217,326.809a3.206,3.206,0,0,0-3.582,2.434h0a2.91,2.91,0,0,0,2.311,3.344l11.775,1.937a2.8,2.8,0,0,0,3.164-2.443h0a2.836,2.836,0,0,0-2.225-3.326" fill="none" stroke="#000" stroke-width="1"/>
    <path id="Path_108335" data-name="Path 108335" d="M185.946,332.587a2.8,2.8,0,0,0-3.164,2.441h0a2.91,2.91,0,0,0,2.311,3.342l11.775,1.937a2.794,2.794,0,0,0,3.164-2.441h0a2.91,2.91,0,0,0-2.311-3.342" fill="none" stroke="#000" stroke-width="1"/>
    <path id="Path_108336" data-name="Path 108336" d="M187.613,338.784c-1.249-.2-2.453.923-2.688,2.52h0c-.235,1.6.586,3.058,1.836,3.263l9.73,1.6c1.249.206,2.453-.922,2.688-2.519h0c.236-1.6-.586-3.058-1.835-3.264" fill="none" stroke="#000" stroke-width="1"/>
    <path id="Path_108337" data-name="Path 108337" d="M287.766,294.66H255.4c-28.805,0-28.716,28.256-28.557,32.292.019.484.025.968.025,1.453v46.872H253.3" fill="none" stroke="#000" stroke-width="1"/>
    <path id="Path_108338" data-name="Path 108338" d="M248.69,295.236v49.977h12.65V294.66Z"/>
    <path id="Path_108339" data-name="Path 108339" d="M357.947,296.048v47.633H345.3V294.273l6.618.386Z" fill="#1a1818"/>
    <rect id="Rectangle_37066" data-name="Rectangle 37066" width="16.209" height="10.603" transform="translate(295.263 287.221) rotate(45)" fill="none" stroke="#000" stroke-width="1"/>
    <rect id="Rectangle_37067" data-name="Rectangle 37067" width="16.209" height="10.603" transform="translate(326.066 294.719) rotate(135)" fill="none" stroke="#000" stroke-width="1"/>
    <path id="Path_108340" data-name="Path 108340" d="M382.489,437.967V381.918H356.7v56.049" fill="#fff" stroke="#000" stroke-width="1"/>
    <path id="Path_108341" data-name="Path 108341" d="M281.638,217.553s-11.489-3.191-10.851-7.149,3.575-3.064,3.575-3.064a10.9,10.9,0,0,0-5.234-6.383c-4.085-2.042-6.128-14.042,6.255-13.148s23.106,10.851,23.872,12.382,2.043-.638,2.426-3.191,4.468-7.4,10.723-2.426,16.085,18.766,16.085,22.979-2.615,5.49-11.9-1.4S293.638,203.255,281.638,217.553Z"/>
    <path id="Path_108342" data-name="Path 108342" d="M328.489,217.553s8.968-2.17,14.522,2.617,5.17,24.607-16.851,25.66c0,0,1.149,11.393-6.511,14.553v28.053" fill="none" stroke="#000" stroke-width="1"/>
    <path id="Path_108343" data-name="Path 108343" d="M281.067,217.384s-20.493,54.807,13.082,52.637v18.415" fill="none" stroke="#000" stroke-width="1"/>
    <path id="Path_108344" data-name="Path 108344" d="M295.9,223.713s-12.159,10.915-4.691,22.308" fill="none" stroke="#000" stroke-width="1"/>
    <path id="Path_108345" data-name="Path 108345" d="M325.426,234.867s3.829-9.654,11.234-8.888" fill="none" stroke="#000" stroke-width="1"/>
    <path id="Path_108346" data-name="Path 108346" d="M300.787,254.255s8.426,1.915,8.234-8.234" fill="none" stroke="#1a1818" stroke-width="1"/>
    <path id="Path_108347" data-name="Path 108347" d="M316.993,222.3s-2.184-4.965-7.231-1.074" fill="none" stroke="#000" stroke-width="1"/>
    <circle id="Ellipse_78314" data-name="Ellipse 78314" cx="2.441" cy="2.441" r="2.441" transform="translate(310.936 225.074)" fill="#1a1818" stroke="#000" stroke-width="1"/>
    <path id="Path_108348" data-name="Path 108348" d="M291.743,219.947s-2.184-4.965-7.231-1.074" fill="none" stroke="#000" stroke-width="1"/>
    <circle id="Ellipse_78315" data-name="Ellipse 78315" cx="2.441" cy="2.441" r="2.441" transform="translate(285.686 222.723)" fill="#1a1818" stroke="#000" stroke-width="1"/>
    <path id="Path_108349" data-name="Path 108349" d="M192.654,345.537c3.37,16.678,13.5,46.577,21.02,72.47s39.624,21.038,39.624-6.473" fill="#fff" stroke="#000" stroke-width="1"/>
    <line id="Line_6870" data-name="Line 6870" x2="18.225" y2="33.273" transform="translate(170.133 404.694)" fill="none" stroke="#fff" stroke-width="1"/>
    <line id="Line_6871" data-name="Line 6871" x2="14.566" y2="11.886" transform="translate(165.927 426.082)" fill="none" stroke="#fff" stroke-width="1"/>
    <path id="Path_108350" data-name="Path 108350" d="M203.609,339.918c-2.794-12.251,2.673-17.228,4.147-18.318a1.02,1.02,0,0,0,.32-.4,1.1,1.1,0,0,0,.1-.332c.336-2.679,1.726-13.965,4.671-16.316,3.2-2.554,3.762,1.91,2.72,12.17a77.8,77.8,0,0,0,.044,17.42,1.009,1.009,0,0,0,.03.143l13.337,54.135,1.549,7" fill="none" stroke="#000" stroke-width="1"/>
    <line id="Line_6872" data-name="Line 6872" y2="14.426" transform="translate(229.298 375.277)" fill="none" stroke="#000" stroke-width="1"/>
    <line id="Line_6873" data-name="Line 6873" x2="436" transform="translate(97.628 437.467)" fill="none" stroke="#1a1818" stroke-width="1"/>
    <g id="Group_127390" data-name="Group 127390" transform="translate(35.748)">
      <path id="Path_108330" data-name="Path 108330" d="M334.036,437.967s-3.71-39.872,21.828-56.9,38.417,5.093,38.417,5.093,13.315-46.784,42.128-43.728,44.045,62.573,42.08,95.533Z"/>
      <line id="Line_6868" data-name="Line 6868" y1="47.16" x2="13.385" transform="translate(430.095 390.129)" fill="none" stroke="#fff" stroke-width="1"/>
      <line id="Line_6869" data-name="Line 6869" y1="24.643" x2="6.994" transform="translate(446.27 403.665)" fill="none" stroke="#fff" stroke-width="1"/>
    </g>
  </g>
</svg>
