<svg xmlns="http://www.w3.org/2000/svg" width="98" height="98" viewBox="0 0 98 98">
  <g id="Immersive_VR" data-name="Immersive VR" transform="translate(6082 1810)">
    <rect id="Rectangle_37261" data-name="Rectangle 37261" width="98" height="98" transform="translate(-6082 -1810)" fill="#fff" opacity="0"/>
    <g id="Group_127648" data-name="Group 127648" transform="translate(-2001.957 -1787.842)">
      <path id="Path_108431" data-name="Path 108431" d="M-3928.676,64.409c.086.75.192,1.246.192,1.742q.016,10.021.005,20.042A4.784,4.784,0,0,1-3931,90.645q-8.891,5.083-17.78,10.171a12.251,12.251,0,0,1-1.241.525V91.2c0-4.368-.026-8.737.032-13.1a2.187,2.187,0,0,1,.7-1.634C-3942.539,72.458-3935.745,68.525-3928.676,64.409Z" transform="translate(-80.194 -48.779)" fill="#fff"/>
      <path id="Path_108432" data-name="Path 108432" d="M-4027.588,64.333c.515.261.883.423,1.227.625,6.375,3.749,12.757,7.488,19.1,11.284a2.13,2.13,0,0,1,.959,1.483c.059,7.66.039,15.32.033,22.98a4.616,4.616,0,0,1-.111.619c-.593-.308-1.134-.558-1.646-.858-5.624-3.3-11.223-6.651-16.874-9.909a5.309,5.309,0,0,1-2.918-5.017c.034-6.426.007-12.853.021-19.279A19,19,0,0,1-4027.588,64.333Z" transform="translate(-26.425 -48.727)" fill="#fff"/>
      <path id="Path_108433" data-name="Path 108433" d="M-3980.031,31.166c-.547.344-1.009.652-1.488.932-6.162,3.6-12.317,7.2-18.51,10.747a2.279,2.279,0,0,1-1.9.123c-6.583-3.792-13.119-7.662-19.665-11.518a5.975,5.975,0,0,1-.565-.451c2.811-1.673,5.536-3.3,8.27-4.921,3.4-2.012,6.816-4,10.214-6.022a4.559,4.559,0,0,1,4.958-.091q9.086,5.358,18.154,10.748A4.621,4.621,0,0,1-3980.031,31.166Z" transform="translate(-30.334 -17.581)" fill="#fff"/>
      <path id="Path_108434" data-name="Path 108434" d="M-4066.032,5.892c0-2.314-.024-4.63.006-6.944A4.854,4.854,0,0,1-4061-6.137c3.806-.041,7.612-.009,11.419-.015.87,0,1.767.042,1.779,1.185.012,1.224-.931,1.295-1.857,1.295-3.6,0-7.2-.008-10.8,0-2.24.007-3.088.841-3.093,3.051-.01,4.578.02,9.156-.035,13.733a2.712,2.712,0,0,1-.719,1.542,1.107,1.107,0,0,1-1.081-.058,3.058,3.058,0,0,1-.617-1.608C-4066.07,10.625-4066.033,8.258-4066.032,5.892Z" fill="#fff" stroke="#fff" stroke-width="2"/>
      <path id="Path_108435" data-name="Path 108435" d="M-3882.812,151.074c0,2.314.023,4.629-.005,6.944a4.882,4.882,0,0,1-5.143,5.132c-3.754.034-7.509.006-11.264.011-.858,0-1.775-.008-1.819-1.147-.047-1.217.875-1.334,1.817-1.334,3.652,0,7.3.012,10.955,0,2.125-.009,2.974-.869,2.98-3.009.012-4.32,0-8.641,0-12.961,0-.36-.129-.8.031-1.063a11.557,11.557,0,0,1,1.229-1.471c.4.5,1.134.981,1.16,1.5C-3882.746,146.133-3882.813,148.6-3882.812,151.074Z" transform="translate(-114.054 -102.532)" fill="#fff" stroke="#fff" stroke-width="2"/>
      <path id="Path_108436" data-name="Path 108436" d="M-3882.8,5.819c0,2.365-.012,4.73.006,7.095.008.947-.1,1.9-1.276,1.871s-1.214-1.007-1.212-1.934q.018-6.709,0-13.418c0-2.243-.835-3.093-3.041-3.1-3.6-.013-7.2,0-10.8,0-.907,0-1.887-.011-1.912-1.235-.026-1.257.96-1.245,1.868-1.244,3.753,0,7.506-.025,11.259.012a4.871,4.871,0,0,1,5.1,5.172C-3882.782,1.294-3882.8,3.557-3882.8,5.819Z" transform="translate(-114.064 0)" fill="#fff" stroke="#fff" stroke-width="2"/>
      <path id="Path_108437" data-name="Path 108437" d="M-4066.026,151.157c0-2.364.013-4.728-.007-7.092-.008-.918.185-1.748,1.253-1.74s1.238.849,1.236,1.761q-.022,6.783,0,13.567c0,2.314.824,3.126,3.164,3.132,3.546.009,7.091,0,10.637,0,.9,0,1.892,0,1.934,1.212.044,1.246-.931,1.268-1.849,1.267-3.751,0-7.5.024-11.254-.012a4.868,4.868,0,0,1-5.106-5.159C-4066.045,155.782-4066.025,153.469-4066.026,151.157Z" transform="translate(-0.007 -102.638)" fill="#fff" stroke="#fff" stroke-width="2"/>
    </g>
  </g>
</svg>
