<svg xmlns="http://www.w3.org/2000/svg" width="98" height="98" viewBox="0 0 98 98">
  <g id="Data_Science" data-name="Data Science" transform="translate(6391 1814)">
    <rect id="Rectangle_37261" data-name="Rectangle 37261" width="98" height="98" transform="translate(-6391 -1814)" fill="#fff" opacity="0"/>
    <path id="Path_108428" data-name="Path 108428" d="M188.294,46.53c0-6.645-11.994-10.13-23.907-10.13S140.56,39.885,140.56,46.53V90.7c0,6.645,11.995,10.13,23.826,10.13a56.068,56.068,0,0,0,6.483-.324,24.459,24.459,0,0,0,7.618,5.024l3.161,1.378,3.566-1.458c10.292-4.3,15.965-12.156,15.965-22.043V71.167l-12.886-6.889Zm-23.907-5.267c12.562,0,19.045,3.728,19.045,5.267s-6.483,5.349-19.045,5.349-18.964-3.728-18.964-5.349S151.906,41.263,164.386,41.263ZM145.423,75.543V67.6c4.3,2.35,10.779,3.647,17.424,3.809v9.806c-11.508-.324-17.424-3.809-17.424-5.267Zm18.964,20.423c-12.48,0-18.964-3.728-18.964-5.267V82.351c4.376,2.35,11.022,3.566,17.829,3.728h0a25.864,25.864,0,0,0,3.809,9.806Zm0-29.418c-12.48,0-18.964-3.728-18.964-5.349V52.933c4.619,2.512,11.832,3.809,18.964,3.809s14.425-1.3,19.045-3.809V61.2c0,.162-.081.243-.162.405l-1.458-.811-9.4,5.187a50.552,50.552,0,0,1-8.023.567Zm26.42,11.1a2.431,2.431,0,0,1,0,3.485L180.189,91.509l-6.321-6.159a2.436,2.436,0,0,1,3.4-3.485l2.918,2.837,7.213-7.05a2.35,2.35,0,0,1,3.4,0Z" transform="translate(-6512.56 -1836.4)" fill="#fff"/>
  </g>
</svg>
