<svg xmlns="http://www.w3.org/2000/svg" width="98" height="98" viewBox="0 0 98 98">
  <g id="Robotx_Lab" data-name="Robotx Lab" transform="translate(6232 1810)">
    <rect id="Rectangle_37261" data-name="Rectangle 37261" width="98" height="98" transform="translate(-6232 -1810)" fill="#fff" opacity="0"/>
    <g id="Group_127647" data-name="Group 127647" transform="translate(-3293.692 -1953.917)">
      <path id="Path_108429" data-name="Path 108429" d="M-2850.31,181.293a5.081,5.081,0,0,0-1.327-3.452c-3.884-3.213-7.321-7.475-13.238-6.781-.1.012-.212-.123-.478-.289.494-2.291-.613-3.294-2.912-2.943-.463-3.294-.409-3.5,1.523-5.971a4.268,4.268,0,0,0-.574-5.9,4.288,4.288,0,0,0-5.789.177c-1.636,1.6-1.933,4.494-.155,5.867,2.218,1.709,1.238,3.718,1.462,5.9-2.584-.424-3.521.675-3.19,2.557-2.592.787-5.022,1.18-7.1,2.249s-3.811,2.82-5.7,4.27a5.415,5.415,0,0,0-2.233,4.486q0,7.423.012,14.846a5.377,5.377,0,0,0,2.21,4.493,60.793,60.793,0,0,0,5.535,4.177,11.74,11.74,0,0,0,4.814,1.585c2.935.255,5.905.093,8.864.073,10.206-.073,7.294.868,15.829-5.577.155-.116.359-.208.44-.366.7-1.381,1.9-2.75,1.971-4.17C-2850.106,191.453-2850.171,186.369-2850.31,181.293Zm-23.146,7.98a4.805,4.805,0,0,1-5.1,4.409,4.821,4.821,0,0,1-4.532-4.995,4.857,4.857,0,0,1,5.122-4.613A4.824,4.824,0,0,1-2873.457,189.273Zm16.269-.058a4.738,4.738,0,0,1-5.018,4.466,4.847,4.847,0,0,1-4.609-4.933,4.878,4.878,0,0,1,5.076-4.679A4.771,4.771,0,0,1-2857.187,189.216Z" transform="translate(-19.238 0)" fill="#fff"/>
      <path id="Path_108430" data-name="Path 108430" d="M-2920.282,227.338v-6.669l11.022-7.478h33.518l10.91,7.478v6.669" transform="translate(2.974 0.89)" fill="none" stroke="#fff" stroke-linecap="round" stroke-linejoin="round" stroke-width="5"/>
    </g>
  </g>
</svg>
