<svg xmlns="http://www.w3.org/2000/svg" xmlns:xlink="http://www.w3.org/1999/xlink" width="256" height="78" viewBox="0 0 256 78">
  <defs>
    <clipPath id="clip-path">
      <rect id="Rectangle_36755" data-name="Rectangle 36755" width="256" height="78" transform="translate(1459 6363)" fill="#fff" opacity="0.54"/>
    </clipPath>
  </defs>
  <g id="logo_slide_05" transform="translate(-1459 -6363)" clip-path="url(#clip-path)">
    <g id="Dell_EMC_logo" transform="translate(1459 6380)">
      <path id="Path_105027" data-name="Path 105027" d="M57.536,0,35.1,17.264A19.7,19.7,0,0,0,16.111,2.3H0V42H16.111c9.206,0,17.26-6.328,18.986-14.958L57.534,44.3,79.979,27.042V42h25.312V33.945H88.611V2.3H79.4V17.257L58.112,34.53l-4.6-4.028,10.361-8.063L74.8,13.815,68.473,8.641,47.182,25.322l-4.6-4.028L63.869,5.183,57.536.009V0ZM8.633,10.354h6.9a9.93,9.93,0,0,1,4.139.917,11.127,11.127,0,0,1,3.486,2.535,12.136,12.136,0,0,1,2.41,3.827,13.208,13.208,0,0,1,.076,9.361,12.515,12.515,0,0,1-2.271,3.861,10.882,10.882,0,0,1-3.465,2.667,9.983,9.983,0,0,1-4.375.993h-6.9V10.354Zm125.43,23.592V42H108.746V2.3h9.206V33.945h16.111Z" transform="translate(0 0)" fill="#007db8"/>
      <path id="Path_105028" data-name="Path 105028" d="M137.836,41.407c7.788,0,14.117-3.894,15.334-12.413l-.487-.487h-2.191l-.487.487c-1.217,6.085-5.111,9.492-11.926,9.492-8.519,0-14.6-6.328-14.6-17.525S129.8,3.438,138.08,3.438c6.815,0,10.709,3.407,11.926,9.006l.487.487h2.191l.487-.486C151.954,4.656,145.867.518,137.835.518c-9.492,0-18.011,6.815-18.011,20.2,0,13.874,8.519,20.689,18.011,20.689ZM113.01,40.19V1.733l-.487-.487h-3.894l-.487.487-14.6,34.319h-.487L77.962,1.733l-.487-.487H73.58l-.487.487V40.19l.487.487h2.191l.487-.487V7.575h.487L90.861,40.19l.487.487h2.921l.487-.487L108.872,7.575h.73V40.19l.487.487h2.191l.73-.487Zm-47.46,0v-1.7L65.064,38H44.132l-.487-.487v-14.6l.487-.487H63.846l.487-.487V19.989l-.487-.487H44.132l-.487-.487V4.655l.487-.487H65.064l.487-.487V1.734l-.487-.487H40.724l-.487.487V40.191l.487.487H65.064l.487-.487Z" transform="translate(102.829 1.324)" fill="gray"/>
    </g>
  </g>
</svg>
