<svg id="partner_09" xmlns="http://www.w3.org/2000/svg" width="249.59" height="45.296" viewBox="0 0 249.59 45.296">
  <path id="Path_76570" data-name="Path 76570" d="M36.076,22.714a13.892,13.892,0,0,0-4.944-10.422A3.59,3.59,0,0,1,29.8,9.62V.935A33.855,33.855,0,0,0,24.718,0V12.292c0,2.405,1.2,3.474,1.737,3.741A7.561,7.561,0,0,1,22.714,30.2a7.561,7.561,0,0,1-3.741-14.163,4.212,4.212,0,0,0,1.871-3.741V0A19.094,19.094,0,0,0,15.9.935V9.487a3.112,3.112,0,0,1-1.336,2.672A13.641,13.641,0,0,0,9.487,22.714a13.295,13.295,0,0,0,26.589,0m9.353,0A22.489,22.489,0,0,0,33.4,2.672V9.353A17.11,17.11,0,0,1,22.848,39.817,17.183,17.183,0,0,1,12.025,9.353V2.539A22.714,22.714,0,0,0,22.714,45.295,22.5,22.5,0,0,0,45.429,22.714" fill="#fff"/>
  <path id="Path_76571" data-name="Path 76571" d="M174.137,7.9a12.162,12.162,0,1,0,0,24.318c7.883,0,12.426-5.345,12.426-12.159a12.615,12.615,0,0,0-.134-1.871H174.538v4.543h6.146c-.668,2.939-3.073,4.676-6.547,4.676-4.008,0-6.948-3.207-6.948-7.349a7.078,7.078,0,0,1,6.948-7.349,8.473,8.473,0,0,1,6.28,2.271l3.608-3.608C181.486,9.1,178.68,7.9,174.137,7.9Zm22.046,14.831,3.608-8.418,3.608,8.418Zm-51.976,0,3.608-8.418,3.608,8.418ZM55.087,8.3H45.2V31.95h5.345V13.111h4.142c2.672,0,4.276,1.336,4.276,3.608s-1.6,3.608-4.276,3.608h-1.2v4.81h1.6c5.745,0,9.219-3.474,9.219-8.418S60.833,8.3,55.087,8.3Zm24.184,0H68.315V31.95H73.66V12.977H79c2.539,0,4.142,1.2,4.142,3.474s-1.6,3.474-4.142,3.474H76.6v4.81l2.539,2.539c4.276,4.409,6.013,4.81,8.818,4.81a4.743,4.743,0,0,0,1.336-.134V27.541h-.4c-1.6,0-3.073-.8-5.345-2.939l-.935-.935a7.326,7.326,0,0,0,6.013-7.349C88.357,10.973,84.349,8.3,79.271,8.3Zm15.5,23.516h5.345V8.3H94.771ZM131.648,8.3H125.9l-6.547,12.426L112.808,8.3h-5.745V31.95h5.211V17.387l5.478,9.754h3.207l5.478-9.754V31.95h5.211ZM234.4,8.3H214.755v4.676h12.56L214.622,27.942V31.95H234.4V27.274H221.57L234.4,12.309ZM150.22,8.034h-5.077L134.855,31.817h5.478l1.871-4.543h10.823l1.871,4.543h5.478Zm52.109,0h-5.077L186.964,31.817h5.478l1.871-4.543h10.823l1.871,4.543h5.478Z" transform="translate(15.193 2.655)" fill="#fff"/>
</svg>
