<svg id="partner_10" xmlns="http://www.w3.org/2000/svg" width="175.17" height="50.725" viewBox="0 0 175.17 50.725">
  <path id="Path_76573" data-name="Path 76573" d="M8.537,92.416a20.03,20.03,0,0,0,18.868,19.1,19.515,19.515,0,0,0-4.857.981c-1.074.467-1.5.559-2.288.933-.467.981-1.028,1.636-1.448,2.523a20.247,20.247,0,0,1-2.055,2.848l.84.7,1.915-1.961c1.635-1.589,5-2.336,7.8-2.243,5.323.141,11.862,1.589,20.269,2.988,8.547,1.355,18.588,3.644,25.594,3.317,8.874-.467,10.649-3.409,11.583-3.829a19.151,19.151,0,0,1,.887-2.616A16.491,16.491,0,0,1,87,112.4l-.981-.514-.654.841c-2.475,3.176-7.1,3.969-12.237,4.343-6.258.421-29.423-3.738-38.39-4.857l-6.211-.748a35.507,35.507,0,0,0,4.436-.327c11.023-1.448,17.514-10.976,16.814-22.651-.7-11.209-9.62-18.214-22.791-17.514-11.3.61-19.054,10.418-18.446,21.439Zm35.494-3.923c.7,10.227-2.755,19.1-11.815,20.642-10.695,1.775-17.187-7.518-17.84-17.186-.56-8.079,2.569-17.934,12.656-18.634C38.24,72.474,43.564,80.414,44.031,88.493Z" transform="translate(-8.504 -70.929)" fill="#fff" fill-rule="evenodd"/>
  <path id="Path_76574" data-name="Path 76574" d="M77.284,84.52l-.514-.187a31.314,31.314,0,0,1-8.64,2.243v1.588h2.055c1.167,0,1.728.141,2.055.607a8.535,8.535,0,0,1,.374,3.409v9.014c0,2.661-3.409,6.4-7.052,6.4-5.09,0-6.024-2.336-6.024-6.726V84.52l-.466-.187a27.428,27.428,0,0,1-8.126,2.243v1.588h1.494c1.167,0,1.728.141,2.055.607a8.242,8.242,0,0,1,.42,3.409v9.294c0,4.483,0,9.481,7.8,9.481a9.1,9.1,0,0,0,6.211-2.149l3.689-3.456c0,2.055-.093,3.549-.233,5.09,1.448-.047,3.082-.141,4.671-.141,1.541,0,3.13.094,4.53.141V108.8l-2.242-.187c-.981-.047-1.588-.28-1.775-.746a10.894,10.894,0,0,1-.28-3.223Z" transform="translate(-8.643 -70.973)" fill="#fff" fill-rule="evenodd"/>
  <path id="Path_76575" data-name="Path 76575" d="M93.026,86.156c4.017,0,5.884,4.2,5.884,9.34a83.277,83.277,0,0,1-13.17-.141C85.46,89.285,88.777,86.156,93.026,86.156Zm.281-1.822a12.8,12.8,0,0,0-5.418,1.5,16.325,16.325,0,0,0-3.409,2.195c-2.569,2.008-4.017,5.231-4.017,10.6,0,7.473,4.436,12.751,12.8,12.751,3.784,0,8.453-2.43,8.874-3.084l1.074-1.867-.7-.56c-2.1,1.262-4.2,2.614-6.866,2.614-6.818,0-10.041-4.436-10.041-10.927h8.079a60.145,60.145,0,0,0,10.041-.794,12.53,12.53,0,0,0,.141-2.289c0-6.258-4.53-10.135-10.554-10.135Zm25.22,1.822c3.969,0,5.883,4.2,5.883,9.34a83.868,83.868,0,0,1-13.216-.141C110.96,89.285,114.277,86.156,118.526,86.156Zm.281-1.822a12.616,12.616,0,0,0-5.418,1.5,17.989,17.989,0,0,0-3.458,2.195c-2.521,2.008-3.969,5.231-3.969,10.6,0,7.473,4.436,12.751,12.8,12.751,3.736,0,8.452-2.43,8.826-3.084l1.121-1.867-.7-.56c-2.1,1.262-4.2,2.614-6.866,2.614-6.819,0-10.041-4.436-10.041-10.927h8.08a60.574,60.574,0,0,0,10.041-.794,18.719,18.719,0,0,0,.094-2.289c0-6.258-4.484-10.135-10.507-10.135Z" transform="translate(-8.74 -70.973)" fill="#fff" fill-rule="evenodd"/>
  <path id="Path_76576" data-name="Path 76576" d="M138.365,92.878c0-2.242,3.456-5.184,6.82-5.184,3.783,0,6.35,2.429,6.35,7.053v15.692c1.308-.047,2.9-.141,4.438-.141s3.176.094,4.53.141V108.8l-2.243-.187c-.935-.047-1.542-.28-1.775-.746a10.9,10.9,0,0,1-.28-3.223V93.953c0-6.025-2.661-9.621-9.154-9.621-2.194,0-3.268.327-4.483,1.355l-4.063,3.55h-.141V84.519l-.514-.187a30.516,30.516,0,0,1-8.593,2.243v1.588h2.007c1.168,0,1.728.141,2.055.607a8.236,8.236,0,0,1,.421,3.409v12.47a12.8,12.8,0,0,1-.28,3.223c-.233.465-.841.7-1.775.746l-2.521.187v1.636c1.961-.047,4.156-.141,6.864-.141s4.951.094,6.866.141V108.8l-2.476-.187c-.933-.047-1.54-.28-1.773-.746a10.893,10.893,0,0,1-.28-3.223V92.878h0Zm24.612-3.6a31.32,31.32,0,0,1-2.241,4.858l-2.149,1.774-.607-.374a34.446,34.446,0,0,0,1.5-5.184,35.365,35.365,0,0,0,.654-4.951,17.367,17.367,0,0,0,1.961-.793,17.753,17.753,0,0,0,1.869-1.074l.514.374A38.1,38.1,0,0,1,162.977,89.282Zm1.589,13.078a34.839,34.839,0,0,1-.607,7.7,22.7,22.7,0,0,0,7.751,1.308c6.166,0,12.237-3.178,12.237-9.293,0-4.3-3.082-5.978-9.667-7.1-4.25-.7-6.072-1.962-6.072-4.344,0-1.868.748-4.483,5.464-4.483,3.129,0,6.4,1.635,6.4,4.53v1.261h1.542c.047-2.195.141-4.25.28-6.258a21.608,21.608,0,0,0-7.146-1.355c-5.184,0-10.415,2.1-10.415,8.079,0,3.363,2.054,5.043,4.716,6.024a78.778,78.778,0,0,0,8.125,2.2,3.592,3.592,0,0,1,2.663,3.689c0,2.99-2.99,5.044-6.446,5.044-3.221,0-7.146-1.308-7.146-4.716v-2.287h-1.678ZM94.229,114.921c0-.467.233-.607,1.308-.654v-.421c-.981,0-1.541.047-2.055.047-.7,0-1.448-.047-2.149-.047v.467c.981,0,1.4.047,1.4.748v3.689c0,1.869.654,2.943,3.409,2.943,2.8,0,3.315-1.5,3.315-3.084v-3.362c0-.841.187-.935,1.4-.935v-.467c-.421,0-.981.047-1.728.047-.559,0-1.166-.047-1.773-.047v.467c1.307,0,1.446.141,1.446.981v3.362c0,1.589-.839,2.2-2.287,2.2-1.728,0-2.288-.794-2.288-2.149v-3.782h0Zm9.994,5.185c0,.794-.233.981-1.54.981v.421c.607,0,1.213-.047,1.773-.047.654,0,1.262.047,1.916.047v-.421c-1.308,0-1.448-.094-1.448-.888v-4.716l5.371,6.025,1.355.187c-.047-.514-.094-1.028-.094-1.682v-4.53c0-1.074.233-1.168,1.542-1.168v-.467c-.654,0-1.262.047-1.869.047-.56,0-1.215-.047-1.916-.047v.467c1.074,0,1.542.047,1.542.794v4.857c-1.728-2.054-3.6-4.016-5.324-6.119-.421,0-.935.047-1.4.047-.512,0-.933-.047-1.353-.047v.467c1.119,0,1.446.141,1.446.654v5.138Zm12.33-.094c0,.935-.28,1.074-1.5,1.074v.421c.748,0,1.5-.047,2.289-.047.748,0,1.5.047,2.241.047v-.421c-1.4,0-1.54-.141-1.54-1.074v-4.857c0-.841.28-.841,1.54-.841v-.467c-.933,0-1.54.047-2.334.047-.888,0-1.589-.047-2.2-.047v.467c1.074,0,1.5,0,1.5.841ZM125.8,121.6l2.663-6.166c.374-.888.467-1.121,1.308-1.121v-.467c-.56,0-1.028.047-1.4.047-.654,0-1.168-.047-1.728-.047v.467c.841,0,1.215.094,1.215.467a1.994,1.994,0,0,1-.187.654l-1.822,4.39-1.726-4.063a5.178,5.178,0,0,1-.467-1.074c0-.374.327-.374,1.307-.374v-.467c-.839,0-1.68.047-2.241.047-.467,0-.981-.047-1.822-.047v.467c.748,0,.981.094,1.262.7l2.8,6.585h.839Zm6.726-1.823c0,1.121-.094,1.308-1.448,1.308v.421c.841,0,1.4-.047,2.149-.047.794,0,1.636.047,2.614.047a17.961,17.961,0,0,0,2.289-.094c.047-.607.094-1.308.094-2.1H137.8a6.181,6.181,0,0,1-.374,1.4,8.847,8.847,0,0,1-1.869.187c-.559,0-1.026-.047-1.446-.047a27.656,27.656,0,0,1-.094-3.035H135c1.446,0,1.587.187,1.587,1.166h.467v-2.8h-.467c0,.888-.141,1.028-.935,1.028H134.02c0-.935,0-1.916.047-2.757a6.414,6.414,0,0,1,1.026-.094,11.314,11.314,0,0,1,2.289.187,6.671,6.671,0,0,1,.141,1.215h.467a17.164,17.164,0,0,1,.233-1.869,13.713,13.713,0,0,0-2.055-.141c-.607,0-1.213.047-1.82.094-.607,0-1.215.047-1.822.047-.56,0-1.028-.047-1.542-.047v.421c1.215,0,1.542.094,1.542,1.121v4.39Zm7.751,1.729c.748,0,1.5-.047,2.243-.047,1.262,0,1.822.047,2.243.047v-.421c-1.262,0-1.5-.047-1.5-.794v-5.745a2.734,2.734,0,0,1,1.074-.187c1.213,0,1.773.467,1.773,1.5a1.661,1.661,0,0,1-1.773,1.636c-.233,0-.421-.047-.607-.047l-.047.233,3.362,3.783h2.055v-.374a1.056,1.056,0,0,1-.981-.514l-2.57-2.941c.794-.28,2.243-.654,2.243-2.1,0-1.262-1.121-1.682-2.614-1.682-.888,0-1.822.047-2.71.047-.794,0-1.5-.047-2.2-.047v.467c1.355,0,1.5.094,1.5.888v4.9c0,.935-.327.981-1.5.981v.422Zm16.02-5.745a8.59,8.59,0,0,1,.141-1.542,4.248,4.248,0,0,0-2.241-.56c-1.822,0-3.223.981-3.223,2.523,0,3.315,4.579.794,4.579,3.176,0,1.262-1.028,1.775-2.1,1.775-1.308,0-1.869-.514-1.869-1.682h-.467a9.1,9.1,0,0,1-.094,1.775,4.723,4.723,0,0,0,2.243.467c2.2,0,3.689-1.215,3.689-2.757,0-3.221-4.624-.792-4.624-3.221,0-.888.7-1.448,1.775-1.448a2.09,2.09,0,0,1,1.4.374c.231.141.327.374.327,1.121h.465Zm4.158,4.25c0,.935-.28,1.074-1.542,1.074v.421c.794,0,1.542-.047,2.289-.047.792,0,1.493.047,2.241.047v-.421c-1.355,0-1.5-.141-1.5-1.074v-4.857c0-.841.28-.841,1.5-.841v-.467c-.935,0-1.5.047-2.289.047-.886,0-1.634-.047-2.241-.047v.467c1.121,0,1.542,0,1.542.841Zm6.536,1.5c.794,0,1.542-.047,2.289-.047.7,0,1.4.047,2.1.047v-.421c-1.168,0-1.4-.187-1.4-.888v-5.7h.794c1.493,0,1.634.187,1.68.794v.607h.467l.094-2.055c-.794.047-2.007.047-3.829.047s-2.988,0-3.829-.047l.094,2.055h.467l.047-.607c0-.607.139-.794,1.634-.794h.841v5.7c0,.748-.233.888-1.448.888v.421h0Zm9.434,0c.748,0,1.355-.047,2.2-.047.607,0,1.5.047,2.243.047v-.421c-1.028,0-1.448-.047-1.448-1.121v-1.587a27.17,27.17,0,0,1,2.988-4.252v-.233h-1.166q-1.052,1.858-2.149,3.691l-1.5-2.57a2.69,2.69,0,0,0-1.26-1.262c-.467.141-1.215.187-1.728.28v.421c.607,0,.794.094,1.5,1.028.421.607,1.072,1.542,1.82,2.8v2.054c0,.514-.233.748-1.5.748v.422Z" transform="translate(-8.776 -70.97)" fill="#fff" fill-rule="evenodd"/>
</svg>
