<svg id="partner_06" xmlns="http://www.w3.org/2000/svg" width="65.782" height="91.305" viewBox="0 0 65.782 91.305">
  <path id="Path_76559" data-name="Path 76559" d="M49.341,6.395A45.107,45.107,0,0,1,56.1,5.747a57.692,57.692,0,0,1,7.977.648h14.1a30.965,30.965,0,0,0-28.829,0Zm36.114,5.339H74.933c-4.08,0-12.809-.712-16.39-.712H48.684a60.958,60.958,0,0,0-6.754.712A24.384,24.384,0,0,1,45.1,9.012a30.339,30.339,0,0,0,5.214.57l8.729,0c3.266,0,10.55-1.386,13-1.386l9.133,0a30.84,30.84,0,0,1,4.277,3.547Zm4.428,5.339H76.629c-2.76,0-11.365-.9-14.569-.9H44.475a52.526,52.526,0,0,0-6.921.9,21.093,21.093,0,0,1,2.212-2.91,35.966,35.966,0,0,0,5.088.44H62.06c4.146,0,10.991-1.075,13.565-1.075H87.2a31.013,31.013,0,0,1,2.679,3.545ZM34.789,22.346a23.424,23.424,0,0,1,1.687-2.974,39.808,39.808,0,0,0,5.616.63H65.515c2.764,0,10.176-1.2,12.061-1.2H90.966a30.887,30.887,0,0,1,1.68,3.546H78.327c-2.573,0-9.106-.837-12.684-.837h-23.8a47.391,47.391,0,0,0-7.05.836Zm-1.605,5.4a64.646,64.646,0,0,1,7.4-1.027h25c2.26,0,11.618,1.027,14.508,1.027H94.239a30.958,30.958,0,0,0-.94-3.543H79.459c-3.141,0-11.243.822-14.008.822H40.772a44.585,44.585,0,0,1-6.64-.823,30.719,30.719,0,0,0-.948,3.545Zm-.618,5.339s6.446-1.153,8.455-1.153H64.134c3.516,0,13.126,1.153,16.013,1.153H94.834a31.173,31.173,0,0,0-.3-3.545H79.523c-2.954,0-11.433.759-15.389.759H41.587a85.039,85.039,0,0,1-8.721-.76,31.324,31.324,0,0,0-.3,3.547Zm0,1.794s9.4.822,12.161.822H61.12c3.893,0,14.192-.822,16.9-.822H94.851a31.462,31.462,0,0,1-.3,3.549H78.012c-3.264,0-13.062-1.219-17.021-1.219H45.043c-2.89,0-12.16,1.217-12.16,1.217a31.282,31.282,0,0,1-.317-3.546Zm1.57,8.885a30.813,30.813,0,0,1-.946-3.553s11.383.911,19.263.911c8.566,0,16.289-.906,19.782-.906l22.006,0a30.8,30.8,0,0,1-.949,3.546H72.129c-6.175,0-12.482-.925-20.364-.925-7.511,0-17.629.925-17.629.925Zm58.506,1.8A31.023,31.023,0,0,1,90.953,49.1l-54.466.005a31.417,31.417,0,0,1-1.706-3.546l57.86,0ZM89.883,50.9H37.558a31.273,31.273,0,0,0,2.679,3.546H87.2A31.642,31.642,0,0,0,89.883,50.9ZM81.2,59.782H46.257a31.343,31.343,0,0,1-4.337-3.546h43.59A31.17,31.17,0,0,1,81.2,59.782Zm-3.007,1.786a31.173,31.173,0,0,1-28.926.008l28.926-.008Z" transform="translate(-30.817 -2.835)" fill="#fff" fill-rule="evenodd"/>
  <path id="Path_76560" data-name="Path 76560" d="M46.722,140.783h18.71v5.044H59.287V164.5h-6.42V145.827H46.722Zm-8.441,14.653,2.3-7.236,2.021,7.236H38.281Zm-9.3,9.066,8.285-23.719H43.92L51.74,164.5h-6.5l-1.323-4.2H36.88l-1.556,4.2Zm47.072-23.719H94.765v5.044H88.619V164.5H82.2V145.827H76.055Z" transform="translate(-28.983 -73.459)" fill="#fff" fill-rule="evenodd"/>
  <path id="Path_76561" data-name="Path 76561" d="M103.322,162.1s3.464,2.712,3.924,3.193c-.9,0-3.07.235-3.6-.458A2.428,2.428,0,0,1,103.322,162.1Zm1.754-8.213a1.219,1.219,0,0,1,1.149.951v2.883l4.524-.012v3.914c0,.187-.083.187-.268.187a50.912,50.912,0,0,1-6.028-5.2,2.471,2.471,0,0,1-.556-1.641A1.183,1.183,0,0,1,105.077,153.882Zm.208-3.694a6.376,6.376,0,0,1,4.2,1.153,4.321,4.321,0,0,1,1.284,3.569V157.7l4.589-.011v5.867a5.982,5.982,0,0,1-.333,1.429s.815.017,1.331,0v4.149c-.324,0-.507.008-.831.008a3.887,3.887,0,0,1-2.628-.532,1.323,1.323,0,0,0-.733-.366c-.254,0-.415.224-.73.366a7.906,7.906,0,0,1-2.994.864,22.917,22.917,0,0,1-3.459.067c-3.384-.133-6.369-1.746-7.051-5.056a5.478,5.478,0,0,1,0-2.594,4.593,4.593,0,0,1,1-2.328c.357-.424.931-.7.931-1.1,0-.2-.391-.482-.532-.832a5.38,5.38,0,0,1-.466-2.395,4.022,4.022,0,0,1,1.065-3.26c1.564-1.564,3.152-1.8,5.355-1.8Z" transform="translate(-64.203 -78.274)" fill="#fff" fill-rule="evenodd"/>
</svg>
