<svg id="partner_11" xmlns="http://www.w3.org/2000/svg" xmlns:xlink="http://www.w3.org/1999/xlink" width="177.215" height="58.186" viewBox="0 0 177.215 58.186">
  <defs>
    <clipPath id="clip-path">
      <rect id="Rectangle_13548" data-name="Rectangle 13548" width="177.215" height="57.924" fill="#4a4a4a"/>
    </clipPath>
  </defs>
  <rect id="Rectangle_13547" data-name="Rectangle 13547" width="57.218" height="58.186" fill="#fff"/>
  <g id="Group_31222" data-name="Group 31222" transform="translate(0 0.262)">
    <g id="Group_31221" data-name="Group 31221" clip-path="url(#clip-path)">
      <path id="Path_43205" data-name="Path 43205" d="M67.559,88.448h-3.1a.162.162,0,0,0-.148.089,3.266,3.266,0,0,1-2.835,1.743,3.559,3.559,0,0,1-3.426-3.751,3.5,3.5,0,0,1,3.4-3.692,3.154,3.154,0,0,1,2.865,1.772.029.029,0,0,0,.03.03.162.162,0,0,0,.148.089h3.1a.17.17,0,0,0,.177-.177V84.46a6.542,6.542,0,1,0-.03,4.253v-.089c.03-.089-.059-.177-.177-.177" transform="translate(-38.614 -56.636)"/>
      <path id="Path_43206" data-name="Path 43206" d="M114.259,88.448h-3.1a.162.162,0,0,0-.148.089,3.266,3.266,0,0,1-2.835,1.743,3.559,3.559,0,0,1-3.426-3.751,3.5,3.5,0,0,1,3.4-3.692,3.154,3.154,0,0,1,2.865,1.772.029.029,0,0,0,.03.03.162.162,0,0,0,.148.089h3.1a.17.17,0,0,0,.177-.177V84.46a6.542,6.542,0,1,0-.03,4.253v-.089a.191.191,0,0,0-.177-.177" transform="translate(-71.521 -56.636)"/>
      <path id="Path_43207" data-name="Path 43207" d="M20.591,89.064h0l-1.181-3.929c0-.059-.059-.089-.118-.089s-.089.03-.118.089l-1.181,3.9v.059a.127.127,0,0,0,.118.118h2.363c.059-.03.118-.059.118-.148m.945,2.806a.2.2,0,0,0-.177-.118H17.224a.2.2,0,0,0-.177.118l-.591,1.6a.2.2,0,0,1-.177.118H13.207A.2.2,0,0,1,13,93.406v-.059l4.932-12.229A.2.2,0,0,1,18.11,81h2.3a.162.162,0,0,1,.177.118v.03l4.873,12.229v.089a.17.17,0,0,1-.177.177H22.245a.2.2,0,0,1-.177-.118Z" transform="translate(-9.16 -57.341)"/>
      <path id="Path_43208" data-name="Path 43208" d="M152.691,89.064h0l-1.181-3.929c0-.059-.059-.089-.118-.089s-.089.03-.118.089l-1.181,3.9v.059a.127.127,0,0,0,.118.118h2.363c.059-.03.118-.059.118-.148m.945,2.806a.2.2,0,0,0-.177-.118h-4.135a.2.2,0,0,0-.177.118l-.591,1.6a.2.2,0,0,1-.177.118h-3.072a.2.2,0,0,1-.207-.177v-.059l4.932-12.229A.2.2,0,0,1,150.21,81h2.3a.162.162,0,0,1,.177.118v.03l4.873,12.229v.089a.17.17,0,0,1-.177.177h-3.1a.2.2,0,0,1-.177-.118Z" transform="translate(-102.244 -57.341)"/>
      <path id="Path_43209" data-name="Path 43209" d="M245.49,94.779H246.7l.059-8.921h-2.717l-.089,1.713H242.3l.059-3.072h10.6l.089,3.072h-1.684l-.059-1.713h-2.688l-.059,8.921h1.359v1.359h-4.43Z" transform="translate(-170.735 -59.807)" fill="#fff"/>
      <path id="Path_43210" data-name="Path 43210" d="M280.707,92.1h.975l.059-10.043H280.5V80.7h3.19l-.059,4.135a12.2,12.2,0,0,1-.207,1.92h.029a2.982,2.982,0,0,1,3.042-2.1c2.038,0,3.013,1.27,3.013,3.338,0,1.388-.059,2.747-.059,4.135h1.122V93.49h-3.987V92.131h.975c.03-1.27.059-2.54.059-3.81,0-1.211-.561-2.1-1.743-2.1-1.3,0-2.245,1-2.274,2.629l-.059,3.279h1.181V93.49h-4.017Z" transform="translate(-197.652 -57.13)" fill="#fff"/>
      <path id="Path_43211" data-name="Path 43211" d="M320.145,80a1.286,1.286,0,0,1,1.3,1.27,1.268,1.268,0,0,1-1.3,1.27,1.27,1.27,0,1,1,0-2.54m-2.1,11.608h1.122L319.2,85.7h-1.3V84.342h3.19l-.03,7.266h1.181v1.359h-4.165V91.608Z" transform="translate(-224.006 -56.636)" fill="#fff"/>
      <path id="Path_43212" data-name="Path 43212" d="M336.207,101.544h.975l.029-5.908H336V94.277h3.1a11.88,11.88,0,0,1-.177,1.92h.03A2.982,2.982,0,0,1,342,94.1c2.038,0,3.013,1.27,3.013,3.338,0,1.388-.059,2.747-.059,4.135h1.122v1.359h-3.987v-1.359h.975c.03-1.27.059-2.54.059-3.81,0-1.211-.561-2.1-1.743-2.1-1.3,0-2.245,1-2.274,2.629l-.059,3.279h1.181v1.359h-4.017Z" transform="translate(-236.76 -66.571)" fill="#fff"/>
      <path id="Path_43213" data-name="Path 43213" d="M373.214,92.1h1.034l.059-10.043H372.8V80.7h3.4l-.059,7.887,3.072-2.363v-.03h-1.24V84.835h4.076v1.359h-.886l-3.1,2.54,3.367,3.367h.975V93.46h-4.165V92.1h1l-3.1-3.013V92.1h1.034V93.46h-3.958Z" transform="translate(-262.691 -57.13)" fill="#fff"/>
      <path id="Path_43214" data-name="Path 43214" d="M427.939,87.2a9.182,9.182,0,0,1-.3-1.063h-.03a6.233,6.233,0,0,1-.325,1.063l-1.3,3.279h3.1ZM421.5,94.85h1l4.253-10.25h2.068l3.928,10.25h1.034v1.359H429.5V94.85h1.063l-1-2.895h-4.106l-1.093,2.895h1.211v1.359H421.5Z" transform="translate(-297.007 -59.878)" fill="#fff"/>
      <path id="Path_43215" data-name="Path 43215" d="M466.007,92.1h.975l.059-10.043H465.8V80.7h3.19l-.059,4.135a12.2,12.2,0,0,1-.207,1.92h.03a2.982,2.982,0,0,1,3.042-2.1c2.038,0,3.013,1.27,3.013,3.338,0,1.388-.059,2.747-.059,4.135h1.122V93.49h-3.987V92.131h.975c.03-1.27.059-2.54.059-3.81,0-1.211-.561-2.1-1.743-2.1-1.3,0-2.245,1-2.274,2.629l-.059,3.279h1.181V93.49h-4.017Z" transform="translate(-328.222 -57.13)" fill="#fff"/>
      <path id="Path_43216" data-name="Path 43216" d="M509.7,97.474V97.3a2,2,0,0,0-2.067-2.038,2.085,2.085,0,0,0-2.186,2.186H509.7Zm1.418,4.874a8.577,8.577,0,0,1-3.042.591c-2.865-.03-4.578-1.772-4.578-4.49,0-2.57,1.447-4.549,4.253-4.549,2.6,0,3.928,1.89,3.928,4.578v.236h-6.2a2.734,2.734,0,0,0,2.983,2.747,6.413,6.413,0,0,0,2.776-.65Z" transform="translate(-354.787 -66.431)" fill="#fff"/>
      <path id="Path_43217" data-name="Path 43217" d="M539.378,101.562a2.156,2.156,0,0,0,2.245-2.186v-.354c-1.949.03-3.633.089-3.633,1.388,0,.65.5,1.152,1.388,1.152m-2.895-6.794A7.728,7.728,0,0,1,539.91,94c2.57,0,3.4,1.27,3.4,3.308,0,1.388-.059,2.777-.059,4.165h1.181v1.359h-2.776a12.7,12.7,0,0,1,.148-1.8h-.03a2.769,2.769,0,0,1-2.895,1.979,2.465,2.465,0,0,1-2.776-2.481c0-2.274,2.333-2.57,3.751-2.629l1.772-.089v-.65c0-1.063-.384-1.8-1.92-1.8a4.427,4.427,0,0,0-1.565.3v1.27h-1.683V94.768Z" transform="translate(-377.759 -66.501)" fill="#fff"/>
      <path id="Path_43218" data-name="Path 43218" d="M574.721,86.389a3.275,3.275,0,0,0-1.654-.354c-1.713,0-2.688,1.506-2.688,3.19,0,1.625.709,2.836,2.1,2.836,1.506,0,2.245-1.241,2.245-3.249Zm3.013,7H574.78a10.585,10.585,0,0,1,.177-1.772h-.029a2.905,2.905,0,0,1-2.894,1.95c-2.1,0-3.633-1.536-3.633-4.106,0-2.865,1.713-4.933,4.667-4.933a7.557,7.557,0,0,1,1.713.207l.03-2.777h-1.595V80.6h3.4L576.552,92h1.182Z" transform="translate(-400.518 -57.059)" fill="#fff"/>
    </g>
  </g>
</svg>
