<svg xmlns="http://www.w3.org/2000/svg" width="145.464" height="58.186" viewBox="0 0 145.464 58.186">
  <path id="ibm" d="M0,0V3.981H28.314V0ZM32.326,0V3.981H72.675S68.554,0,63.1,0ZM80.591,0V3.981H105L103.552,0ZM122.5,0l-1.449,3.981h24.189V0ZM0,7.742v3.981H28.314V7.742Zm32.326.006v3.975H77.357s-.526-3.064-1.443-3.975H32.326Zm48.265,0v3.975h27.087l-1.341-3.975H80.591Zm39.014,0-1.341,3.975h26.979V7.748ZM8.137,15.484V19.47H20.4V15.484H8.137Zm32.326,0V19.47H52.725V15.484H40.463Zm24.189,0V19.47H76.914a13.565,13.565,0,0,0,.779-3.987H64.652Zm24.076,0V19.47h21.74l-1.449-3.987H88.728Zm28.206,0-1.455,3.987h21.848V15.484H116.934ZM8.137,23.232v3.981H20.4V23.232Zm32.326,0v3.981h31.32a13.426,13.426,0,0,0,3.455-3.981Zm48.265,0v3.981H100.99V25l.779,2.216H124.23L125.065,25v2.216h12.262V23.232H114.309L113.087,26.6l-1.227-3.372ZM8.137,30.973v3.981H20.4V30.973Zm32.326,0v3.981H75.238a13.52,13.52,0,0,0-3.455-3.981Zm48.265,0v3.981H100.99V30.973Zm14.49,0,1.483,3.981h16.842l1.409-3.981Zm21.848,0v3.981h12.262V30.973ZM8.137,38.715V42.7H20.4V38.715Zm32.326,0V42.7H52.725V38.715Zm24.189,0V42.7H77.693a13.527,13.527,0,0,0-.779-3.981Zm24.076,0V42.7H100.99V38.715Zm17.274,0,1.438,3.981H118.73l1.449-3.981Zm19.064,0V42.7h12.262V38.715ZM.222,46.457v3.987H28.536V46.457Zm32.1,0v3.987H75.914c.917-.913,1.443-3.987,1.443-3.987H32.326Zm48.486,0v3.987H100.99V46.457Zm27.979,0,1.477,3.987h5.745l1.386-3.987Zm16.274,0v3.987h20.4V46.457ZM.222,54.2v3.981H28.536V54.2Zm32.1,0V58.18H63.1c5.459,0,9.58-3.975,9.58-3.975Zm48.486,0v3.981H100.99V54.2Zm30.78,0,1.421,3.97.244.006L114.7,54.2Zm13.472,0v3.981h20.4V54.2Z" fill="#fff"/>
</svg>
