<svg xmlns="http://www.w3.org/2000/svg" width="29.895" height="29.895" viewBox="0 0 29.895 29.895">
  <g id="globe" transform="translate(1.5 1.5)">
    <path id="Path_76499" data-name="Path 76499" d="M16.447,1.5A14.947,14.947,0,0,1,27.017,27.017,14.947,14.947,0,0,1,5.878,5.878,14.85,14.85,0,0,1,16.447,1.5Zm0,26.895A11.947,11.947,0,1,0,4.5,16.447,11.961,11.961,0,0,0,16.447,28.395Z" transform="translate(-3 -3)" fill="#fff"/>
    <path id="Path_76500" data-name="Path 76500" d="M29.895,19.5H3a1.5,1.5,0,0,1,0-3H29.895a1.5,1.5,0,1,1,0,3Z" transform="translate(-3 -4.553)" fill="#fff"/>
    <path id="Path_76501" data-name="Path 76501" d="M17.379,1.5a1.5,1.5,0,0,1,1.108.488,22.067,22.067,0,0,1,5.771,14.428q0,.031,0,.062a22.067,22.067,0,0,1-5.771,14.428,1.5,1.5,0,0,1-2.215,0A22.067,22.067,0,0,1,10.5,16.479q0-.031,0-.062A22.067,22.067,0,0,1,16.271,1.988,1.5,1.5,0,0,1,17.379,1.5Zm3.879,14.947A19.068,19.068,0,0,0,17.379,5.34,19.068,19.068,0,0,0,13.5,16.447a19.068,19.068,0,0,0,3.879,11.107A19.068,19.068,0,0,0,21.258,16.447Z" transform="translate(-3.932 -3)" fill="#fff"/>
  </g>
</svg>
