<svg xmlns="http://www.w3.org/2000/svg" width="61.996" height="55.671" viewBox="0 0 61.996 55.671">
  <g id="icon_psychology" transform="translate(1.397 1.302)">
    <g id="Group_44" data-name="Group 44" transform="translate(0 0)">
      <path id="Path_29" data-name="Path 29" d="M541.809,759.5l-5.928,3.642" transform="translate(-521.21 -727.626)" fill="none" stroke="#fff" stroke-width="2"/>
      <line id="Line_5" data-name="Line 5" x2="4.385" y2="7.062" transform="translate(18.958 10.999)" fill="none" stroke="#fff" stroke-width="2"/>
      <line id="Line_1671" data-name="Line 1671" x2="3.733" y2="6.271" transform="translate(34.152 35.517)" fill="none" stroke="#fff" stroke-width="2"/>
      <ellipse id="Ellipse_11" data-name="Ellipse 11" cx="11.098" cy="11.098" rx="11.098" ry="11.098" transform="translate(18.204 15.681)" fill="#fff" stroke="#fff" stroke-width="2"/>
      <ellipse id="Ellipse_12" data-name="Ellipse 12" cx="7.744" cy="7.744" rx="7.744" ry="7.744" transform="matrix(0.995, -0.105, 0.105, 0.995, 42.477, 6.291)" fill="#fff" stroke="#fff" stroke-linecap="round" stroke-width="2" stroke-dasharray="52 10"/>
      <circle id="Ellipse_13" data-name="Ellipse 13" cx="4.766" cy="4.766" r="4.766" transform="translate(34.257 47.794) rotate(-57)" fill="#fff" stroke="#fff" stroke-linecap="round" stroke-width="2" stroke-dasharray="42 41"/>
      <circle id="Ellipse_14" data-name="Ellipse 14" cx="6.553" cy="6.553" r="6.553" transform="matrix(0.588, 0.809, -0.809, 0.588, 10.603, 29.477)" fill="none" stroke="#fff" stroke-linecap="round" stroke-width="2"/>
      <circle id="Ellipse_15" data-name="Ellipse 15" cx="5.064" cy="5.064" r="5.064" transform="translate(23.343 9.39) rotate(158)" fill="none" stroke="#fff" stroke-linecap="round" stroke-width="2" stroke-dasharray="46 39"/>
      <path id="Path_76520" data-name="Path 76520" d="M542.049,759.5l-6.169,3.654" transform="translate(-498.116 -741.459)" fill="none" stroke="#fff" stroke-width="2"/>
    </g>
  </g>
</svg>
