<svg xmlns="http://www.w3.org/2000/svg" width="31.259" height="36.893" viewBox="0 0 31.259 36.893">
  <g id="icon_disabled" transform="translate(-13.47 -12.233)">
    <path id="Icon_awesome-accessible-icon" data-name="Icon awesome-accessible-icon" d="M29.708,18.921,28.413,35.086h-4.54l1.138-13.954H19.486c-2.224-4.243-.453-5.21-9.712-6.117l5.57-6.339L12.193,6.842,8.03,10.749S5.819,8.8,4.826,7.922L10.41,2.4a2.242,2.242,0,0,1,2.626-.266s10.3,5.984,10.318,6a2.638,2.638,0,0,1,.451,3.891l-4.32,4.919,7.848-.436A2.244,2.244,0,0,1,29.708,18.921ZM24.908,7.53a3.765,3.765,0,1,0-3.765-3.765A3.766,3.766,0,0,0,24.908,7.53Z" transform="translate(15.013 12.233)"/>
    <path id="Ellipse_78273" data-name="Ellipse 78273" d="M11.973,4a7.973,7.973,0,1,0,7.973,7.973A7.982,7.982,0,0,0,11.973,4m0-4A11.973,11.973,0,1,1,0,11.973,11.973,11.973,0,0,1,11.973,0Z" transform="translate(13.47 25.18)"/>
  </g>
</svg>
