<svg xmlns="http://www.w3.org/2000/svg" width="67.852" height="61.933" viewBox="0 0 67.852 61.933">
  <g id="icon_law" transform="translate(6.5)">
    <path id="Path_45" data-name="Path 45" d="M1429.023,630.28" transform="translate(-1424.404 -620.408)" fill="none" stroke="#fff" stroke-linecap="round" stroke-linejoin="bevel" stroke-width="2"/>
    <line id="Line_9" data-name="Line 9" y2="54.056" transform="translate(26.942 0)" fill="none" stroke="#fff" stroke-width="2"/>
    <path id="Path_49" data-name="Path 49" d="M1435.084,717.645h5.171l3.652-3.652h20.069l3.652,3.652h4.1" transform="translate(-1426.466 -656.712)" fill="none" stroke="#fff" stroke-width="2"/>
    <line id="Line_10" data-name="Line 10" x2="22.413" transform="translate(4.529 9.871)" fill="none" stroke="#fff" stroke-width="2"/>
    <line id="Line_16" data-name="Line 16" x2="22.413" transform="translate(26.942 9.871)" fill="none" stroke="#fff" stroke-width="2"/>
    <path id="Path_52" data-name="Path 52" d="M-574.521,320.918c0,6.445,5.087,11.118,11.532,11.118s11.487-4.673,11.487-11.118Z" transform="translate(569.021 -288.525)" fill="#fff" stroke="#fff" stroke-miterlimit="10" stroke-width="2"/>
    <path id="Path_76522" data-name="Path 76522" d="M-574.521,320.918c0,6.445,5.087,11.118,11.532,11.118s11.487-4.673,11.487-11.118Z" transform="translate(611.853 -288.525)" fill="#fff" stroke="#fff" stroke-miterlimit="10" stroke-width="2"/>
    <path id="Path_76521" data-name="Path 76521" d="M41.377,32.647l8.145-22.7L58.1,32.982" transform="translate(-44.085 -0.685)" fill="none" stroke="#fff" stroke-linejoin="bevel" stroke-width="2"/>
    <path id="Path_76523" data-name="Path 76523" d="M41.377,32.646l8.4-22.7L58.1,32.981" transform="translate(-1.253 -0.685)" fill="none" stroke="#fff" stroke-linejoin="bevel" stroke-width="2"/>
  </g>
</svg>
