<svg xmlns="http://www.w3.org/2000/svg" width="57.914" height="57.988" viewBox="0 0 57.914 57.988">
  <g id="icon_art" transform="translate(-1639 -1567.586)">
    <g id="Group_66165" data-name="Group 66165" transform="translate(1639 1569)">
      <path id="Path_2" data-name="Path 2" d="M630.487,361.271c-4.041,4.763-1.443,16.741-1.443,16.741L598.3,389.126l10.281-31.4s12.713,3.3,16.582-1.695" transform="translate(-578.293 -351.89)" fill="#fff"/>
      <path id="Path_4" data-name="Path 4" d="M572.419,379.5s-4.486,29.258,33.038,30.124" transform="translate(-566.128 -360.198)" fill="none" stroke="#fff" stroke-linecap="round" stroke-width="2"/>
      <path id="Path_5" data-name="Path 5" d="M641.9,343.562l13.4,13.4" transform="translate(-598.794 -343.562)" fill="none" stroke="#fff" stroke-linecap="round" stroke-width="2"/>
      <ellipse id="Ellipse_2" data-name="Ellipse 2" cx="7.213" cy="7.213" rx="7.213" ry="7.213" transform="translate(0 4.946)" fill="#fff"/>
      <ellipse id="Ellipse_3" data-name="Ellipse 3" cx="7.213" cy="7.213" rx="7.213" ry="7.213" transform="translate(39.48 42.148)" fill="#fff"/>
      <path id="Path_94849" data-name="Path 94849" d="M19.715,37.518l15.531-15.74" fill="none" stroke="#000" stroke-width="2"/>
    </g>
    <path id="Path_104842" data-name="Path 104842" d="M2,0A2,2,0,1,1,0,2,2,2,0,0,1,2,0Z" transform="translate(1672 1589)"/>
  </g>
</svg>
