<svg xmlns="http://www.w3.org/2000/svg" width="20.661" height="14.527" viewBox="0 0 20.661 14.527">
  <path id="Icon_awesome-youtube" data-name="Icon awesome-youtube" d="M21.279,6.773a2.6,2.6,0,0,0-1.827-1.838C17.841,4.5,11.38,4.5,11.38,4.5s-6.461,0-8.072.435A2.6,2.6,0,0,0,1.482,6.773a27.233,27.233,0,0,0-.432,5.005,27.233,27.233,0,0,0,.432,5.005,2.557,2.557,0,0,0,1.827,1.809c1.611.435,8.072.435,8.072.435s6.461,0,8.072-.435a2.557,2.557,0,0,0,1.827-1.809,27.233,27.233,0,0,0,.432-5.005,27.233,27.233,0,0,0-.432-5.005ZM9.267,14.85V8.706l5.4,3.072-5.4,3.072Z" transform="translate(-1.05 -4.5)" fill="#fff" opacity="0.804"/>
</svg>
