<svg xmlns="http://www.w3.org/2000/svg" width="184.052" height="53.246" viewBox="0 0 184.052 53.246">
  <g id="partner_16" transform="translate(-1221 -3951)">
    <g id="university-of-bristol-1" transform="translate(1221 3951)">
      <path id="Path_105605" data-name="Path 105605" d="M181.666,104.579h3.391c3.674,0,5.527,2.482,5.527,4.9,0,2.449-1.193,5.023-5.339,5.023-2.638,0-3.58-.848-3.58-3.234Zm-2.606,7.6c0,1.98-.5,2.576-3.077,2.576h-.724v.6h11.493c5.057,0,6.783-3.485,6.783-5.966,0-2.449-1.726-4.365-4.678-5.244v-.064a4.12,4.12,0,0,0,3.579-3.83,3.985,3.985,0,0,0-1.916-3.486c-1.131-.817-3.549-1.226-6.312-1.226-.6,0-2.984.031-4.712.095-.91.032-3.077.157-3.956.188v.6h1.1c2.2,0,2.418.942,2.418,2.731Zm2.606-15.952c.785-.032,2.074-.094,2.763-.094,3.863,0,5.181,2.01,5.181,4.208,0,2.449-1.507,3.642-4.522,3.642h-3.423Zm20.476,10.332a13.693,13.693,0,0,1-1.948-.063v-10.3a12.878,12.878,0,0,1,1.57-.063c4.84,0,6.156,2.262,6.156,5.181,0,3.769-2.29,5.245-5.778,5.245m23.2-10.144v-.6h-7.632v.6c1.758.094,2.356.565,2.356,2.261v13.378c0,2.04-.389,2.572-2.186,2.689-2.4-.125-3.413-1.065-5.131-2.783l-2.479-2.481a37.348,37.348,0,0,0-3.578-3.266,5.358,5.358,0,0,0,4.175-5.087c0-3.2-2.606-5.59-8.416-5.59-2.043,0-2.67.031-3.958.1s-3.2.187-3.957.187v.6h.691c1.821,0,2.355.565,2.355,2.513v13.22c0,2.1-.66,2.606-2.512,2.606h-.534v.6h8.889v-.6h-.724c-1.759,0-2.512-.471-2.512-2.355V107.09c.5.032.911.064,1.6.064.849,0,1.351-.033,2.137-.064a23.156,23.156,0,0,1,3.236,2.795l2.072,2.074c2.715,2.717,3.873,3.575,8.987,3.39h7.119v-.6c-2.167,0-2.669-.628-2.669-2.481V98.958c0-2.1.691-2.544,2.669-2.544m2.135,14.162A5.446,5.446,0,0,0,232.788,115c2.1,0,4.333-1.225,4.333-3.705,0-4.523-10.08-5.9-10.08-11.4,0-2.608,2.387-4.555,5.59-4.555,2.637,0,3.172.786,4.271.786a.6.6,0,0,0,.565-.314h.5l.534,3.988h-.534a5.546,5.546,0,0,0-5.056-3.7c-2.073,0-3.518,1.192-3.518,2.951,0,4.459,10.081,5.654,10.081,11.431,0,3.077-2.733,5.371-6.406,5.371a25.643,25.643,0,0,1-4.364-.848.754.754,0,0,0-.629.344h-.534l-.658-4.773h.6m24.086,1.885c0,1.7.563,2.292,2.479,2.292h1.164v.6h-9.893v-.6h1.163c1.916,0,2.48-.6,2.48-2.292V96.949H243.5c-1.255,0-1.82.72-2.293,3.484h-.564l.5-5.087h.6a.475.475,0,0,0,.346.377,2.007,2.007,0,0,0,.628.094h15.105c.44,0,.911-.094.974-.471h.6l.5,5.087h-.566c-.47-2.763-1.036-3.484-2.291-3.484h-5.464v15.513m31.314-7.412c0-5.652-5.087-9.7-11.022-9.7-6.688,0-11.495,4.428-11.495,10.677,0,5.873,5.183,9.83,11.338,9.83,6.092,0,11.179-4.46,11.179-10.8m-2.952,1.036c0,4.459-2.448,8.98-7.566,8.98-5.057,0-9.044-4.143-9.044-10.016,0-3.769,2.2-8.919,7.724-8.919,5.182,0,8.887,4.115,8.887,9.954" transform="translate(-115.837 -63.018)" fill="#fff" fill-rule="evenodd"/>
      <g id="Group_125904" data-name="Group 125904" transform="translate(167.597 32.799)">
        <path id="Path_105606" data-name="Path 105606" d="M14.34,20.226H.3v-.6H1.338c1.445,0,1.978-.471,1.978-2.073V3.645c0-1.663-.5-2.354-2.48-2.354H.4v-.6H9.661v.6H8.5c-2.04,0-2.575.22-2.575,2.167V17.934c0,.848.347,1.163,1.257,1.163H11.8c1.853,0,2.417-.723,4.4-3.454h.565L14.34,20.226" transform="translate(-0.303 -0.694)" fill="#fff" fill-rule="evenodd"/>
      </g>
      <g id="Group_125905" data-name="Group 125905" transform="translate(27.401)">
        <path id="Path_105607" data-name="Path 105607" d="M8.352,24.78A8.4,8.4,0,0,0,3.336,17.1a9.541,9.541,0,0,1,6.794,7.961c4.662.929,8.8,3.123,15.516.807l.023-.015s-8.839.08-12.536-2.594c1.909.072,4.107-.36,4.827-1.441.768-1.151.847-2.34,2.738-2.4,1.062-.034,4.665.235,5.043-5.055-1.153,1.946-2.4,2.75-4.287,2.27-1.2-.307-3.4-1.228-4.971.648a5.118,5.118,0,0,1-4.911,2.113c.889-1.2,14.133-18.4,14.133-18.4S8.74,14.611,7.8,15.4a5.006,5.006,0,0,1,1.561-4.491c.815-.894,2.233-2.1,1.1-4.659-.912-2.065-.792-3.314,1.693-5.3-1.981.144-5,1.477-4.647,5.115.216,2.2-1.34,2.387-1.909,2.7-1.477.816-1.669,3.194-1.717,5.043-.167-.6-2.316-9.84-3.073-12.83,0,0,0,24.861,0,24.861H.872A15.2,15.2,0,0,1,8.352,24.78" transform="translate(-0.815 -0.958)" fill="#fff" fill-rule="evenodd"/>
      </g>
      <path id="Path_105608" data-name="Path 105608" d="M192.924,30v.442c-1.56.023-2.119.652-2.119,2.143V38.87c0,2.887-1.84,5.984-6.893,5.984-4.447,0-6.73-2.539-6.73-5.868v-6.8c0-1.49-.419-1.723-2-1.746V30h5.984v.442h-.21c-1.28,0-1.839.35-1.839,1.7v6.473c0,3.144,1.839,5.03,5.309,5.03,2.631,0,5.31-1.095,5.31-5.053V33.165c0-2.235-.349-2.631-2.282-2.724V30h5.472m3.06,12.458c0,1.281.3,1.583,1.56,1.583v.442h-4.68v-.442a1.376,1.376,0,0,0,1.56-1.467v-4.89c0-.862-.093-1.025-.7-1.141l-.792-.163v-.373l2.678-.978h.373v1.816c1.56-.978,2.864-1.84,4-1.84,1.584,0,2.491,1.165,2.491,3.493,0,3.1-.163,3.7-.186,4.611-.023.629.35.931,1.3.931h.512v.442H199.1v-.442a1.862,1.862,0,0,0,1.327-.442c.442-.442.489-2.143.489-5.239,0-1.863-.908-2.445-1.84-2.445a7.013,7.013,0,0,0-3.1,1.491v5.053m11.625-12.808a.895.895,0,1,1,0,1.77.892.892,0,1,1,0-1.77m.954,13.064c0,.815.443,1.327,1.676,1.327v.442h-5.169v-.442c1.421,0,1.933-.466,1.933-1.7v-4.68c0-.908-.117-1.025-.722-1.141l-1.094-.21v-.372l3.027-1.048h.349v7.824m6.994,1.979-3.377-7.731c-.349-.815-.652-1.095-1.024-1.165l-.724-.116V35.26h4.751v.419c-1.421.046-1.863.233-1.3,1.327l2.469,5.8,2.375-5.379c.419-.955.21-1.63-1.49-1.746v-.42h4.052v.419a2.4,2.4,0,0,0-1.839,1.7l-3.213,7.312h-.675m14.414-6.124v-.536c-.768-.769-.7-3.027-3.842-3.027-2.841,0-4.494,2.515-4.494,4.983,0,2.7,1.769,4.774,4.052,4.774a5.615,5.615,0,0,0,4.145-2.4l-.256-.279A3.66,3.66,0,0,1,226.62,43.6a3.781,3.781,0,0,1-3.54-4.051,7.807,7.807,0,0,1,.093-.978Zm-6.73-.606c.536-2.165,1.7-2.514,2.47-2.514,1.117,0,2.048,1,2.3,2.514Zm11.221,4.821c0,.954.349,1.257,1.513,1.257h.885v.442h-5.52v-.442c1.188-.024,1.561-.512,1.561-1.746V36.914l-1.561-.559v-.4L234,35.027h.466V37.5h.046c1.164-1.909,1.444-2.352,2.212-2.352a1.585,1.585,0,0,1,.792.21c.233.093.652.186,1.211.349l-.559,1.4a4.283,4.283,0,0,1-1.234-.372,2.046,2.046,0,0,0-.815-.233,1.13,1.13,0,0,0-.909.605,10.524,10.524,0,0,0-.745,1.165v4.518m5.869-.652a2.374,2.374,0,0,0,2.212,2.189,1.594,1.594,0,0,0,1.653-1.537c0-.489-.116-.792-.746-1.421-1.653-1.653-3.492-1.816-3.492-3.749A2.682,2.682,0,0,1,242.94,35a5.11,5.11,0,0,1,1.863.373l.046,2.119h-.4a1.992,1.992,0,0,0-1.863-1.933,1.344,1.344,0,0,0-1.42,1.3c0,2.05,4.33,2.4,4.33,5.239a2.726,2.726,0,0,1-2.886,2.654,2.94,2.94,0,0,1-1.025-.163,2.606,2.606,0,0,0-.628-.14.5.5,0,0,0-.4.28h-.349l-.256-2.608h.373m9.133-12.481a.895.895,0,1,1,0,1.77.892.892,0,1,1,0-1.77m.955,13.064c0,.815.442,1.327,1.676,1.327v.442h-5.169v-.442c1.421,0,1.933-.466,1.933-1.7v-4.68c0-.908-.116-1.025-.722-1.141l-1.094-.21v-.372l3.027-1.048h.35v7.824m8.313-7.451-.373,1.024H255.4v5.426a1.764,1.764,0,0,0,1.536,1.956c.512,0,.978-.4,1.42-1.164l.373.349a2.863,2.863,0,0,1-2.538,1.91,2.456,2.456,0,0,1-2.352-2.7V36.285h-1.071v-.373a5.187,5.187,0,0,0,2.235-2.957h.4V35.26h3.329m9.211,2.585c.7-1.77.256-2.119-1.119-2.166V35.26h3.866v.419c-.954.116-1.49.768-1.932,1.862L264.8,47.416c-.7,1.723-1.234,2.491-2.049,2.491a.864.864,0,0,1-.955-.815c0-.955,1.35-.722,1.933-1.3a4.79,4.79,0,0,0,.791-1.327l.7-1.747-3.609-7.661c-.441-.955-.861-1.35-1.839-1.373v-.42h4.68v.419c-1.42.023-1.583.442-1.117,1.42l2.631,5.683,1.979-4.937m7.973,2.1A5.019,5.019,0,1,0,280.948,35a4.882,4.882,0,0,0-5.03,4.937m1.746-.792c0-2,1.421-3.586,2.957-3.586,1.956,0,3.587,2.259,3.587,4.914,0,2.328-1.56,3.726-2.934,3.726-2,0-3.609-2.236-3.609-5.053" transform="translate(-115.784 -19.596)" fill="#fff" fill-rule="evenodd"/>
      <g id="Group_125908" data-name="Group 125908" transform="translate(0 0.03)">
        <path id="Path_105609" data-name="Path 105609" d="M510.505,34.7H507.99v6.38c0,1.071.419,1.374,1.723,1.374h.885v.442h-5.751v-.442c1.35,0,1.583-.3,1.583-1.607V34.7h-1.724v-.4a6.285,6.285,0,0,0,1.724-.628,6.125,6.125,0,0,1,1.793-4.774,4.73,4.73,0,0,1,3.306-1.653c1.3,0,2.4.745,2.4,1.094,0,.186-.442,1.118-.629,1.118-.327,0-1.188-1.141-2.725-1.141-1.676,0-2.585,1.327-2.585,3.586v1.77h2.352l.163,1.024" transform="translate(-333.582 -18.037)" fill="#fff" fill-rule="evenodd"/>
        <g id="Group_125906" data-name="Group 125906">
          <path id="Path_105610" data-name="Path 105610" d="M18.288,13.493A8.787,8.787,0,0,1,19.2,8.4c-3.723,2.81-3.77,5.091-3.77,5.091s.721-.552,2.858,0M16.56,7.346s-4.515.649-5.811.769a8.551,8.551,0,0,0-1.921,2.005s-1.057.156-3.17.54a3.144,3.144,0,0,0-.529,5.019c-.576-.12-.576-.12-1.417-.264-1.8,1.153-.961,3.29,2.786,2.546-1.057-.036-1.585-.552-1.573-1.225C4.9,16,6.33,15.09,8.071,15.559c-1.657-3.134.18-4.371.18-4.371A4.622,4.622,0,0,0,9.4,15.895a2.863,2.863,0,0,1,2.618-1.224c1.782-.036,2.9.84,2.929,1.849.024.889-1.1,1.825-2.569,1.825l-.024-2.123a1.726,1.726,0,0,0-.612.36c0,.1-.012,1.787-.012,1.787a2.889,2.889,0,0,1-2.377-1.237c-.48-.048-3.158-.444-3.158-.444l.144.708a1.418,1.418,0,0,1,1.117,1.093A4.52,4.52,0,0,0,8.9,21.082c1.117-.132,2.966-1.537,6.364-1.489-3.122.432-6.292,3.77-10.855,2.5,7.252,2.474,8-3.026,17.074-1.3a10.524,10.524,0,0,0-3.53-1.129,5.119,5.119,0,0,0,1.177-3.1c.144-.009.336-.024.7-.06.12-.6.2-1.21.2-1.21s-1.981,0-3.644,0c-4.047-4.094.174-7.949.174-7.949M6.425,7.274a5.912,5.912,0,0,0,2.618-.709s-.48,1.213.6,1.141a9.013,9.013,0,0,0,2.714-.768V5.376A7.8,7.8,0,0,1,9.812,6.553C9.338,6.66,9.5,6.241,9.547,6s.08-.436-.768-.084c-3.47,1.441-3.65.456-3.65.336-.144.169-.083.948,1.3,1.021M24.819.046V24.907c-10-3.938-14.169,3.7-24.819,0V.046H5.067V2.73H7.973V.046h2.858V2.73h2.881V.046h2.882V2.73h3.134V.046h5.091" transform="translate(0 -0.046)" fill="#fff" fill-rule="evenodd"/>
        </g>
        <path id="Path_105611" data-name="Path 105611" d="M87.769,84.95s-.119-.059.107-.247c.028-.023.071.028.2.029.177,0,.269-.059.416-.235.222-.268-.24-.371-.39-.242-.165.14-.283.287-.424.416C87.681,84.671,87.443,84.882,87.769,84.95Zm8.562,12.559A14.46,14.46,0,0,1,94.4,98.6c-.306.144-.4.232-.63.679a4.4,4.4,0,0,0-.469,1.608,2.427,2.427,0,0,0,1.3-.756.78.78,0,0,0-.156-.421c-.139-.218.132-.455.3-.318a.333.333,0,0,0,.414.036c.108-.09,2.467-1.59,2.576-1.765a10.259,10.259,0,0,1-.847-.954A1.985,1.985,0,0,1,96.331,97.509Zm-9.221-6.58a7.389,7.389,0,0,1-1.423-.763,1.227,1.227,0,0,0-.979.522c-.312.8-1.008,2.119-1.11,2.306a.612.612,0,0,0-.1.349c.012.132.051.648.039.768a.907.907,0,0,0,.054.4,5.556,5.556,0,0,0,.375,1.153,2.355,2.355,0,0,0,.636-1.285s.186-.318-.282-.462c-.133-.041-.114-.388.03-.432.174-.054.264-.1.349-.414s.4-1.434.5-1.651a.23.23,0,0,1,.1-.117,1.16,1.16,0,0,1,.287-.085.258.258,0,0,1,.154.067c.16.162.992.837.992.837a2.568,2.568,0,0,0,.6-.132A3.077,3.077,0,0,1,87.11,90.929Zm-1.018-4.743s-.351.433.045.541a2.292,2.292,0,0,0,.108.5c.066.174.18.117.306-.027s.329-.418.477-.576.605-.092.414.2a.537.537,0,0,1-.387.28c-.128.028-.167-.081-.306.108s-.3.338-.045.338c.135,0,.392.126.563.1s.179-.13.2-.275-.012-.237.156-.33a3.613,3.613,0,0,0,.631-.51c.11-.117.252-.09.4-.09a1.338,1.338,0,0,0,1.255-.537,2.131,2.131,0,0,0,.216-1.576,1.7,1.7,0,0,1,.324,1.4,1.326,1.326,0,0,1-1.279,1.207A6.343,6.343,0,0,0,88.1,89.464a2.137,2.137,0,0,0-.3,2.747c-.225.074-.889.358-1.282.446-.264.061-.485.075-.591.2-.12.144-.4.613-.252.846a11.178,11.178,0,0,1,.81,2.081.9.9,0,0,0,.378.7c.18.162.3.153.55.342s.467.535.7.72a1.119,1.119,0,0,0,.732.27,3.376,3.376,0,0,0-.432-1.692c-.237-.25-.534.107-.606.126S87.64,96.2,87.6,96s.144-.378-.036-.648q-.369-.558-.694-1.144c-.234-.458.163-.581.261-.557.234.053,1.639.243,1.855.261s.336.054.433-.055a3.833,3.833,0,0,0,.639-.919c.315.235.1.685.009,1.219a6.95,6.95,0,0,0,4.923.361c1.168-.311,1.035-.066,1.146.15A6.437,6.437,0,0,0,98.1,97.136a2.507,2.507,0,0,1,.516.684.89.89,0,0,1,.048.709c-.108.258-.733,1.379-.841,1.536a2.162,2.162,0,0,1-.7.672c-.708.378-.885.718-.963.983h1.819A.71.71,0,0,0,98,101.4a.36.36,0,0,1,.348-.39c.09-.018.252.054.4-.288.271-.644,1.327-2.437,1.417-2.6s.42-.6.1-.786a2.3,2.3,0,0,1-1.093-1.616c-.048-.264-.019-.7.576-1.44a3.037,3.037,0,0,0-2.509-4.791,14.412,14.412,0,0,1-3.549-.312c-.383-.078-.448-.283-.366-.517a3.987,3.987,0,0,0,.168-.912,2.762,2.762,0,0,0-.9-.48c-.22-.078-.33-.253-.108-.27s1.063.072,1.063.072a5.01,5.01,0,0,0-.09-1.111,4.846,4.846,0,0,0-1.3-.349c-.126-.016-.237-.158.084-.2a10.041,10.041,0,0,1,1.105-.013,2.789,2.789,0,0,0-.442-1.216A5.016,5.016,0,0,0,91.865,84c-.252-.03-.264-.1-.1-.157a2.584,2.584,0,0,1,.925-.1A3.017,3.017,0,0,0,89.325,82.2a2.161,2.161,0,0,1,.432.639c.065.183-.129.241-.306.055a2.066,2.066,0,0,0-1.486-.785,2.023,2.023,0,0,1,.513.838,7.4,7.4,0,0,0-1.3,1.351.329.329,0,0,0,.072.475Zm14-4.826c-2.215.774-1.889,3.162-1.29,4.083.781,1.2,1.441,1.225,1.939,2.635A1.412,1.412,0,0,1,99.753,90a2.066,2.066,0,0,0,2.81-.744c.8-1.061-.106-2.439.745-3.158a1.9,1.9,0,0,1,1.129-.348,1.421,1.421,0,0,0-2.216.036c-.342-.793-1.3-1.486-.954-2.714a1.2,1.2,0,0,1,1.981-.444.941.941,0,0,1-.468,1.429,1.305,1.305,0,0,0,.768-1.993,1.789,1.789,0,0,0-1.777-.853c-1.093,0-2.906,1.25-1.747,3.945C99.357,84.565,98.277,82.493,100.1,81.359Zm5.527-2.806v24.891c-13.76,3.35-14.157-3.963-24.819,0,0,.323,0-24.894,0-24.891C90.6,74.446,94.42,82.227,105.622,78.553Z" transform="translate(-53.405 -51.134)" fill="#fff" fill-rule="evenodd"/>
        <g id="Group_125907" data-name="Group 125907" transform="translate(0 26.186)">
          <path id="Path_105612" data-name="Path 105612" d="M9.029,15.711s-.435.284.11,1.481,1.222,2.309.044,3.623c.668.008,2.126-.873.566-3.5C9.39,16.712,9,16.293,9.029,15.711Zm-1.476.564c.361-.025.407-.466.341-.7a.34.34,0,0,0-.645.041,1.32,1.32,0,0,0-.014.682.537.537,0,0,0,.5.395C7.525,16.506,7.581,16.4,7.553,16.275ZM7.9,17.864c-.087,1.057-.693,1.212-.693,1.212-1.058-.486-1.625.846-.737,1.238,1.125.5,1.814-.957,1.88-1.226a7.163,7.163,0,0,0,.122-2.539c-.072-1.055.189-1.215.362-1.243s.535-.044.9,1.055a1.733,1.733,0,0,0,1.142,1.258,2.983,2.983,0,0,1,.441-3.534c.73-.789,2.22-1.237,1.944-2.342a1.209,1.209,0,0,1-.679.512c-.448.115-1.316.246-1.316.246s2.082-.984,2.458-2.111a2.771,2.771,0,0,1-.217,2.674,2.486,2.486,0,0,1,1.715.106c2.266,1,2.026,4.231-.842,5-4.081,1.095-2.6,4.251-.262,4.445-.251-.159-.308-1.111.1-1.676.205-.182.571-.55.8.224a1.749,1.749,0,0,0,2.163,1.308,1.222,1.222,0,0,1-.385-.779c.068-.479.667.019.884.08,1.607.456,2.462.058,2.553-.183-.359-.074-.3-.033-.524-.09-.212-.054-.625-.347.149-.525,1.419-.325,2.2-1.79,1.265-2.918a2.145,2.145,0,0,0-2.383-.765c1.539.332,1.616,1.57.832,2.2-.684.513-2.383.718-2.964-.422a1.22,1.22,0,0,0-.433,1.22,1.09,1.09,0,0,1,.159-1.733c4.44-2.863,3.724-7.673-.034-9.653l-.046-.02a6.578,6.578,0,0,0-6.392-.171c2.108-2.111,5.75-.855,6.275-.593a4.377,4.377,0,0,1-.642-.7,1.6,1.6,0,0,1-.278-.847c-1.446.807-1.819-.433-1.819-.433s-1.252,1.129-2.065.211c-.711-.8.44-1.893.44-1.893C4.44,6.868,5.83,11.01,5.83,11.01a5.359,5.359,0,0,0-1.3,3.327c-.27,2.671,1.06,4.57,2.723,4.048a.9.9,0,0,0,.643-.5l0-.021ZM24.82,1.511s0,25.214,0,24.891C14.156,22.44,13.76,29.752,0,26.4V1.511C11.2,5.185,15.021-2.6,24.82,1.511Z" transform="translate(0 -0.278)" fill="#fff" fill-rule="evenodd"/>
        </g>
      </g>
    </g>
  </g>
</svg>
