<svg xmlns="http://www.w3.org/2000/svg" width="209.606" height="39.907" viewBox="0 0 209.606 39.907">
  <g id="partner_08" transform="translate(-1486 -3952)">
    <path id="kaspersky-logo" d="M101.228,26.072c0,7.934-4.849,11.7-10.918,11.7h-3.7V32.989h3.424c3.662,0,6.1-1.967,6.1-6.951,0-4.916-2.306-7.358-6.2-7.358-3.764,0-6.442,2.306-6.442,7.256V45.873H78.409V14.544h5.052v2.712h.712a8.2,8.2,0,0,1,6.781-3.289C96.549,13.968,101.228,18.037,101.228,26.072ZM68,24l-3.357-.339c-2.645-.237-4.035-.949-4.035-2.509,0-1.831,1.8-2.882,4.34-2.882,2.645,0,4.34,1.255,4.476,3.018h4.849c-.2-4.543-3.7-7.324-9.29-7.324-5.628,0-9.426,2.984-9.426,7.358,0,3.662,2.306,6.035,7.561,6.544l3.424.339c2.068.2,3.458.61,3.458,2.611,0,1.8-1.288,3.085-4.713,3.085-3.153,0-4.713-1.424-5.255-3.357H54.777c.509,4.374,4.2,7.764,10.511,7.764,5.934,0,9.765-3.119,9.765-7.764C75.018,26.513,72.34,24.411,68,24Zm52.791,6.578a5.555,5.555,0,0,1-5.391,3.187c-3.7,0-6.442-2.407-6.442-7.595,0-4.95,2.543-7.7,6.51-7.7,3.526,0,5.527,2.1,5.73,5.289h-9.087v3.662h14.071V25.021c0-6.679-4.442-11.019-10.748-11.019-5.866,0-11.494,4-11.494,12.172s5.628,12.172,11.494,12.172a10.409,10.409,0,0,0,10.409-7.764ZM41.079,13.968c-5.527,0-9.663,2.882-10.172,7.324h5.425c.373-1.627,1.865-2.848,4.713-2.848,3.662,0,4.849,1.933,4.849,4.272V30.65a9.084,9.084,0,0,1-6.883,3.458c-2.509,0-4.238-1.221-4.238-3.357,0-2.068,1.356-3.357,3.933-3.357H42.74V23.767h-4.2c-5.764,0-9.019,2.882-9.019,7.324,0,4.137,3.119,7.256,8.273,7.256A12.53,12.53,0,0,0,45.114,35.8h.712V37.77h5.052V22.275C51.013,16.545,47.114,13.968,41.079,13.968ZM6.8,37.77h5.052V6H6.8ZM28.025,14.544H21.854l-7.358,9.7v3.018L22.058,37.77H28.33L19.447,25.733Zm182.786,0-4.137,9.188a32.891,32.891,0,0,0-2.272,5.832h-.712a33.075,33.075,0,0,0-2.306-5.764l-4.137-9.256h-5.594L201.385,35.4l-4.815,10.511h5.391l14.444-31.363Zm-20.276,0h-6.171l-7.358,9.663v3.018l7.561,10.511h6.273L181.991,25.7ZM158.868,24l-3.357-.339c-2.645-.237-4.035-.949-4.035-2.509,0-1.831,1.8-2.882,4.34-2.882,2.645,0,4.34,1.255,4.476,3.018h4.849c-.2-4.543-3.7-7.324-9.29-7.324-5.628,0-9.426,2.984-9.426,7.358,0,3.662,2.306,6.035,7.561,6.544l3.425.339c2.068.2,3.458.61,3.458,2.611,0,1.8-1.288,3.085-4.713,3.085-3.153,0-4.713-1.424-5.255-3.357h-5.255c.509,4.374,4.2,7.764,10.511,7.764,5.934,0,9.765-3.119,9.765-7.764,0-4.035-2.712-6.137-7.052-6.544ZM169.311,37.77h5.052V6h-5.052ZM135.947,17.257h-.712V14.544h-5.052V37.77h5.052V25.631c0-4.137,1.9-6.544,5.7-6.544h3.187v-5.12h-1.865C138.761,13.968,137.27,15.29,135.947,17.257Z" transform="translate(1479.2 3946)" fill="#fff"/>
  </g>
</svg>
