<svg xmlns="http://www.w3.org/2000/svg" width="170.737" height="48.039" viewBox="0 0 170.737 48.039">
  <g id="partner_13" transform="translate(-817 -4200)">
    <path id="oxford-university-press-1" d="M42.3,47.976s-.87-1.942-1.942-4.285c-1-2.343-1.942-4.419-2.075-4.553a2.18,2.18,0,0,0-1.138-.87c-.268-.067-.469-.134-.469-.268s.2-.134,2.611-.134c2.544,0,2.678,0,2.678.134s-.067.134-.4.2a1.96,1.96,0,0,0-1.071.536c-.067.067-.067.268-.067.469a22.59,22.59,0,0,0,1.339,3.414c.87,1.875,1.138,2.477,1.272,2.41a35.019,35.019,0,0,0,2.276-5.49c.067-.4.134-.536.067-.67a2.042,2.042,0,0,0-1.205-.67c-.335-.067-.4-.134-.4-.2,0-.134.067-.134,2.209-.134s2.209,0,2.209.134-.134.2-.4.268a1.238,1.238,0,0,0-.8.536c-.536.536-1.54,2.477-3.816,7.7-.67,1.406-.8,1.607-.87,1.473ZM6.685,47.708a2.866,2.866,0,0,1-2.678-2.544,20.767,20.767,0,0,1-.268-2.41c-.335-3.08-.469-3.682-1-4.151a.818.818,0,0,0-.6-.268C1.4,38.268,1.4,38.2,1.4,38.067s0-.2,1-.2c.536,0,1.406-.067,1.942-.067h.937l.067.335c0,.2.067,1.272.134,2.41.134,2.343.335,4.285.4,4.754A2.7,2.7,0,0,0,6.819,46.5a3.252,3.252,0,0,0,1.875.469,2.579,2.579,0,0,0,2.41-1.138,16.6,16.6,0,0,0,.8-4.687c.067-1.339,0-1.741-.335-2.209a1.7,1.7,0,0,0-1.138-.67q-.4,0-.4-.2c0-.134.067-.134,2.544-.134,2.41,0,2.544,0,2.544.134s-.2.2-.536.2a2.5,2.5,0,0,0-1.071.469,4.769,4.769,0,0,0-.937,2.879,24.576,24.576,0,0,1-.469,3.481A3.153,3.153,0,0,1,9.7,47.708,11.336,11.336,0,0,1,6.685,47.708Zm68.424-.067a7.549,7.549,0,0,1-1.607-.536l-.4-.2v-1.54c0-1.54,0-1.54.134-1.54s.2.134.335.67c.469,1.808,1.473,2.745,2.745,2.678A1.652,1.652,0,0,0,77.787,45.1a1.147,1.147,0,0,0-.536-.8,4.694,4.694,0,0,0-1.607-1c-.67-.335-1.339-.736-1.54-.87a2.387,2.387,0,0,1-.736-3.013,3.318,3.318,0,0,1,3.214-1.741A4.951,4.951,0,0,1,78.523,38c.4.134.4.2.4.469v1.339c-.067,1-.067,1.071-.2,1-.134,0-.2-.134-.335-.6a2.564,2.564,0,0,0-1.272-1.875,1.558,1.558,0,0,0-2.075.469,1.38,1.38,0,0,0-.2,1.339c.2.67.6,1,2.075,1.741a5.622,5.622,0,0,1,2.075,1.339,2.532,2.532,0,0,1,.335,2.812,3.21,3.21,0,0,1-2.209,1.473,5.185,5.185,0,0,1-2.009.134Zm78.935-.134c-.335-.067-.8-.268-1.071-.335l-.4-.2v-1.54c0-1.406,0-1.54.134-1.54s.134.134.268.67c.469,1.942,1.674,3.013,3.013,2.678a1.737,1.737,0,0,0,1.071-2.41c-.268-.536-.67-.8-2.009-1.473-2.009-.937-2.477-1.54-2.477-2.812a2.445,2.445,0,0,1,1.205-2.209,4.65,4.65,0,0,1,4.218-.2l.335.134-.067.8c-.067,1.674-.134,1.875-.268,1.875s-.134-.067-.2-.335a3.427,3.427,0,0,0-1.205-2.075,1.793,1.793,0,0,0-1.54-.134,1.539,1.539,0,0,0-.937,1.473c0,.87.536,1.406,2.009,2.142,1.674.8,2.209,1.205,2.544,2.009A2.785,2.785,0,0,1,158.6,46.1a3,3,0,0,1-2.075,1.54,6.428,6.428,0,0,1-2.477-.134Zm9.172,0c-.268-.067-.8-.268-1.071-.335l-.536-.2v-1.54c0-1.54,0-1.54.134-1.54s.134.067.2.335a5.693,5.693,0,0,0,1.138,2.477,1.943,1.943,0,0,0,3.08-.335,1.666,1.666,0,0,0-.469-2.075,14.861,14.861,0,0,0-1.607-.937c-1.942-1-2.41-1.473-2.477-2.678a2.4,2.4,0,0,1,1.205-2.343,4.777,4.777,0,0,1,4.285-.2l.335.134-.067.937c-.067,1.473-.067,1.674-.268,1.674-.067,0-.2-.2-.335-.67a2.935,2.935,0,0,0-1.138-1.741,1.4,1.4,0,0,0-.937-.2,1.287,1.287,0,0,0-.8.2,1.587,1.587,0,0,0-.67,1.808c.2.6.67,1,2.142,1.741,1.674.87,2.009,1.138,2.41,1.875a1.614,1.614,0,0,1,.2,1.071,1.937,1.937,0,0,1-.2,1.138,2.841,2.841,0,0,1-2.009,1.54,8.14,8.14,0,0,1-2.544-.134Zm-92.995,0c-.469,0-1.071-.134-1.205-.134a6.159,6.159,0,0,1-2.946-2.745,23.573,23.573,0,0,1-1.205-2.142l.4-.134A1.768,1.768,0,0,0,66.74,40.41a1.676,1.676,0,0,0-.6-1.473A3.3,3.3,0,0,0,64.2,38.2h-.335v3.682c0,4.084.067,4.151.536,4.687a2.517,2.517,0,0,0,1.339.536c.335.067.4.067.4.2s-.134.134-2.879.134c-2.812,0-2.879,0-2.879-.134s.134-.134.536-.268c.67-.134,1-.335,1.205-.736.134-.335.134-.335.134-3.615V39.406l-.2-.335c-.2-.4-.469-.6-1.205-.736-.469-.134-.536-.134-.536-.268s.067-.134,2.812-.134c3.147,0,3.348,0,4.352.469a1.923,1.923,0,0,1,1.272,1.875,2.3,2.3,0,0,1-1.54,2.142l-.469.2.2.335a12.134,12.134,0,0,0,2.879,3.481,4.056,4.056,0,0,0,1.406.736c.2.067.268.134.268.268s-.067.2-.2.134a7.9,7.9,0,0,1-1.071-.067Zm68.558,0a5.623,5.623,0,0,1-1.272-.2c-1.205-.335-2.343-1.54-3.682-3.95l-.536-.937.4-.134c1.071-.335,1.54-.8,1.607-1.674.134-1.339-.736-2.209-2.477-2.41l-.4-.067v2.812c0,1.54,0,3.281.067,3.883.067,1.607.335,1.942,1.54,2.142.536.067.6.134.6.268s-.134.134-2.812.134-2.812,0-2.812-.134.134-.134.469-.268c1.138-.268,1.272-.536,1.339-2.41a26.658,26.658,0,0,0,0-3.281c-.067-1.875-.067-2.009-.268-2.343-.2-.4-.536-.6-1.272-.736-.4-.067-.4-.134-.4-.268v-.2h2.812c3.08.067,3.414.067,4.285.536a2.249,2.249,0,0,1,1.071,1,2.787,2.787,0,0,1,0,1.808,3.175,3.175,0,0,1-1.272,1.205c-.268.134-.469.268-.469.335a10.022,10.022,0,0,0,1.339,2.009,9.05,9.05,0,0,0,2.075,1.942,3.462,3.462,0,0,0,.87.4c.4.134.469.2.469.335,0,.335.134.335-1.272.2Zm-122.52-.2c0-.134.067-.134.4-.2A1.539,1.539,0,0,0,18,46.034a25.2,25.2,0,0,0,.268-5.423L18.2,39.54l-.469-.469a2.994,2.994,0,0,0-1.473-.87c-.134-.067-.268-.134-.268-.2,0-.134.134-.134,1.607-.134H19.2l.536.67a39.63,39.63,0,0,0,2.745,2.946c.6.67,1.54,1.607,2.075,2.142l1,1c.067,0,.067-3.548,0-4.419a2.217,2.217,0,0,0-.469-1.473,2.722,2.722,0,0,0-1.473-.536c-.4-.067-.536-.067-.536-.2s.134-.134,2.544-.134,2.544,0,2.544.134-.067.134-.4.2a1.618,1.618,0,0,0-1,.6c-.335.669-.469,3.615-.4,6.7l.067,1.875h-.268c-.2,0-.335-.067-1-.8-.4-.469-1.54-1.607-2.477-2.611s-2.142-2.209-2.611-2.678a4.69,4.69,0,0,0-1-.937c-.067,0-.067.335-.067,2.276.067,2.477.134,3.147.335,3.548.268.536.67.736,1.741.87.469.067.6.134.6.2,0,.134-.134.134-2.678.134-2.611.067-2.745.067-2.745-.067Zm13.792,0c0-.067.067-.134.134-.2,1.339-.268,1.607-.469,1.741-1.54a41.285,41.285,0,0,0,0-5.758c-.134-.6-.2-.87-.4-1.071a2.26,2.26,0,0,0-1.205-.469c-.268-.067-.335-.067-.335-.2s.067-.134,2.812-.134c2.611,0,2.812,0,2.812.134,0,.067-.134.134-.536.268a1.84,1.84,0,0,0-1.272.87c-.134.335-.2.335-.134,3.348,0,2.678,0,3.08.134,3.481.2.67.67.937,1.607,1.138.2.067.268.067.268.2s-.067.134-2.812.134c-2.745-.067-2.812-.067-2.812-.2Zm19.349,0c0-.134.067-.134.335-.2a2.985,2.985,0,0,0,1.205-.469c.335-.4.469-1.339.469-4.151,0-3.147-.134-3.615-.87-4.017A3.264,3.264,0,0,0,49.8,38.2c-.268-.067-.4-.067-.4-.2s.134-.134,4.151-.134H57.7L57.635,38c0,.067-.067.67-.067,1.272V40.41h-.2a.293.293,0,0,1-.2-.067A2.5,2.5,0,0,0,56.5,39c-.536-.536-.937-.67-2.343-.67H53.082v3.749h.8c1,0,1.741-.067,1.875-.268a1.716,1.716,0,0,0,.268-.6c.134-.4.2-.536.335-.536s.134,0,.134.87c0,.469,0,1.339-.067,1.942-.067.937-.067,1.071-.2,1.071-.067,0-.134-.067-.2-.335a1.236,1.236,0,0,0-.67-1.071c-.268-.134-.469-.134-1.339-.134H52.948v1.54c0,1.808.067,2.009.67,2.276a2.165,2.165,0,0,0,1.071.2,1.712,1.712,0,0,0,1.205-.268,3.849,3.849,0,0,0,1.875-2.276c.134-.335.2-.469.335-.469a.234.234,0,0,1,.134.067,22.182,22.182,0,0,1-.67,2.946l-.134.4H53.35c-3.883,0-3.95,0-3.95-.134Zm32.337,0q0-.1.2-.2c1-.2,1.339-.4,1.54-.87a16.019,16.019,0,0,0,.268-4.151c-.067-2.41-.067-2.879-.4-3.348a2.261,2.261,0,0,0-1.272-.536c-.2-.067-.268-.067-.268-.2s.134-.134,2.812-.134,2.812,0,2.812.134-.067.134-.4.2a1.8,1.8,0,0,0-1.473,1.138,48.153,48.153,0,0,0,0,6.226c.134.937.469,1.205,1.406,1.473.469.134.6.134.6.268s-.134.134-2.812.134c-3.013,0-3.013,0-3.013-.134Zm9.172,0c0-.134.067-.134.268-.2a2.517,2.517,0,0,0,1.339-.536,1.57,1.57,0,0,0,.335-.67c.134-.4.134-.87.134-3.883V38.6h-.937c-1.205,0-1.674.134-1.942.536a4.135,4.135,0,0,0-.536,1.54c0,.268-.067.335-.2.335-.067,0-.134-.067-.2-.067a23.062,23.062,0,0,1,.134-2.678L89.369,38h8.971l.067,1.339c.067.736.134,1.406.134,1.473.067.134,0,.2-.134.134-.2,0-.2-.067-.335-.536-.268-.937-.6-1.406-1.205-1.607a14.679,14.679,0,0,0-1.942-.134h-.2V41.95c0,4.553.067,4.754,1.138,5.088a2.379,2.379,0,0,0,.67.134c.268.067.335.067.335.2s-.067.134-2.946.134c-2.879-.067-3.013-.067-3.013-.2Zm11.516,0c0-.134.067-.134.268-.2.937-.134,1.473-.469,1.674-1A3.835,3.835,0,0,0,104.5,44.9l.067-.937-.335-.6a33.074,33.074,0,0,0-3.013-4.553,3.4,3.4,0,0,0-1.205-.6c-.268-.067-.335-.067-.335-.2s.067-.134,2.477-.134c2.343,0,2.477,0,2.477.134s-.067.134-.335.2a1.963,1.963,0,0,0-.536.268c-.4.335-.268.736,1.138,2.879,1.071,1.607.87,1.54,1.607.2a9.435,9.435,0,0,0,1-2.544c0-.4-.134-.536-.6-.736-.2-.067-.335-.134-.335-.268s.067-.134,1.942-.134,1.942,0,1.942.134-.134.134-.469.268a2.577,2.577,0,0,0-1.473,1.071,20.738,20.738,0,0,0-1.808,3.281l-.469.937v1.071c0,1.205.134,1.607.469,1.942a3.648,3.648,0,0,0,1.272.536c.268.067.335.067.335.2s-.067.134-2.946.134-2.946,0-2.946-.134Zm15.666,0c0-.134.067-.134.335-.2a2.249,2.249,0,0,0,1.205-.536c.335-.335.4-.736.4-3.548.067-4.084-.067-4.419-1.473-4.687-.4-.067-.469-.134-.469-.268s.067-.134.536-.2c.268,0,1.54-.067,2.812,0a11.081,11.081,0,0,1,3.013.2c1.339.335,2.075.8,2.41,1.54a2.835,2.835,0,0,1-.268,2.544,4.1,4.1,0,0,1-2.745,1.339c-.87.134-1,.134-1-.067,0-.134.067-.2.469-.268,1.339-.268,1.741-.736,1.808-2.009a4.458,4.458,0,0,0-.067-1.071,2.6,2.6,0,0,0-1.138-1.272,4.836,4.836,0,0,0-1.875-.469h-.335v3.749a23.978,23.978,0,0,0,.134,4.151c.2.6.67.87,1.674,1,.268.067.335.067.335.2s-.134.134-2.879.134c-2.812-.134-2.879-.134-2.879-.268Zm23.031,0c0-.134.134-.134.6-.268.8-.2,1.071-.4,1.272-1.071a14.012,14.012,0,0,0,.134-3.414c0-3.147,0-3.281-.4-3.749a1.524,1.524,0,0,0-1.138-.536c-.335-.067-.469-.134-.469-.2,0-.134.2-.134,4.084-.134h4.084l-.067,1.205c0,.67-.067,1.272-.067,1.339s-.067.067-.2.067-.2-.2-.268-.536c-.4-1.272-1.138-1.607-3.147-1.607h-.8l-.067.4c0,.2-.067,1.071-.067,1.875v1.473l1.138-.067a4.866,4.866,0,0,0,1.406-.134,1.767,1.767,0,0,0,.536-.87c.067-.2.067-.268.2-.268h.2v1.339c0,1.808-.067,2.41-.2,2.41-.067,0-.134-.067-.2-.4a1.469,1.469,0,0,0-.536-1c-.2-.134-.4-.134-1.339-.134h-1.138v1.272a5.039,5.039,0,0,0,.268,2.276c.4.6,2.075.67,3.013.134a4.249,4.249,0,0,0,1.607-2.209c.067-.268.134-.4.268-.4a.144.144,0,0,1,.134.134,18.873,18.873,0,0,1-.6,2.745l-.134.536h-4.084c-3.883-.067-4.017-.067-4.017-.2ZM12.51,26.953A13.915,13.915,0,0,1,3.672,23,11.163,11.163,0,0,1,1.4,19.789,13.538,13.538,0,0,1-.01,13.362a16.1,16.1,0,0,1,.4-3.749A12.628,12.628,0,0,1,9.966.441a16.969,16.969,0,0,1,4.218-.469c6.628,0,11.582,3.281,13.39,8.771a15.24,15.24,0,0,1,.067,9.306,12.407,12.407,0,0,1-6.7,7.432,15.521,15.521,0,0,1-5.021,1.406,19.4,19.4,0,0,1-3.414.067Zm3.481-1.272c3.414-.536,5.624-2.611,6.7-6.427a22.058,22.058,0,0,0,.469-8.436,11.776,11.776,0,0,0-3.08-6.9A8.858,8.858,0,0,0,15.79,1.378a5.791,5.791,0,0,0-2.009-.2,7.588,7.588,0,0,0-5.959,2.41C5.748,5.73,4.543,9.881,4.877,14.3c.268,4.017,1.205,6.494,3.348,8.7A8.634,8.634,0,0,0,15.991,25.681ZM96.4,26.953c-.134,0-.469-.067-.87-.134a15.886,15.886,0,0,1-3.08-.736,12.736,12.736,0,0,1-7.967-7.967,14.642,14.642,0,0,1-.736-4.687,13.846,13.846,0,0,1,.67-4.553C86.022,4.056,90.307.775,95.93.106c.87-.067,3.08-.067,4.017,0,4.887.536,8.7,3.013,10.645,6.9a14.773,14.773,0,0,1,1.138,9.775,12.952,12.952,0,0,1-2.009,4.62,19.361,19.361,0,0,1-2.544,2.678,15.112,15.112,0,0,1-9.44,2.946,12.155,12.155,0,0,0-1.339-.067Zm3.214-1.205c4.218-.469,6.7-3.348,7.5-8.837a28.879,28.879,0,0,0,0-5.892,13.61,13.61,0,0,0-1.942-5.49C102.96,2.248,99.947.775,96.4,1.311A7.342,7.342,0,0,0,92.114,3.32c-1.808,1.674-2.879,4.352-3.214,7.766a25.594,25.594,0,0,0,.134,5.088,13.492,13.492,0,0,0,1.205,4.017,10.527,10.527,0,0,0,1.875,2.745A8.393,8.393,0,0,0,99.613,25.748Zm-69.629,0c0-.469.067-.469.469-.469.134,0,.536-.067.937-.134,2.678-.469,4.084-1.473,6.159-4.419,1.406-2.009,4.486-6.36,4.486-6.427a1.165,1.165,0,0,0-.2-.469c-.134-.2-1.138-1.875-2.276-3.682S37.349,6.533,37.081,6.2a11.3,11.3,0,0,0-4.553-3.95A8.581,8.581,0,0,0,30.52,1.78c-.469,0-.536-.067-.536-.469v-.4h8.3l.67,1.071c.4.6,1.808,2.812,3.147,4.887a45.052,45.052,0,0,0,2.544,3.816,30.18,30.18,0,0,0,2.276-3.348c1.473-2.41,1.942-3.816,1.54-4.486a2.58,2.58,0,0,0-2.075-1l-.469-.067v-.8H56.5v.8h-.268a9.07,9.07,0,0,0-3.481,1,10.213,10.213,0,0,0-2.276,1.741,31.553,31.553,0,0,0-2.745,3.883c-2.209,3.348-2.276,3.414-2.209,3.481.067.134,5.691,8.837,6.093,9.44,1.54,2.209,3.013,3.348,4.82,3.816a7.477,7.477,0,0,0,2.142.134,14,14,0,0,0,3.749-.335A4.164,4.164,0,0,0,65.6,22.066l.2-.6V13.429c0-5.624,0-8.235-.067-8.7-.268-1.875-.937-2.544-3.013-2.946a6.422,6.422,0,0,1-1-.2c-.268-.067-.268-.067-.268-.4V.842H80.866L81,3.453c.067,1.406.134,2.611.134,2.678S81,6.2,80.8,6.2h-.335l-.134-.536c-.469-2.075-1.875-3.147-4.486-3.548a32.767,32.767,0,0,0-3.414-.134L69.82,1.914v10.31l2.812-.067a28.535,28.535,0,0,0,4.352-.268c.134-.067.134.134.134,2.946v3.013h-.268c-.335,0-.4-.067-.4-.536a4.777,4.777,0,0,0-.8-2.544c-.736-.736-1.741-1-4.285-.87l-1.473.067V18.25c0,4.553.067,4.82.4,5.557a2.7,2.7,0,0,0,1.205,1.071,18.5,18.5,0,0,0,2.879.6c.268.067.268.067.268.4v.335H49.734L46.32,20.861c-1.875-2.946-3.481-5.356-3.481-5.356a12.238,12.238,0,0,0-1.674,2.142A22.013,22.013,0,0,0,38.085,23c-.2,1.071.469,1.808,2.276,2.41l.536.2v.67H29.917v-.536Zm88.241-3.013c0-1.875.067-5.624.134-8.436.067-5.758.067-9.976-.067-10.578-.268-.937-.67-1.54-1.339-1.741a4.2,4.2,0,0,0-1.071-.134l-.736-.067.067-.335a.812.812,0,0,1,.067-.335c.067-.067,4.954-.2,7.365-.2a27.578,27.578,0,0,1,5.825.268c3.481.536,5.624,1.875,6.36,4.017a6.522,6.522,0,0,1,.134,3.013c-.6,2.343-2.611,4.285-5.557,5.222l-.6.2.2.268c.134.134.736.87,1.406,1.607,5.49,6.226,9.038,9.239,11.649,9.708a6.565,6.565,0,0,0,2.209-.134,3.415,3.415,0,0,0,2.879-2.745c.268-.937.268-1.741.268-9.507,0-7.03-.067-7.7-.134-8.235a3.176,3.176,0,0,0-1.674-2.276,9.4,9.4,0,0,0-2.343-.67l-.4-.067V.909L144.4.842c3.548-.134,9.909-.134,11.248-.067,5.758.4,9.641,1.741,12.185,4.352a11.011,11.011,0,0,1,2.879,8.5,9.4,9.4,0,0,1-.536,3.147c-1.406,4.218-5.624,7.7-10.578,8.771-1.473.335-1.741.335-11.114.335-8.3,0-9.105,0-9.842-.134-1.808-.268-3.348-1.071-5.825-2.745A25.362,25.362,0,0,1,127.8,18.25c-.8-.937-3.615-4.687-3.682-4.887-.067-.067,0-.134.268-.134a6.333,6.333,0,0,0,2.276-.736,8.424,8.424,0,0,0,3.481-3.348,4.325,4.325,0,0,0,.4-2.209,5.189,5.189,0,0,0-2.009-3.548,8.421,8.421,0,0,0-4.954-1.607l-.87-.067-.067,2.41c-.134,5.423-.134,17.206-.067,17.876.268,2.009.937,2.544,3.682,2.946,1.339.2,1.205.134,1.205.6v.4h-9.105l-.134-3.214Zm39.233,2.075c4.084-.67,6.963-3.548,7.9-8.034a17.03,17.03,0,0,0,.134-4.887,10.923,10.923,0,0,0-1.741-4.82,11.575,11.575,0,0,0-8.369-4.887,17.917,17.917,0,0,0-3.749-.067l-.4.067V12.224c0,9.038.067,10.11.134,10.444a2.509,2.509,0,0,0,1.942,1.942,9.4,9.4,0,0,0,4.151.2Z" transform="translate(817.01 4200.027)" fill="#fff"/>
  </g>
</svg>
