<svg xmlns="http://www.w3.org/2000/svg" xmlns:xlink="http://www.w3.org/1999/xlink" width="90" height="90" viewBox="0 0 90 90">
  <defs>
    <clipPath id="clip-path">
      <rect id="Rectangle_36616" data-name="Rectangle 36616" width="90" height="90" fill="#fff" stroke="#707070" stroke-width="1"/>
    </clipPath>
    <clipPath id="clip-path-2">
      <rect id="Rectangle_37082" data-name="Rectangle 37082" width="88.048" height="84.463" fill="none"/>
    </clipPath>
  </defs>
  <g id="media" clip-path="url(#clip-path)">
    <g id="Group_127337" data-name="Group 127337" transform="translate(0.967 3.001)">
      <path id="Path_108095" data-name="Path 108095" d="M0,0V72.1H37.115V68.553H3.545V3.545H68.629v20.9h3.545V0Z" fill="#fff"/>
      <g id="Group_127336" data-name="Group 127336" transform="translate(0 0)">
        <g id="Group_127335" data-name="Group 127335" clip-path="url(#clip-path-2)">
          <path id="Path_108096" data-name="Path 108096" d="M63.472,28.821v26.1a15.309,15.309,0,1,0,3.553,9.8c0-.156-.019-.308-.024-.464h.015V31.6L77.9,28.91v9.664l-6.761,1.788.907,3.426,9.4-2.485V24.382Z" transform="translate(6.607 4.425)" fill="#fff"/>
          <path id="Path_108097" data-name="Path 108097" d="M16.925,34.131A16.788,16.788,0,1,0,33.713,17.343,16.789,16.789,0,0,0,16.925,34.131m19.117,0A2.329,2.329,0,1,1,33.713,31.8a2.328,2.328,0,0,1,2.329,2.329" transform="translate(3.072 3.148)" fill="#fff"/>
        </g>
      </g>
    </g>
  </g>
</svg>
